<svg width="212.5" height="212.2" xmlns="http://www.w3.org/2000/svg" xml:space="preserve" enable-background="new 0 0 455.6 212.2" version="1.1">

 <g>
  <title>Layer 1</title>
  <g transform="rotate(-180 106.1 106.1)" id="svg_1">
   <g id="svg_2">
    <g id="svg_5">
     <path id="svg_6" d="m82.1,161.3c-0.5,0 -1,-0.2 -1.3,-0.6c-0.5,-0.7 -0.4,-1.7 0.3,-2.2l67.5,-52.3l-67.5,-50.3c-0.7,-0.5 -0.9,-1.5 -0.3,-2.2c0.5,-0.7 1.5,-0.9 2.2,-0.3l69.2,51.5c0.4,0.3 0.6,0.8 0.6,1.3c0,0.5 -0.2,1 -0.6,1.3l-69.1,53.5c-0.3,0.2 -0.6,0.3 -1,0.3z" fill="#BCA78E"/>
    </g>
   </g>
   <g id="svg_7">
    <path id="svg_8" d="m106.1,212.2c-58.5,0 -106.1,-47.6 -106.1,-106.1s47.6,-106.1 106.1,-106.1s106.1,47.6 106.1,106.1s-47.6,106.1 -106.1,106.1zm0,-209c-56.7,0 -102.9,46.2 -102.9,102.9s46.2,102.9 102.9,102.9s102.9,-46.2 102.9,-102.9s-46.1,-102.9 -102.9,-102.9z" fill="#BCA78E"/>
   </g>
  </g>
 </g>
</svg>