<?xml version="1.0" encoding="utf-8"?>
<!-- Generator: Adobe Illustrator 26.0.3, SVG Export Plug-In . SVG Version: 6.00 Build 0)  -->
<svg version="1.1" id="圖層_1" xmlns="http://www.w3.org/2000/svg" xmlns:xlink="http://www.w3.org/1999/xlink" x="0px" y="0px"
	 width="431.8px" height="240.5px" viewBox="0 0 431.8 240.5" enable-background="new 0 0 431.8 240.5" xml:space="preserve">
<g>
	<g opacity="0.7">
		<polygon fill="#868075" points="207.4,95.3 207.4,65.9 233,51.2 258.5,65.9 258.5,95.3 233,110.1 		"/>
	</g>
	<g>
		<path fill="#B49F86" d="M184.6,115.3l-0.2-0.1l-49.8-28.7V28.8l0.2-0.1L184.6,0l0.2,0.1l49.8,28.7v57.6l-0.2,0.1L184.6,115.3z
			 M135.5,85.9l49.1,28.3l49.1-28.3V29.3L184.6,1l-49.1,28.3V85.9z"/>
	</g>
	<g>
		<g>
			<path fill="#534741" d="M36.7,72c3.5,4.7,8.3,8.4,14.7,10.5c5.4,1.8,11.9,2.8,19.8,3c0.4,0,0.4,0.8,0,0.9
				c-2.8,1.3-4.2,3.2-5.3,7.2c-0.2,0.5-0.5,0.8-1.1,0.8c-0.8,0-2.2-0.3-3.8-0.8c-4.2-1.2-10.1-3.8-13.4-6
				c-5.4-3.5-9.4-8.3-12.2-14.2c-1.6,4.6-4.2,8.5-7.9,11.6c-6.2,5.3-15.3,8.5-27.1,9.4c-0.4,0-0.6-1.2-0.2-1.2
				c9.4-2.2,16.5-5.9,21.5-10.9c2.9-2.9,5-6.3,6.3-10.2H8.4c-2,0-4,0.2-6.6,0.5L1,69.6c2.9,0.5,5.1,0.6,7.2,0.6h20.2
				c0.6-2.5,1-5.2,0.9-8.1c10,1.4,10.2,1.5,10.2,2.6c0,0.9-0.8,1.5-2.8,2.1c-0.2,1.2-0.3,2.2-0.5,3.4h21c3.5-4.2,4.5-4.8,5-4.8
				c0.7,0,1.5,0.6,5.1,3.4c1.5,1.2,2.2,1.8,2.2,2.4s-0.2,0.8-1,0.8H36.7z M30.4,49.1H15c-1.6,0-3.3,0.2-5.5,0.5l-0.8-2.8
				c2.5,0.5,4.2,0.6,6.1,0.6h15.7v-9H10.7c-1.7,0-3.4,0.2-5.7,0.5L4.1,36c2.5,0.5,4.4,0.6,6.3,0.6h29.4c1.5-2.8,2.6-5.3,3.6-7.7
				c0.8-1.9,1.5-3.7,1.8-5.3c6.8,2.8,9.2,4.1,9.2,5.1S53.8,29.9,51,30c-2.5,2.5-5.5,4.9-8,6.5h12.2c3.5-3.8,4.4-4.5,4.9-4.5
				c0.7,0,1.5,0.6,4.8,3.1c1.5,1.2,2.1,1.8,2.1,2.4s-0.2,0.8-1,0.8H37.7v9h12.6c3.4-3.8,4.3-4.5,4.8-4.5c0.7,0,1.5,0.6,4.8,3.2
				c1.3,1.1,1.9,1.8,1.9,2.3s-0.2,0.8-1,0.8H37.7v9.9h19.6c3.5-4,4.4-4.6,4.9-4.6c0.7,0,1.5,0.6,4.9,3.2c1.5,1.2,2.1,1.8,2.1,2.4
				c0,0.5-0.2,0.8-1,0.8H7.9C6,60.8,4,61,1.5,61.3l-0.8-2.8c2.8,0.5,4.9,0.6,7,0.6h22.8V49.1z M24.6,35.9c-1.8,0-2.4-0.6-3.1-3
				c-0.9-3.5-2.4-6-4.4-8.1c-0.2-0.3,0-0.8,0.4-0.7c7.5,1.1,11.2,4.2,11.2,8C28.7,34.6,27.4,35.9,24.6,35.9z"/>
		</g>
		<g>
			<path fill="#534741" d="M97.1,56.4c0.5,5.9-1.6,11-5.5,11c-2.4,0-3.8-1.5-3.8-4.1c0-1.8,0.5-2.8,2.2-3.7c3.8-2.2,4.5-3.5,5.2-8.5
				c0.1-0.4,0.7-0.5,0.8-0.1c0.4,1.2,0.7,2.4,0.9,3.6h1.7l-0.9-19.6c-0.1-2.5-0.2-5.1-0.6-7.9c3.1,1.1,3.5,1.2,6.8,2.7
				c1.6-0.9,3.3-2.2,4.6-3.5c0.9-0.9,1.5-1.7,2.2-2.7c4.5,2.5,6,3.5,6,4.2c0,0.6-0.5,1.2-2.8,0.8c-3.3,1.4-7.1,2.5-10,2.7l0.2,5.9
				h3.2c1.8-2.5,2.6-3.1,3.2-3.1c0.7,0,1.5,0.6,3.5,2.3c0.6,0.5,1.3,1.2,1.3,1.8s-0.2,0.8-1,0.8h-10.1l0.2,7h2.8
				c1.8-2.5,2.6-3.1,3.2-3.1c0.7,0,1.5,0.6,3.5,2.3c0.6,0.5,1.3,1.2,1.3,1.8c0,0.5-0.2,0.8-1,0.8h-9.7l0.3,6.6h39.5l0.5-7.1h-5.4
				c-1.1,0-2.2,0.2-3.7,0.5l-0.8-2.8c1.8,0.4,3.2,0.5,4.5,0.5h5.5l0.4-6.9h-6.4c-0.8,0-1.7,0.2-2.8,0.5l-0.8-2.8
				c1.5,0.4,2.6,0.5,3.7,0.5h6.5l0.4-7.2h-5.5c-1.5,0-2.4,0.1-3.7,0.3l-0.6-2.7c1.7,0.5,2.7,0.6,4.3,0.6h5.1
				c2.5-2.5,3.2-2.9,3.8-2.9c0.8,0,1.3,0.5,3.9,2.8c1.2,1.1,1.6,1.7,1.6,2.3c0,0.8-0.7,1.3-2.5,2.1l-1.5,22.2h0.5
				c2.4-3,3-3.5,3.6-3.5c0.8,0,1.3,0.2,4.6,3.5c1.5,1.5,2,2.2,2,2.8c0,1.2-0.4,1.4-3.4,1.6c-1.2,0.2-1.2,0.2-1.8,0.6
				c-1.8,1.5-4.8,3.8-7.2,5.2c-0.3,0.2-0.9-0.3-0.8-0.6c1.1-2.1,2.2-4.8,3.1-7.8H97.1z M121,74.4c0-2.7,0-3.5-0.2-5.8
				c2.9,0.5,5,0.8,6.5,1.2c2.8-1.5,4.8-2.8,7.6-5.2H107c-1.3,0-2.7,0.2-4.5,0.6l-0.8-3c2,0.5,3.5,0.6,5.1,0.6H135
				c2.9-2.5,3.5-2.9,4.2-2.9c0.8,0,1.5,0.5,4.5,2.8c1.4,1.1,1.8,1.6,1.8,2.2c0,1.1-0.8,1.5-3.8,1.5c-4.3,1.8-7.3,2.8-11.6,3.9
				c0.6,0.2,0.7,0.5,0.7,0.8c0,0.8-0.7,1.5-2.6,2.4v1.5h18.3c3.9-4.6,4.8-5.2,5.4-5.2c0.7,0,1.5,0.6,5.3,3.6
				c1.8,1.5,2.5,2.1,2.5,2.6s-0.2,0.8-1,0.8h-30.5v2.9c0,3.4,0.2,5.4,0.2,8c0,1.7-0.4,3.6-1.3,4.8c-1.3,1.8-3.8,2.5-7.2,2.5
				c-1.2,0-1.4-0.5-2-2.4c-0.7-2-2.6-3-7.7-4.3c-0.4-0.1-0.4-1.2,0-1.2c3.4,0.3,6.9,0.5,9.8,0.5c0.7,0,1-0.3,1-1.2v-9.7H95
				c-1.5,0-2.9,0.2-4.8,0.5l-0.8-2.8c2.2,0.5,3.8,0.6,5.4,0.6H121V74.4z M115.4,53.6c-0.4,0.1-0.7-0.3-0.4-0.5
				c3-1.9,5.8-4.2,8.1-6.6c-1.5-1.2-3.3-2.5-5.3-3.5c-0.3-0.2-0.1-0.8,0.3-0.7c2.6,0.6,5,1.3,7,2.1c1.8-2.3,2.8-3.8,3.5-5.2
				c4.7,2.2,5.7,2.8,5.7,3.5c0,0.5-0.8,0.8-2.3,0.7c-0.8,1.1-1.8,2-2.8,2.9c2.6,1.5,4,3.1,4,4.6c0,1.4-0.9,2.4-2.2,2.4
				c-0.8,0-1.5-0.4-2.6-1.8c-0.8-0.8-1.6-1.7-2.5-2.5C122.6,51.1,119,52.8,115.4,53.6z M132.1,36.4c0,1.2-1,2.3-2.2,2.3
				c-0.8,0-1.4-0.4-2.5-1.6c-0.5-0.7-1.2-1.4-1.8-2c-2.8,2-6,3.5-9.2,4.4c-0.4,0.1-0.8-0.4-0.5-0.6c2.5-1.7,4.9-3.8,7-6.1
				c-1.6-1.3-3.5-2.5-5.3-3.6c-0.3-0.2-0.2-0.8,0.2-0.8c2.7,0.6,5.1,1.3,7.1,2.1c1.9-2.5,2.8-4.2,3.5-5.6c4.3,1.9,5.6,2.7,5.6,3.5
				c0,0.5-0.8,0.8-2.3,0.7c-0.8,1.2-1.8,2.3-2.9,3.3C131,33.7,132.1,35.1,132.1,36.4z"/>
		</g>
	</g>
	<g>
		<g>
			<path fill="#868075" d="M100.1,174.9c0,0.9-0.6,1.3-1.8,1.3c-0.9,0-1.3-0.3-1.3-1c0-2,0.2-4.8,0.2-17.5c0-7,0-10.3-0.2-13.4
				c1.5,0.6,2.1,0.9,3.5,1.7h15.7c1.3-1.4,1.5-1.5,1.7-1.5c0.3,0,0.5,0.1,1.9,1.3c0.6,0.5,0.7,0.8,0.7,1c0,0.3-0.2,0.6-1.1,1.1v7.6
				c0,12.2,0.2,17.5,0.2,19.2c0,0.9-0.6,1.3-1.9,1.3c-0.9,0-1.3-0.3-1.3-1.1V173h-16.6V174.9z M116.6,146.9h-16.6v11.8h16.6V146.9z
				 M100.1,172.1h16.6v-12.4h-16.6V172.1z"/>
		</g>
		<g>
			<path fill="#868075" d="M138,151.3c-0.9,0-1.6,0.1-2.7,0.2l-0.4-1.5c1.2,0.3,2,0.3,3,0.3H154c0-1,0-2.1-0.1-3.2
				c0-2-0.1-2.8-0.3-4.2c3.9,0.4,4.2,0.6,4.2,1.1c0,0.3-0.2,0.5-1.2,1c0,2,0.1,3.8,0.1,5.4h6.1c1.6-1.9,1.9-2,2.1-2
				c0.3,0,0.5,0.2,2.1,1.5c0.8,0.6,0.9,0.9,0.9,1.1c0,0.2-0.1,0.3-0.5,0.3h-10.6c0.2,5.3,0.8,8.4,1.7,11.4c1,3.3,2.8,6.4,5.4,8.7
				c0.9,0.8,1.4,1.1,1.7,1.1c0.4,0,0.8-0.6,2.3-4.5c0-0.2,0.3,0,0.3,0.2c-0.3,3.2-0.4,4.3-0.4,4.9c0,0.6,0.1,0.7,0.5,1.3
				c0.3,0.3,0.3,0.6,0.3,1c0,0.8-0.5,1.3-1.4,1.3c-0.8,0-1.9-0.4-3-1.2c-3.4-2.2-6.6-6.1-8.2-11.5c-1.2-3.6-1.8-7.3-2.1-12.7H138z
				 M146.1,169c2.7-0.7,5.5-1.6,7.7-2.4c0.3-0.1,0.5,0.4,0.2,0.5c-4.3,2.7-8.9,4.3-16,6.5c-0.3,1.1-0.4,1.4-0.8,1.4
				c-0.5,0-0.9-0.8-1.8-4.1c1,0,2.3-0.2,3.5-0.4c1.3-0.2,2.7-0.5,4.1-0.8V159h-4c-0.9,0-1.6,0.1-2.6,0.3l-0.4-1.6
				c1.2,0.3,2,0.3,3,0.3h9.4c1.5-1.9,1.8-2.1,2-2.1c0.3,0,0.6,0.2,2.1,1.5c0.7,0.6,0.9,1,0.9,1.2c0,0.2-0.2,0.3-0.5,0.3h-6.8V169z
				 M161.6,147.4c-0.6-1.2-1.4-2.2-2.6-3.2c-0.1-0.1,0-0.4,0.1-0.4c3.3,0.5,5.3,1.8,5.3,3.4c0,0.8-0.6,1.4-1.3,1.4
				C162.5,148.7,162.2,148.4,161.6,147.4z"/>
		</g>
		<g>
			<path fill="#868075" d="M195.5,166c2.1,2.8,4.5,4.6,7.6,5.8c2.8,1,6.2,1.6,9.6,1.7c0.2,0,0.2,0.4,0,0.4c-1.1,0.4-1.7,1-2.2,2.5
				c-0.1,0.3-0.3,0.4-0.6,0.4c-0.3,0-1.1-0.2-1.9-0.3c-2.2-0.6-4.8-1.7-6.6-2.8c-2.6-1.6-4.8-3.8-6.6-7.3c-0.8,2.6-2.2,4.6-4.1,6.1
				c-2.9,2.4-6.8,3.9-12.6,4.6c-0.3,0-0.4-0.6-0.1-0.6c5.1-1.2,8.7-3,11.2-5.7c1.3-1.4,2.2-3,2.8-4.6h-10.4c-1,0-1.9,0.1-2.9,0.2
				l-0.4-1.4c1.2,0.2,2.2,0.3,3.3,0.3h10.7c0.3-1.7,0.5-2.8,0.5-3.8c3.8,0.5,4.2,0.6,4.2,1.1c0,0.3-0.2,0.6-1.3,1
				c-0.1,0.6-0.2,1.1-0.3,1.7h11.5c1.6-1.9,1.8-2,2.1-2c0.3,0,0.5,0.2,2.3,1.5c0.7,0.6,0.9,0.8,0.9,1.1c0,0.2-0.1,0.3-0.5,0.3H195.5
				z M206.6,159.6c1.6-1.9,1.9-2.1,2.1-2.1c0.2,0,0.5,0.2,2.2,1.6c0.7,0.6,0.9,0.8,0.9,1.1c0,0.3-0.2,0.4-0.5,0.4h-29.9
				c-1,0-1.8,0-3,0.2l-0.4-1.5c1.3,0.2,2.2,0.3,3.3,0.3h11.8v-4.8h-8.1c-0.9,0-1.7,0-2.7,0.2l-0.4-1.5c1.2,0.2,2,0.3,3,0.3h8.2v-4.4
				h-10.3c-0.9,0-1.7,0-2.7,0.2l-0.4-1.5c1.1,0.2,2,0.3,3,0.3h14.8c0.8-1.3,1.5-2.8,2.1-4c0.3-0.8,0.6-1.5,0.7-2.2
				c3,1.2,3.9,1.7,3.9,2.1s-0.2,0.6-1.6,0.6c-1.2,1.4-2.5,2.5-3.7,3.5h6.6c1.6-1.7,1.9-1.9,2.1-1.9c0.3,0,0.5,0.2,2.1,1.4
				c0.8,0.6,0.9,0.9,0.9,1.1c0,0.3-0.2,0.4-0.5,0.4H196v4.4h7.2c1.5-1.7,1.8-1.9,2-1.9c0.2,0,0.5,0.2,2.1,1.4
				c0.7,0.6,0.8,0.8,0.8,1.1c0,0.2-0.1,0.4-0.5,0.4H196v4.8H206.6z M188.7,146.9c-0.5-1.6-1.1-3-2.4-4.1c-0.1-0.1,0.1-0.3,0.2-0.3
				c3.2,0.7,5.1,2.3,5.1,3.9c0,1-0.6,1.6-1.7,1.6C189.2,148.1,189,147.8,188.7,146.9z"/>
		</g>
		<g>
			<path fill="#868075" d="M225.8,148.6c-0.1-1.7-0.2-3-0.4-4.5c1.1,0.4,1.7,0.6,2.8,1.2c0.8-0.4,2-1.1,2.8-1.7
				c0.6-0.5,1.1-0.8,1.4-1.3c1.9,1.3,2.4,1.7,2.4,2s-0.3,0.5-1.5,0.2c-1.7,0.7-3.6,1.3-5.2,1.5l0.1,2.9h2.5c0.9-1.1,1.1-1.3,1.4-1.3
				s0.5,0.2,1.6,1.1c0.3,0.3,0.5,0.6,0.5,0.8c0,0.3-0.1,0.4-0.5,0.4h-5.5l0.1,3.4h2.4c0.9-1.2,1.2-1.3,1.4-1.3
				c0.2,0,0.5,0.2,1.6,1.1c0.3,0.3,0.5,0.6,0.5,0.8c0,0.3-0.2,0.4-0.5,0.4h-5.4l0.2,3.3H249l0.2-3.5h-2.4c-0.9,0-1.5,0.1-2.4,0.3
				l-0.4-1.5c1.1,0.2,1.8,0.3,2.8,0.3h2.5l0.2-3.3h-2.8c-0.8,0-1.4,0-2.1,0.2l-0.4-1.4c1,0.2,1.6,0.3,2.5,0.3h2.9l0.2-3.4h-2.7
				c-1,0-1.5,0-2.4,0.2l-0.3-1.4c1.1,0.2,1.7,0.3,2.7,0.3h2.5c1.1-1.1,1.3-1.2,1.5-1.2c0.2,0,0.5,0.2,1.5,1c0.6,0.6,0.7,0.8,0.7,1
				c0,0.3-0.3,0.5-1.1,1l-0.7,11.3h1.1c1-1.2,1.2-1.3,1.5-1.3s0.5,0,1.7,1.3c0.8,0.8,0.9,1.1,0.9,1.3c0,0.5-0.3,0.6-1.4,0.7
				c-0.5,0-0.6,0.1-0.9,0.4c-0.8,0.8-1.9,1.6-3,2.5c-0.2,0.1-0.4-0.2-0.3-0.3c0.6-1.1,1.1-2.2,1.6-3.6h-27.5c0,2.8-1.1,4.9-2.6,4.9
				c-0.9,0-1.5-0.6-1.5-1.6c0-0.8,0.2-1.1,0.9-1.6c1.6-1,2.1-1.9,2.5-4.1c0-0.2,0.4-0.2,0.4,0c0.1,0.5,0.2,0.9,0.2,1.3h1.1
				L225.8,148.6z M237.4,167.5c0-1.6,0-1.9-0.2-3.2c1.5,0.2,2.5,0.4,3.1,0.5c1.6-0.7,2.9-1.4,4.4-2.5h-14.2c-1,0-1.6,0.1-2.6,0.3
				l-0.4-1.5c1.1,0.2,1.9,0.3,2.8,0.3h14.4c1.1-1,1.4-1.1,1.6-1.1c0.3,0,0.5,0.2,1.7,1.1c0.8,0.6,1,0.9,1,1.2c0,0.4-0.4,0.6-1.6,0.6
				c-2.3,1-4,1.5-6.2,2.1c0.1,0.6-0.2,0.8-1.3,1.3v0.9h10.3c1.7-2,2-2.2,2.2-2.2c0.3,0,0.5,0.2,2.4,1.7c0.8,0.6,1,0.9,1,1.1
				c0,0.3-0.1,0.4-0.5,0.4h-15.3v1c0,3.2,0.1,4,0.1,4.9c0,1-0.4,1.8-0.9,2.3c-0.6,0.6-1.7,0.9-2.8,0.9c-0.5,0-0.6-0.2-0.8-1
				c-0.2-0.9-1.1-1.3-3.9-1.9c-0.2,0-0.2-0.5,0-0.5c2.1,0.2,3.8,0.2,5,0.2c0.4,0,0.6-0.2,0.6-0.6v-5.3h-13.1c-0.8,0-1.2,0.1-2.2,0.2
				l-0.4-1.4c1.1,0.2,1.8,0.3,2.5,0.3H237.4z M239.9,151.8c0.6-0.7,0.9-1.3,1.2-2c2,1,2.4,1.3,2.4,1.6c0,0.2-0.3,0.4-1.2,0.3
				c-0.5,0.5-0.9,1-1.5,1.5c1.4,0.8,2.1,1.7,2.1,2.4c0,0.6-0.4,1-0.9,1c-0.3,0-0.6-0.2-1.1-0.8c-0.4-0.5-0.9-1-1.4-1.5
				c-1.6,1.2-3.3,2.1-5.1,2.6c-0.2,0-0.3-0.3-0.2-0.3c1.6-0.9,3.1-2.1,4.3-3.2c-0.8-0.6-1.8-1.3-2.9-1.9c-0.2-0.1,0-0.3,0.2-0.3
				c1.4,0.4,2.6,0.8,3.6,1.2L239.9,151.8z M242.4,148.5c0,0.5-0.4,1-0.9,1c-0.3,0-0.6-0.2-1-0.7c-0.3-0.4-0.7-0.8-1.1-1.2
				c-1.3,1-2.8,1.9-4.4,2.4c-0.2,0-0.3-0.3-0.2-0.3c1.4-0.9,2.6-1.9,3.6-3c-0.8-0.6-1.7-1.3-2.9-1.9c-0.1-0.1,0-0.4,0.2-0.3
				c1.4,0.3,2.6,0.8,3.6,1.2c0.2-0.3,0.4-0.5,0.6-0.8c0.5-0.7,0.9-1.3,1.2-2.1c2,1,2.5,1.2,2.5,1.6c0,0.3-0.4,0.4-1.2,0.4
				c-0.5,0.6-1,1.2-1.6,1.7C241.8,147.1,242.4,147.8,242.4,148.5z"/>
		</g>
		<g>
			<path fill="#868075" d="M99.8,229.2c1.7-0.6,3.5-1.3,4.9-2c0.2-0.1,0.5,0.3,0.3,0.4c-3.1,2.4-6.3,4.2-10.6,6
				c-0.2,1.1-0.3,1.5-0.7,1.5c-0.5,0-0.8-0.6-1.9-4.1c0.9-0.1,1.8-0.2,2.8-0.4c0.8-0.2,1.7-0.4,2.6-0.7v-10.4H95
				c-0.7,0-1.3,0.1-2.2,0.2l-0.4-1.4c1,0.2,1.7,0.3,2.6,0.3h2.1v-9.1h-2.5c-0.8,0-1.4,0-2.3,0.2l-0.4-1.4c1.1,0.2,1.7,0.3,2.6,0.3
				h6.2c1.4-1.6,1.6-1.8,1.9-1.8c0.3,0,0.5,0.2,2,1.4c0.6,0.5,0.8,0.8,0.8,1c0,0.3-0.1,0.4-0.5,0.4h-5.1v9.1h1.3
				c1.1-1.4,1.4-1.6,1.6-1.6c0.3,0,0.5,0.2,1.8,1.3c0.5,0.5,0.7,0.7,0.7,0.9c0,0.3-0.2,0.4-0.5,0.4h-4.9V229.2z M99.2,239.6
				c5-1.6,8.3-4.2,10-7.3c0.7-1.3,1-2.7,1.1-4.2c3,0.5,3.8,0.8,3.8,1.3c0,0.4-0.2,0.5-1.3,0.9c-1.5,5.3-5.7,8.5-13.5,9.8
				C99.1,240.2,99,239.7,99.2,239.6z M118.7,235.8c0,1,0.3,1.3,2.2,1.3s2.5-0.1,3-0.8c0.6-0.7,1-2.2,1.6-4.6c0-0.2,0.4-0.1,0.4,0
				c0,1.1-0.1,2.5-0.1,3.3c0,0.8,0.1,0.9,0.6,1.1c0.3,0.2,0.6,0.6,0.6,1.1c0,0.8-0.6,1.4-1.6,1.7c-0.9,0.3-2.3,0.5-4.8,0.5
				c-3.6,0-4.6-0.9-4.6-3c0-0.9,0.1-2.1,0.1-3.6v-5.5h-6.8v0.5c0,0.8-0.6,1.3-1.7,1.3c-0.9,0-1.2-0.3-1.2-1.1
				c0-1.5,0.2-3.7,0.2-12.8c0-4.6,0-6.9-0.3-9.1c1.4,0.5,1.9,0.8,3.2,1.5h11c1.2-1.3,1.4-1.4,1.6-1.4c0.3,0,0.5,0.1,1.7,1.1
				c0.6,0.5,0.8,0.7,0.8,1c0,0.4-0.3,0.6-1.1,1.2v5c0,8.3,0.2,12,0.2,13.2c0,0.8-0.6,1.3-1.6,1.3c-0.9,0-1.3-0.3-1.3-1.1v-0.6h-2
				V235.8z M120.7,208.7h-11.5v5.2h11.5V208.7z M109.2,220.1h11.5v-5.2h-11.5V220.1z M109.2,226.5h11.5v-5.4h-11.5V226.5z"/>
		</g>
		<g>
			<path fill="#868075" d="M142.9,224.5c0,9,0,13.1,0,14.4c0,0.9-0.5,1.3-1.6,1.3c-0.8,0-1.3-0.3-1.3-1.1c0-0.8,0.1-3.5,0.2-12.3
				c0-2.4,0-4.7,0.1-7.1c-1.5,1.9-3.2,3.5-5.1,4.9c-0.2,0.2-0.6-0.3-0.5-0.5c3.1-3.2,6.1-8.7,7.7-13.4c0.6-1.8,1.1-3.5,1.3-5.1
				c2.8,0.8,4.2,1.4,4.2,1.8c0,0.4-0.4,0.6-1.4,0.8c-1.3,3.4-2.8,6.3-4.5,9c1.7,0.3,2,0.5,2,0.8c0,0.3-0.2,0.5-1.1,0.9V224.5z
				 M148.1,218.5c-0.8,0.1-1.2,0.2-2.5,0.4l-0.6-1.3c1.3,0,2.4,0,2.9,0l5.4-0.5c-0.2-2-0.4-4.2-0.5-6.6c-0.1-2.2-0.2-3.2-0.4-4.6
				c4.1,0.6,4.4,0.7,4.4,1.1c0,0.3-0.2,0.6-1.3,1c0,3.5,0.2,6.3,0.5,8.8l7.9-0.7c1.4-2.1,1.6-2.2,1.8-2.2c0.3,0,0.5,0.1,2.5,1.4
				c0.8,0.5,0.9,0.8,0.9,1c0,0.2-0.2,0.3-0.5,0.3l-12.6,1.1c0.3,2.7,0.9,4.9,1.6,7.1c1.3,4.3,4,8.2,7.5,10.3c0.7,0.4,1,0.5,1.3,0.5
				s0.8-1,2.4-5c0.1-0.2,0.5-0.1,0.4,0.1c-0.5,3.3-0.7,4.9-0.7,5.2c0,0.5,0.1,0.6,0.4,0.9c0.5,0.4,0.7,0.8,0.7,1.2
				c0,0.7-0.6,1.3-1.5,1.3c-1.2,0-3-0.6-4.8-1.9c-3.4-2.4-6.2-6.1-7.9-10.6c-1-2.7-1.6-5.6-2.1-8.9L148.1,218.5z M161.6,212.4
				c-0.6-1.5-1.4-2.7-3.1-4.1c-0.2-0.1,0-0.4,0.2-0.4c3.5,0.7,5.8,2.6,5.8,4.3c0,0.9-0.5,1.6-1.3,1.6
				C162.5,213.8,162.1,213.5,161.6,212.4z"/>
		</g>
		<g>
			<path fill="#868075" d="M192.1,223.5c0.1-1.4,0.1-2.3,0.1-3.7c3.3,0.5,3.7,0.6,3.7,1.2c0,0.3-0.3,0.5-1.3,0.9l-0.5,7.9h3.5
				l0.6-12.2h-3.6c-0.1,0.7-0.5,1-1.3,1c-0.9,0-1.2-0.3-1.2-0.8c0-0.2,0-0.7,0.1-1.3c0.2-2.3,0.5-5.6,0.5-7.3c0.1-1.1,0.1-2,0-3.4
				c3,0.5,3.8,0.8,3.8,1.2c0,0.4-0.2,0.5-1.3,0.9c-0.1,1-0.2,2-0.2,3.1h3.4c1.3-1.4,1.6-1.6,1.8-1.6c0.3,0,0.5,0.2,1.8,1.3
				c0.5,0.4,0.7,0.7,0.7,0.9c0,0.2-0.1,0.3-0.5,0.3H195c-0.1,1.6-0.2,3.2-0.3,4.8h3.2c1.1-1.1,1.3-1.3,1.5-1.3c0.3,0,0.5,0.1,1.6,1
				c0.5,0.4,0.6,0.7,0.6,1c0,0.3-0.1,0.5-1,1l-0.5,11.4h7.6l0.2-6.4h-2.8c-0.9,0-1.4,0.1-2.2,0.3l-0.4-1.5c1.1,0.2,1.7,0.3,2.7,0.3
				h2.8l0.2-5.8h-3c-0.9,0-1.4,0-2.3,0.2l-0.4-1.4c1.1,0.2,1.7,0.3,2.7,0.3h3.1l0.2-6h-3c-1,0-1.6,0-2.5,0.2l-0.3-1.4
				c1.1,0.2,1.7,0.2,2.8,0.3h2.9c1.1-1.2,1.3-1.3,1.5-1.3c0.3,0,0.5,0.2,1.6,1c0.5,0.5,0.7,0.7,0.7,1c0,0.3-0.2,0.5-1.1,0.9
				l-0.6,19.4h0.4c1.1-1.7,1.3-1.9,1.5-1.9c0.3,0,0.5,0.2,1.7,1.4c0.5,0.5,0.7,0.8,0.7,1.1c0,0.3-0.1,0.4-0.5,0.4h-32.7
				c-0.9,0-1.6,0-2.6,0.2l-0.4-1.4c1.2,0.2,1.9,0.3,2.9,0.3h0.9l-0.4-14.6c-0.1-3.8-0.2-5.2-0.4-7c1.3,0.5,1.9,0.8,3.1,1.4
				c1.2-0.6,2.4-1.4,3.2-2.1c0.5-0.4,0.8-0.8,1.1-1.1c2.3,1.6,2.8,2.1,2.8,2.4c0,0.2-0.2,0.4-0.6,0.4c-0.2,0-0.6-0.1-1-0.2
				c-1.9,0.7-3.9,1.3-5.7,1.7l0.2,5.4h2.6c1.1-1.4,1.3-1.6,1.6-1.6c0.2,0,0.5,0.2,1.8,1.3c0.4,0.4,0.6,0.6,0.6,0.8
				c0,0.2-0.1,0.4-0.5,0.4h-6l0.2,5.7h2.4c1.1-1.4,1.3-1.6,1.6-1.6c0.2,0,0.5,0.2,1.8,1.3c0.4,0.4,0.6,0.6,0.6,0.8
				c0,0.2-0.1,0.4-0.5,0.4h-5.8l0.2,6.1h6.7L192.1,223.5z M179.5,240.1c3.2-1.5,6.4-3.8,8.6-6c0.7-0.7,1.3-1.4,1.6-2.2
				c3.2,1.5,3.7,1.9,3.7,2.3c0,0.3-0.2,0.6-1.8,0.6c-3.6,3-7.2,4.6-11.9,5.7C179.5,240.5,179.3,240.1,179.5,240.1z M207.7,239.2
				c-2.2-2.5-4-4-8.2-6.1c-0.2-0.1,0-0.5,0.2-0.4c7,1.1,11.1,3.5,11.1,6c0,1-0.6,1.7-1.4,1.7C208.8,240.4,208.4,240.1,207.7,239.2z"
				/>
		</g>
		<g>
			<path fill="#868075" d="M231.4,239c0,0.8-0.6,1.3-1.8,1.3c-0.8,0-1.3-0.3-1.3-1.1c0-1.4,0.2-3.5,0.2-10.8c0-3,0-4.3-0.2-5.9
				c1.5,0.6,2.1,1,3.4,1.7h6.5v-8.7h-12c-1.1,0-1.9,0.1-3,0.2l-0.4-1.4c1.3,0.2,2.2,0.3,3.3,0.3h12.1v-3.6c0-2.6,0-4.2-0.2-5.7
				c4,0.4,4.5,0.7,4.5,1.1c0,0.3-0.3,0.6-1.4,1.1v7.1h10.3c1.9-2.2,2.2-2.4,2.4-2.4c0.2,0,0.5,0.2,2.5,1.8c0.9,0.8,1.1,1,1.1,1.2
				c0,0.3-0.1,0.4-0.5,0.4h-15.8v8.7h7c1.2-1.4,1.4-1.5,1.7-1.5s0.5,0.2,1.9,1.3c0.6,0.5,0.8,0.8,0.8,1c0,0.3-0.2,0.5-1.2,1.1v3.8
				c0,5.7,0.2,8.2,0.2,9c0,0.9-0.6,1.3-1.8,1.3c-0.9,0-1.2-0.3-1.2-1.1v-1.7h-17.1V239z M248.5,225.2h-17.1v11.3h17.1V225.2z"/>
		</g>
		<g>
			<path fill="#868075" d="M293.3,212.1c1.2-1.3,1.4-1.5,1.7-1.5c0.3,0,0.5,0.2,1.7,1.2c0.6,0.5,0.7,0.8,0.7,1c0,0.3-0.2,0.5-1,1.1
				v15.5h0.7c1.3-2,1.6-2.2,1.8-2.2c0.3,0,0.5,0.2,2,1.6c0.6,0.6,0.8,0.9,0.8,1.1c0,0.2-0.2,0.3-0.5,0.3h-32.1
				c-0.9,0-1.6,0.1-2.7,0.2l-0.4-1.4c1.2,0.2,2,0.3,3,0.3h1.6v-11.1c0-3.3,0-5.3-0.3-7.9c1.4,0.5,2.1,0.8,3.4,1.6h4.6v-0.1
				c0-3.1,0-4.9-0.2-6.2c3.7,0.4,4.1,0.7,4.1,1.1c0,0.3-0.3,0.6-1.3,1v4.2h4.9v-0.1c0-3.1,0-4.9-0.2-6.2c3.7,0.4,4.1,0.7,4.1,1.1
				c0,0.3-0.3,0.6-1.3,1v4.2H293.3z M267,239.6c3.1-1.4,5.9-3.4,7.7-5.2c1-1,1.7-1.8,2.1-2.6c3.1,1.4,3.7,1.8,3.7,2.2
				s-0.4,0.6-1.8,0.6c-3.5,2.8-6.6,4.4-11.5,5.6C266.9,240.3,266.8,239.7,267,239.6z M273.4,213.1v7.4h5v-7.4H273.4z M278.4,221.4
				h-5v8.1h5V221.4z M281,213.1v7.4h4.9v-7.4H281z M286,229.5v-8.1H281v8.1H286z M294.4,238.7c-1.8-2.4-4.5-4.3-7.9-6
				c-0.2-0.1,0-0.5,0.2-0.5c6.9,1.1,10.9,3.4,10.9,6.1c0,0.9-0.6,1.6-1.4,1.6C295.5,240,295.2,239.6,294.4,238.7z M288.6,220.5h5.2
				v-7.4h-5.2V220.5z M293.7,229.5v-8.1h-5.2v8.1H293.7z"/>
		</g>
		<g>
			<path fill="#868075" d="M314.6,236.7c0,0.9-0.6,1.2-1.7,1.2c-0.9,0-1.1-0.3-1.1-1c0-1.6,0.2-4.1,0.2-14c0-5.6,0-8.4-0.2-11.1
				c1.3,0.6,1.9,0.9,3.2,1.6h0.9c0.5-1.4,0.9-3,1.1-4.5c0.2-1.2,0.3-2.3,0.3-2.9c3.3,0.8,4.1,1.1,4.1,1.6c0,0.4-0.3,0.6-1.4,0.8
				c-1.1,2.1-1.9,3.3-3.2,5h4c1.2-1.3,1.4-1.4,1.6-1.4c0.2,0,0.5,0.1,1.7,1.1c0.6,0.5,0.7,0.7,0.7,0.9c0,0.3-0.2,0.5-1,1.1v5.6
				c0,9.3,0.2,13.6,0.2,14.9c0,0.9-0.5,1.3-1.7,1.3c-0.8,0-1.1-0.3-1.1-1v-1.4h-6.6V236.7z M321.2,214.4h-6.6v8.4h6.6V214.4z
				 M314.6,233.5h6.6v-9.7h-6.6V233.5z M340,213.4c1.3-1.4,1.4-1.6,1.7-1.6c0.3,0,0.5,0.1,1.8,1.4c0.6,0.6,0.7,0.8,0.7,1
				c0,0.2-0.2,0.4-1,1c-0.3,10.1-0.8,15.2-1.9,19c-0.6,2.1-1.3,3.5-2.2,4.4c-0.8,0.7-1.7,1.1-2.8,1.1c-0.6,0-0.8-0.2-0.9-0.7
				c-0.2-1.1-0.8-1.7-4.3-2.4c-0.2,0-0.2-0.6,0-0.5c2.7,0.3,3.9,0.3,4.7,0.3c1.8,0,2.1-0.8,2.7-3c1.1-3.5,1.6-9.2,1.8-19h-10.1
				c-1.5,2.8-3.3,5.2-5.5,7.2c-0.2,0.2-0.5-0.2-0.4-0.3c2.1-2.9,4-7.6,5-11.5c0.4-1.5,0.6-2.9,0.6-3.9c3.5,0.8,4.2,1.1,4.2,1.6
				c0,0.4-0.3,0.6-1.4,0.8c-0.6,1.9-1.3,3.6-2.1,5.2H340z M332.3,226.4c-0.6-2.7-1.4-4.6-3.2-6.5c-0.1-0.2,0.1-0.4,0.3-0.3
				c3.5,1.5,5.9,4.2,5.9,6.4c0,1.1-0.7,1.9-1.6,1.9C333.1,227.9,332.6,227.4,332.3,226.4z"/>
		</g>
		<g>
			<path fill="#868075" d="M373.2,230.9c4.5,3.4,9.6,5.1,15.2,5.8c0.2,0,0.2,0.4,0,0.4c-1.2,0.3-1.3,0.7-2,2.3
				c-0.1,0.3-0.3,0.5-0.6,0.5c-0.5,0-1.2-0.2-2.2-0.5c-3.4-1.1-7.5-3.4-10.3-5.6c-0.8-0.7-1.6-1.4-2.4-2.2c-4.5,4.3-10.2,7.2-17,8.6
				c-0.3,0-0.5-0.5-0.2-0.6c6.3-2.1,11.7-5.7,15.6-9.8c-1.5-2-2.8-4.3-4-7.3c-0.2-0.5-0.3-0.6-0.6-0.8c-0.2-0.1-0.3-0.3-0.3-0.4
				c0-0.2,1-0.7,1.4-0.7c0.2,0,0.3,0.1,0.3,0.3c0,0.2,0,0.4,0,0.6c0,0.2,0.1,0.5,0.2,0.8c1,2.3,2.6,4.5,4.3,6.2
				c1-1.2,1.9-2.4,2.6-3.6c0.9-1.6,1.6-3.2,2.2-4.9c2.7,0.9,3.9,1.6,3.9,2.1c0,0.4-0.4,0.6-1.6,0.7c-1.4,2.7-3.2,5.2-5.2,7.4
				C372.6,230.5,372.9,230.7,373.2,230.9z M353.8,225c3.7-2.7,6.6-5.8,8.6-8.9c0.5-0.7,0.8-1.4,1.1-2.2c2.5,1.1,3.7,1.7,3.7,2.1
				c0,0.5-0.5,0.6-1.7,0.7c-3.2,4.1-6.6,6.7-11.4,8.8C353.9,225.6,353.6,225.2,353.8,225z M382.6,211.3c1.7-2.1,2-2.3,2.2-2.3
				c0.3,0,0.5,0.2,2.4,1.7c0.8,0.7,1,1,1,1.2c0,0.2-0.1,0.3-0.5,0.3h-30.5c-0.9,0-1.7,0.1-2.7,0.2l-0.4-1.4c1.2,0.2,2,0.3,3.1,0.3
				h12v-3.2c0-0.8,0-1.3-0.2-2.5c3.9,0.4,4.4,0.7,4.4,1.1c0,0.3-0.3,0.6-1.3,1v3.6H382.6z M382.7,222.5c-2.2-3.3-4.3-5.2-8.1-7.8
				c-0.2-0.1,0-0.5,0.3-0.5c6.3,2,11.2,5.7,11.2,8.4c0,0.9-0.6,1.6-1.4,1.6C384,224.2,383.5,223.8,382.7,222.5z"/>
		</g>
		<g>
			<path fill="#868075" d="M402.5,238.4c0,0.9-0.5,1.3-1.6,1.3c-1,0-1.3-0.3-1.3-1.1c0-1.4,0.2-3.7,0.2-14.8c0-8.5,0-13.3-0.2-17.6
				c1.4,0.6,2,0.9,3.3,1.7h23c1.7-2,1.9-2.2,2.2-2.2c0.3,0,0.5,0.2,2.3,1.6c0.9,0.7,1,0.9,1,1.1s-0.2,0.4-0.5,0.4h-28.4v28h23.7
				c1.8-2.1,2.1-2.2,2.4-2.2c0.2,0,0.5,0.2,2.3,1.7c0.8,0.6,0.9,0.9,0.9,1.1c0,0.2-0.1,0.3-0.5,0.3h-28.9V238.4z M406.1,220.3
				c-0.7-1.3-1.5-2.2-2.8-3c-0.1-0.1,0-0.3,0.2-0.3c3.4,0.4,5,1.3,5,2.9c0,0.8-0.5,1.4-1.2,1.4C406.7,221.3,406.5,221.1,406.1,220.3
				z M405.7,233.5c0-0.9,0.3-1.9,0.3-3c0-1.6-0.5-2.4-2.5-3.1c-0.2-0.1-0.1-0.5,0.1-0.5c0.8,0.1,1.1,0.2,1.4,0.2
				c1.1,0,1.4-0.1,2-1.1c1-1.7,2.7-5.8,4.2-9.6c0.1-0.2,0.6,0,0.5,0.2c-1.1,3.6-2.4,7.4-3.5,10.9c-0.2,0.5-0.3,1.4-0.3,1.9
				c0,1.3,1,2.6,1,3.8s-0.6,1.9-1.6,1.9C406.2,235.1,405.7,234.4,405.7,233.5z M407.6,213.8c-0.7-1.4-1.5-2.3-2.8-3.2
				c-0.1-0.1,0.1-0.4,0.2-0.3c3.5,0.6,5.1,1.5,5.1,3.2c0,0.8-0.5,1.3-1.2,1.3C408.4,214.8,408.1,214.6,407.6,213.8z M422.9,226.2
				h2.4c1.1-1.4,1.4-1.6,1.6-1.6c0.3,0,0.5,0.2,1.8,1.3c0.5,0.5,0.7,0.7,0.7,1c0,0.2-0.1,0.3-0.5,0.3h-6v5h3.3
				c1.2-1.6,1.5-1.7,1.7-1.7s0.5,0.2,1.9,1.3c0.6,0.5,0.8,0.8,0.8,1s-0.1,0.4-0.5,0.4h-14.2v1c0,0.8-0.5,1.1-1.4,1.1
				c-0.8,0-1.1-0.2-1.1-0.9c0-1.7,0.2-4,0.2-12.8c0-0.7,0-1.5,0-2.2c-0.9,1.1-1.9,2.1-3,2.9c-0.2,0.1-0.5-0.2-0.3-0.3
				c1.9-2.4,3.8-5.8,4.9-8.9c0.4-1.2,0.7-2.3,0.8-3.3c3.2,1,3.6,1.1,3.6,1.6c0,0.4-0.3,0.5-1.4,0.7c-0.5,1.2-1.1,2.4-1.8,3.5h4.7
				c0.6-1.3,1.1-2.3,1.5-3.6c0.2-0.6,0.3-1.1,0.5-1.9c2.5,0.7,3.4,1.1,3.4,1.5c0,0.4-0.3,0.5-1.3,0.6c-1,1.3-1.8,2.3-3,3.3h4.1
				c1.2-1.6,1.4-1.7,1.7-1.7s0.5,0.2,1.9,1.3c0.6,0.5,0.8,0.7,0.8,1c0,0.2-0.2,0.4-0.6,0.4h-7.1v4.4h2.4c1.1-1.5,1.4-1.7,1.6-1.7
				c0.3,0,0.5,0.2,1.8,1.3c0.5,0.5,0.7,0.7,0.7,1c0,0.2-0.2,0.4-0.5,0.4h-6V226.2z M420.6,216.4h-4.7v4.4h4.7V216.4z M415.8,221.8
				v4.4h4.7v-4.4H415.8z M420.6,232.2v-5h-4.7v5H420.6z"/>
		</g>
	</g>
</g>
</svg>
