<?xml version="1.0" encoding="utf-8"?>
<!-- Generator: Adobe Illustrator 26.0.3, SVG Export Plug-In . SVG Version: 6.00 Build 0)  -->
<svg version="1.1" id="圖層_1" xmlns="http://www.w3.org/2000/svg" xmlns:xlink="http://www.w3.org/1999/xlink" x="0px" y="0px"
	 width="434.6px" height="177.5px" viewBox="0 0 434.6 177.5" enable-background="new 0 0 434.6 177.5" xml:space="preserve">
<g>
	<g>
		<g>
			<path fill="#868075" d="M111.7,164.2c1,1.9,2.2,3.7,3.9,5.1c1.4-1.1,2.5-2.1,3.3-3c0.6-0.6,0.9-1.2,1.1-1.7c2.1,1.2,3,1.9,3,2.4
				c0,0.3-0.4,0.5-1.7,0.3c-1.9,1.1-3.3,1.8-5.2,2.5c0.6,0.5,1.2,0.8,1.8,1.2c2.7,1.6,6.1,2.5,9.8,2.9c0.2,0,0.1,0.3,0,0.4
				c-1,0.2-1.4,0.6-1.7,1.8c-0.2,0.6-0.3,0.9-0.7,0.9c-0.3,0-0.9-0.2-1.8-0.4c-2.6-0.8-5-2.2-7-4c-2.1-1.8-4-4.4-5.8-8.4h-4.4v8.7
				c2.6-0.3,5.2-0.8,7.9-1.4c0.2,0,0.4,0.4,0.2,0.5c-4.7,2-7.6,2.9-13.4,4.1c-0.2,0.9-0.5,1.3-0.9,1.3c-0.4,0-0.5-0.1-1.3-4
				c0.6,0,1.1,0,1.7,0c1.1-0.1,2.1-0.2,3.2-0.2v-9h-5.3c-0.1,0.6-0.2,1.1-0.3,1.7c-0.9,4.2-2.3,7.4-5,10.9c-0.2,0.2-0.6,0-0.5-0.3
				c1.7-3.8,2.7-7.1,3.3-11.7c0.5-3.6,0.6-7.9,0.6-14.4c0-4.7,0-5.8-0.2-7.8c1.6,0.7,2.6,1.1,3.5,1.7h21.7c1.2-1.3,1.4-1.4,1.6-1.4
				c0.3,0,0.5,0.1,1.7,1.2c0.6,0.5,0.8,0.7,0.8,0.9c0,0.3-0.2,0.6-1.1,1.1v1.2c0,2.7,0.1,3.6,0.1,4.3c0,0.6-0.6,1-1.7,1
				c-0.9,0-1.1-0.3-1.1-1.2v-0.2H99.3c0,4-0.2,8-0.8,11.9h7.2v-5.7h-2.9c-0.8,0-1.4,0.1-2.4,0.3l-0.4-1.4c1.1,0.2,1.8,0.2,2.8,0.2
				h2.9V156c0-1.3,0-2.3-0.2-3.6c3.6,0.4,4,0.6,4,1.1c0,0.3-0.3,0.6-1.2,1v2.1h6.1V156c0-1.3,0-2.2-0.2-3.5c3.6,0.4,4,0.6,4,1.1
				c0,0.3-0.2,0.6-1.2,1v2h3.2c1.4-1.7,1.7-1.9,2-1.9c0.3,0,0.5,0.2,2,1.5c0.6,0.5,0.8,0.8,0.8,1c0,0.3-0.2,0.4-0.5,0.4h-7.6v5.7
				h4.8c1.6-1.9,1.9-2.1,2.1-2.1c0.3,0,0.5,0.2,2.2,1.6c0.6,0.6,0.9,0.8,0.9,1.1c0,0.2-0.1,0.4-0.5,0.4H111.7z M121.8,145.4H99.3v5
				h22.4V145.4z M108.4,157.5v5.7h6.1v-5.7H108.4z"/>
		</g>
		<g>
			<path fill="#868075" d="M141,156.8c0,12.3,0,16.1,0,19.1c0,0.8-0.6,1.2-1.7,1.2c-0.9,0-1.2-0.3-1.2-1.1c0-2.5,0.2-7.6,0.2-19.2
				c0-7.3,0-11-0.2-14.5c1.4,0.6,2,0.8,3.2,1.6h7.5c1.1-1.3,1.3-1.4,1.5-1.4c0.3,0,0.5,0.1,1.7,1.1c0.6,0.5,0.7,0.6,0.7,0.9
				c0,0.3-0.2,0.5-1,1.1v2.2c0,4.1,0.1,6,0.1,6.6c0,0.8-0.6,1.1-1.6,1.1c-0.8,0-1.1-0.3-1.1-1v-0.8H141V156.8z M149.1,144.9H141v3.4
				h8.1V144.9z M141,152.8h8.1v-3.5H141V152.8z M158.7,166.4c0,3.8,0.2,7.3,0.2,8.4c0,0.8-0.6,1.1-1.6,1.1c-0.9,0-1.2-0.2-1.2-0.9
				c0-0.6,0.2-3,0.2-7.2v-2.1h-4.9c-0.5,5.5-2.5,8.4-7.2,10.5c-0.2,0.1-0.5-0.3-0.3-0.4c3.3-2.5,4.7-5.2,5-10.1h-2.8
				c-0.9,0-1.6,0.1-2.8,0.2l-0.4-1.4c1.3,0.2,2.1,0.2,3.1,0.2h2.9c0-0.9,0-1.9,0-3v-2.3H147c-0.8,0-1.4,0.1-2.4,0.2l-0.4-1.4
				c1.1,0.2,1.8,0.2,2.7,0.2h13.1c1.3-1.6,1.6-1.7,1.8-1.7c0.2,0,0.5,0.2,1.9,1.4c0.6,0.5,0.8,0.7,0.8,0.9c0,0.3-0.2,0.4-0.5,0.4
				h-5.4v5.3h2.3c1.4-1.7,1.7-1.9,1.9-1.9c0.3,0,0.6,0.2,2,1.4c0.6,0.5,0.8,0.8,0.8,1c0,0.3-0.1,0.4-0.5,0.4h-6.5V166.4z
				 M151.6,159.5c0,2.3,0,4-0.2,5.3h4.8v-5.3H151.6z M158.6,154.4c0,0.8-0.5,1.1-1.5,1.1c-0.8,0-1.1-0.3-1.1-0.9
				c0-1.1,0.1-2.5,0.1-7.1c0-2.4,0-3.5-0.2-5.1c1.3,0.5,1.9,0.8,3.1,1.5h7.9c1.2-1.3,1.4-1.4,1.6-1.4c0.3,0,0.5,0.2,1.7,1.2
				c0.6,0.5,0.8,0.7,0.8,0.9c0,0.3-0.2,0.5-1.1,1v8.3c0,17.9,0.1,19,0.1,20.2c0,1.1-0.4,1.9-1.2,2.4c-0.6,0.4-1.4,0.6-2.3,0.6
				c-0.6,0-0.6-0.1-0.8-0.7c-0.2-1.1-0.9-1.6-3.6-2.2c-0.2,0-0.2-0.5,0-0.5c2.2,0.2,3.3,0.2,4.5,0.2c0.5,0,0.6-0.2,0.6-0.6v-19.5
				h-8.6V154.4z M167.2,144.9h-8.6v3.5h8.6V144.9z M158.6,152.8h8.6v-3.5h-8.6V152.8z"/>
		</g>
		<g>
			<path fill="#868075" d="M180.7,158.6c1.4,0.2,2.5,0.3,3.8,0.3h23.8c2.2-2.5,2.5-2.7,2.7-2.7c0.3,0,0.5,0.2,2.8,2
				c1.1,0.8,1.2,1.1,1.2,1.3s-0.1,0.3-0.5,0.3h-29.9c-1.3,0-2.2,0.1-3.4,0.2L180.7,158.6z"/>
		</g>
		<g>
			<path fill="#868075" d="M228.8,153.9h-2c-0.7,0-1.3,0-2.1,0.2l-0.4-1.4c1,0.2,1.6,0.3,2.4,0.3h2.1v-4.2c0-2.9,0-4.6-0.2-6
				c3.7,0.4,4.2,0.6,4.2,1.1c0,0.3-0.3,0.6-1.3,1v8.2h1.2c1.3-1.6,1.5-1.8,1.7-1.8c0.3,0,0.5,0.2,1.9,1.3c0.5,0.5,0.7,0.8,0.7,1
				s-0.1,0.4-0.5,0.4h-5v10.3c1.6-0.7,3.2-1.4,4.6-2.2c0.2-0.1,0.4,0.3,0.2,0.4c-2.6,2.2-5.6,4.4-9.6,6.5c-0.1,1.3-0.3,1.6-0.7,1.6
				c-0.4,0-0.6-0.6-2.2-3.9c0.8-0.1,1.4-0.3,2.2-0.5c0.8-0.3,1.7-0.6,2.7-0.9V153.9z M253.9,163.1c1-1.1,1.3-1.3,1.5-1.3
				c0.2,0,0.5,0.2,1.7,1.1c0.5,0.5,0.7,0.7,0.7,1s-0.2,0.4-1,1c-0.3,4.1-0.7,7.1-1.5,9c-0.5,1.1-1,1.9-1.7,2.3
				c-0.8,0.5-1.6,0.6-2.5,0.6c-0.4,0-0.5-0.2-0.6-0.7c-0.2-0.9-0.8-1.4-3.5-2.2c-0.2-0.1-0.2-0.6,0-0.5c2.3,0.2,3.5,0.3,4.4,0.3
				s1.4-0.5,1.9-2.2c0.5-1.8,0.8-4,1-7.5h-2.4c-2.5,6.2-8,10.7-14.8,12.9c-0.2,0.1-0.4-0.4-0.2-0.5c5.4-2.8,10-7.3,12.2-12.4h-2.7
				c-2.4,4.3-7,7.8-12.5,9.6c-0.2,0.1-0.4-0.3-0.2-0.5c4.6-2.4,7.8-5.6,9.7-9.2h-2.9c-2.4,2.3-5.1,4-8.2,5.1
				c-0.2,0.1-0.5-0.4-0.3-0.5c3.4-2.1,6.1-4.6,7.7-7.1c0.5-0.7,0.8-1.4,1.1-2.1H238c-0.9,0-1.7,0-2.8,0.2l-0.4-1.4
				c1.2,0.2,2.1,0.3,3.2,0.3h16.1c1.5-1.8,1.7-2,2-2c0.3,0,0.6,0.2,2.1,1.5c0.6,0.5,0.8,0.8,0.8,1c0,0.3-0.1,0.4-0.5,0.4h-16.3
				c1.6,0.5,2,0.7,2,1c0,0.3-0.4,0.5-1.3,0.6c-0.5,0.7-1.1,1.4-1.7,2.1H253.9z M241.4,155.5c0,0.8-0.6,1.2-1.7,1.2
				c-0.7,0-1.1-0.2-1.1-0.9s0.2-2.3,0.2-7.1c0-2.8,0-3.8-0.2-5.8c1.3,0.5,1.8,0.8,3.1,1.5h9.2c1.1-1.2,1.3-1.4,1.6-1.4
				c0.3,0,0.5,0.2,1.7,1.1c0.6,0.5,0.7,0.7,0.7,0.9c0,0.3-0.2,0.5-1.1,1.1v2.1c0,4.1,0.1,6.2,0.1,6.7c0,0.8-0.5,1.1-1.6,1.1
				c-0.8,0-1.1-0.3-1.1-1v-0.4h-9.8V155.5z M251.1,145.4h-9.8v3.8h9.8V145.4z M241.4,153.9h9.8v-3.8h-9.8V153.9z"/>
		</g>
		<g>
			<path fill="#868075" d="M274.3,175.8c0,0.9-0.5,1.3-1.7,1.3c-0.8,0-1.3-0.3-1.3-1.2c0-0.8,0.1-3.5,0.2-12.3c0-2.3,0-4.6,0-6.9
				c-1.3,1.7-2.7,3.3-4.2,4.8c-0.2,0.2-0.6-0.2-0.5-0.5c2.7-3.4,5.2-8.5,6.6-13.1c0.6-2,1-3.8,1.2-5.5c3.2,0.9,4.3,1.4,4.3,1.8
				c0,0.4-0.4,0.6-1.4,0.8c-1.2,3.3-2.5,6.3-4.1,9c1.7,0.3,2,0.5,2,0.9c0,0.3-0.2,0.5-1.1,0.9V175.8z M281.6,175.3
				c0,0.8-0.5,1.2-1.7,1.2c-0.9,0-1.2-0.3-1.2-1.1c0-1.3,0.2-5.9,0.2-17c0-4.3,0-5.5-0.2-6.9c3.4,0.3,4,0.5,4,1c0,0.3-0.2,0.5-1.2,1
				v18.8h6.3v-21.9c0-3.8,0-6-0.2-7.4c3.7,0.4,4.2,0.7,4.2,1.1c0,0.3-0.3,0.6-1.3,1v27.2h6.6v-15.2c0-2.9,0-4.3-0.2-5.7
				c3.5,0.4,4.1,0.6,4.1,1.1c0,0.3-0.1,0.5-1.2,1v6c0,9.8,0.1,14.4,0.1,15.8c0,0.8-0.6,1.2-1.7,1.2c-0.8,0-1.1-0.3-1.1-1v-2.2h-15.6
				V175.3z"/>
		</g>
		<g>
			<path fill="#868075" d="M318.6,164.9c1.6-0.5,3.1-1.1,4.5-1.7c0.2-0.1,0.4,0.3,0.2,0.5c-2.8,2.1-6.3,4-9.7,5.4
				c-0.1,1.2-0.3,1.6-0.7,1.6c-0.5,0-0.9-0.6-2-3.9c0.7,0,1.5-0.2,2.3-0.4c0.8-0.2,1.7-0.4,2.7-0.7V154h-2.1c-0.8,0-1.3,0.1-2.2,0.2
				l-0.4-1.4c1,0.2,1.6,0.3,2.5,0.3h2.2v-3.6c0-3.3,0-4.5-0.2-6.1c3.7,0.4,4.2,0.7,4.2,1.1c0,0.3-0.2,0.6-1.3,1.1v7.5h1.5
				c1.2-1.6,1.5-1.8,1.7-1.8c0.3,0,0.6,0.2,2.2,1.8h11.1c0.6-1.2,1-2.1,1.3-2.9c0.3-0.9,0.5-1.7,0.5-2.4h-10.5c-0.9,0-1.6,0-2.7,0.2
				l-0.4-1.4c1.2,0.2,2,0.3,3,0.3h5.6v-2.1c0-0.8,0-1.4-0.2-2.5c3.7,0.4,4.1,0.7,4.1,1.1c0,0.3-0.2,0.6-1.3,0.9v2.6h5.2
				c1.4-1.7,1.7-1.9,1.9-1.9c0.2,0,0.5,0.2,2.1,1.5c0.7,0.5,0.9,0.8,0.9,1c0,0.3-0.1,0.4-0.5,0.4H337c2.6,0.9,3.3,1.3,3.3,1.6
				s-0.3,0.5-1.3,0.6c-0.8,1.1-1.8,2.1-2.9,3.1h5.1c1.4-1.7,1.7-1.9,2-1.9s0.6,0.2,2.1,1.4c0.6,0.5,0.8,0.8,0.8,1
				c0,0.3-0.1,0.4-0.5,0.4h-27V164.9z M317.5,176.7c5-1.1,8.2-3.2,9.8-5.7c0.7-1.1,1.2-2.3,1.3-3.6c3.2,0.7,3.7,0.9,3.7,1.3
				c0,0.4-0.2,0.6-1.3,0.9c-1.7,4.8-5.8,6.9-13.3,7.6C317.5,177.2,317.3,176.7,317.5,176.7z M336.9,172.7c0,1,0.3,1.3,2.5,1.3
				c2.4,0,3,0,3.5-0.6c0.5-0.5,0.9-1.9,1.5-4.3c0-0.2,0.5-0.1,0.5,0.1v3.1c0,0.6,0.2,0.8,0.7,1c0.4,0.1,0.6,0.6,0.6,1.1
				c0,0.7-0.4,1.2-1.3,1.6c-1.1,0.3-2.6,0.5-5.7,0.5c-3.9,0-5.1-0.7-5.1-3c0-0.7,0.1-2,0.1-3v-3.6h-7v0.6c0,0.7-0.5,1.1-1.6,1.1
				c-0.8,0-1.1-0.3-1.1-0.9c0-0.5,0.1-1.6,0.1-4.9c0-3,0-4.8-0.2-7.1c1.4,0.5,1.9,0.8,3.2,1.4h11.8c1.1-1.2,1.3-1.4,1.6-1.4
				c0.3,0,0.5,0.2,1.6,1.1c0.6,0.5,0.7,0.7,0.7,0.9c0,0.3-0.2,0.5-1,1.1v2c0,3.9,0.1,5.8,0.1,6.3c0,0.8-0.5,1.1-1.6,1.1
				c-0.8,0-1.1-0.3-1.1-0.9v-0.5h-3V172.7z M328.7,151.9c-0.4-1.6-0.7-2.5-1.6-3.6c-0.1-0.1,0.1-0.3,0.3-0.3
				c2.4,0.8,3.7,2.2,3.7,3.5c0,0.8-0.6,1.5-1.3,1.5C329.2,153,328.9,152.7,328.7,151.9z M339.8,157.9h-12.6v3.3h12.6V157.9z
				 M327.2,165.8h12.6v-3.6h-12.6V165.8z"/>
		</g>
		<g>
			<path fill="#868075" d="M361.5,155.4c0,0.8-0.6,1.1-1.7,1.1c-0.8,0-1.2-0.3-1.2-0.9s0.2-2.4,0.2-6.7c0-3,0-4.3-0.2-6.3
				c1.4,0.6,2,0.8,3.3,1.6h21c1.3-1.3,1.5-1.4,1.7-1.4c0.3,0,0.5,0.1,1.7,1.2c0.6,0.5,0.7,0.7,0.7,1c0,0.2,0,0.3-1,1.1v2.3
				c0,4.3,0.2,6.4,0.2,7c0,0.9-0.5,1.3-1.7,1.3c-0.8,0-1.2-0.3-1.2-1v-0.6h-21.7V155.4z M364.2,175.8c0,0.8-0.6,1.3-1.7,1.3
				c-0.9,0-1.3-0.4-1.3-1c0-1.2,0.2-3.7,0.2-10.6c0-4.2,0-6-0.2-8.4c1.4,0.6,1.9,0.9,3.3,1.6h15.8c1.1-1.3,1.3-1.4,1.6-1.4
				c0.3,0,0.5,0.1,1.8,1.3c0.6,0.5,0.7,0.8,0.7,1c0,0.2-0.1,0.4-1,1v3.9c0,6.9,0.2,10.3,0.2,11.3c0,0.8-0.6,1.3-1.7,1.3
				c-0.9,0-1.3-0.3-1.3-1v-1.3h-16.4V175.8z M383.2,145.1h-21.7v3.9h21.7V145.1z M361.5,153.9h21.7v-4h-21.7V153.9z M380.6,159.6
				h-16.4v3.9h16.4V159.6z M364.2,168.3h16.4v-3.8h-16.4V168.3z M364.2,173.8h16.4v-4.6h-16.4V173.8z"/>
		</g>
		<g>
			<path fill="#868075" d="M402.9,164.9c0,6.3,0.1,9.6,0.1,10.9c0,0.9-0.5,1.3-1.7,1.3c-0.8,0-1.1-0.3-1.1-1.1
				c0-3,0.2-11.6,0.2-21.4c0-7.6,0-9.6-0.2-11.8c1.3,0.6,1.9,0.9,3.2,1.5h4.3c1-1.1,1.2-1.3,1.4-1.3c0.2,0,0.5,0.2,1.6,1.3
				c0.6,0.6,0.7,0.8,0.7,1.1c0,0.3-0.2,0.4-1,0.6c-1.4,3.2-2.8,5.7-5,8.8c2.8,2.7,4.2,5.5,4.2,8.8c0,1.6-0.2,2.7-0.7,3.5
				c-0.6,1-1.5,1.5-2.4,1.5c-0.5,0-0.6-0.2-0.7-0.6c-0.2-1.1-0.5-1.5-2.3-2.1c-0.2,0-0.2-0.5,0-0.5c1,0.1,1.7,0.2,2.3,0.2
				c0.4,0,0.7-0.1,0.9-0.3c0.4-0.4,0.5-1.1,0.5-2.6c0-2.8-0.8-5.4-2.7-7.7c1.3-3.2,2.5-6.5,3.2-9.8h-4.6V164.9z M407.9,176.9
				c-0.2,0.1-0.5-0.3-0.3-0.4c2.6-2.1,4.3-4.7,5.5-7.7c0.5-1.2,0.8-2.2,0.9-3.2c2.5,0.5,3.6,0.9,3.6,1.3s-0.3,0.6-1.4,0.8
				c-0.3,0.9-0.8,1.7-1.2,2.5c2.7,0.6,4.2,1.7,4.2,3.1c0,0.8-0.5,1.3-1.1,1.3c-0.5,0-0.6-0.2-1.1-0.9c-0.7-1.2-1.5-2.1-2.4-2.8
				C413,173.5,410.9,175.4,407.9,176.9z M426.9,149.2c2.2,1.4,4.5,2.4,7.5,3.1c0.2,0,0.2,0.4,0,0.5c-0.9,0.4-1.2,0.8-1.6,1.8
				c-0.2,0.5-0.3,0.6-0.6,0.6c-0.2,0-0.6-0.2-1.2-0.5c-1.6-0.9-3.5-2.2-5-3.6c-2.1-1.8-3.6-3.7-5.2-6.3c-2.9,4.8-7.1,8.7-12.3,10.9
				c-0.2,0.1-0.5-0.3-0.3-0.4c3.7-2.5,6.8-5.8,8.9-9.7c0.8-1.2,1.3-2.4,1.6-3.6c3.1,1,3.9,1.3,3.9,1.7c0,0.3-0.2,0.6-1.1,0.7
				C422.9,146.3,424.8,147.9,426.9,149.2z M413.1,164.8c0,0.7-0.4,1-1.3,1c-0.8,0-1.1-0.3-1.1-0.9c0-0.5,0.1-1.7,0.1-4.9
				c0-2.1,0-3.3-0.2-5c1.1,0.5,1.6,0.7,2.7,1.3h3.5c0.9-1,1.1-1.1,1.4-1.1c0.3,0,0.5,0.1,1.3,0.8c0.5,0.4,0.6,0.6,0.6,0.9
				s-0.2,0.5-0.8,0.9v1.4c0,3.1,0.1,4.7,0.1,5.1c0,0.7-0.4,1.1-1.3,1.1c-0.7,0-1-0.3-1-0.9v-0.9h-4V164.8z M417.2,157.3h-4v5.5h4
				V157.3z M414.6,151.9c0.9,0.2,1.5,0.3,2.3,0.3h5.2c1.2-1.4,1.5-1.6,1.7-1.6c0.2,0,0.6,0.2,2.1,1.4c0.5,0.4,0.6,0.6,0.6,0.8
				c0,0.3-0.1,0.4-0.5,0.4h-9.2c-0.6,0-1,0-1.9,0.2L414.6,151.9z M418.5,177c-0.2,0.1-0.5-0.3-0.3-0.4c2.5-2.2,4.4-5.1,5.4-7.9
				c0.4-1.1,0.6-2.1,0.8-3.2c2.4,0.5,3.7,1,3.7,1.4c0,0.4-0.3,0.6-1.4,0.7c-0.4,0.9-0.9,1.9-1.4,2.8c4.1,1,6.5,2.8,6.5,4.6
				c0,0.8-0.5,1.5-1.2,1.5c-0.6,0-1-0.2-1.7-1.6c-1-1.5-2.4-2.9-3.9-3.9C423.4,173.5,421.4,175.5,418.5,177z M424.3,164.3
				c0,0.8-0.5,1-1.4,1c-0.6,0-0.9-0.2-0.9-0.8c0-0.5,0.1-1.4,0.1-4.5c0-2.1,0-3.3-0.2-4.9c1.2,0.5,1.7,0.7,2.7,1.3h3.6
				c0.9-0.9,1.1-1.1,1.3-1.1c0.3,0,0.5,0.2,1.4,0.9c0.5,0.4,0.7,0.6,0.7,0.9c0,0.3-0.2,0.5-0.8,0.9v1.4c0,2.9,0,4.4,0,4.8
				c0,0.7-0.5,1-1.4,1c-0.7,0-0.9-0.3-0.9-0.8v-0.7h-4.1V164.3z M428.4,157.3h-4.1v5.4h4.1V157.3z"/>
		</g>
	</g>
	<g opacity="0.7">
		<polygon fill="#868075" points="207.5,95.3 207.5,65.9 233,51.2 258.5,65.9 258.5,95.3 233,110 		"/>
	</g>
	<g>
		<path fill="#B49F86" d="M184.5,115.2l-50-28.8V28.8l50-28.8l50,28.8v57.6L184.5,115.2z M135.5,85.9l49,28.3l49-28.3V29.3L184.5,1
			l-49,28.3V85.9z"/>
	</g>
	<g>
		<g>
			<path fill="#534741" d="M36.7,71.9c3.5,4.7,8.3,8.4,14.7,10.5c5.4,1.8,11.9,2.8,19.8,3c0.4,0,0.4,0.8,0,0.9
				c-2.8,1.3-4.2,3.2-5.3,7.2c-0.2,0.5-0.5,0.8-1.1,0.8c-0.8,0-2.2-0.3-3.8-0.8c-4.2-1.2-10.1-3.8-13.4-6
				c-5.4-3.5-9.4-8.3-12.2-14.2c-1.6,4.6-4.2,8.5-7.9,11.6c-6.2,5.3-15.3,8.5-27.1,9.4c-0.4,0-0.6-1.2-0.2-1.2
				c9.4-2.2,16.5-5.9,21.5-10.9c2.9-2.9,5-6.3,6.3-10.2H8.4c-2,0-4,0.2-6.6,0.5L1,69.6C3.9,70,6,70.2,8.2,70.2h20.2
				c0.6-2.5,1-5.2,0.9-8.1c10,1.4,10.2,1.5,10.2,2.6c0,0.9-0.8,1.5-2.8,2.1c-0.2,1.2-0.3,2.2-0.5,3.4h21c3.5-4.2,4.5-4.8,5-4.8
				c0.7,0,1.5,0.6,5.1,3.4c1.5,1.2,2.2,1.8,2.2,2.4s-0.2,0.8-1,0.8H36.7z M30.4,49.1H15c-1.6,0-3.3,0.2-5.5,0.5l-0.8-2.8
				c2.5,0.5,4.2,0.6,6.1,0.6h15.7v-9H10.7c-1.7,0-3.4,0.2-5.7,0.5l-0.8-2.8c2.5,0.5,4.4,0.6,6.3,0.6h29.4c1.5-2.8,2.6-5.3,3.6-7.7
				c0.8-1.9,1.5-3.7,1.8-5.3c6.8,2.8,9.2,4.1,9.2,5.1S53.8,29.8,51,30c-2.5,2.5-5.5,4.9-8,6.5h12.2c3.5-3.8,4.4-4.5,4.9-4.5
				c0.7,0,1.5,0.6,4.8,3.1c1.5,1.2,2.1,1.8,2.1,2.4c0,0.5-0.2,0.8-1,0.8H37.7v9h12.6c3.4-3.8,4.3-4.5,4.8-4.5c0.7,0,1.5,0.6,4.8,3.2
				c1.3,1.1,1.9,1.8,1.9,2.3s-0.2,0.8-1,0.8H37.7V59h19.6c3.5-4,4.4-4.6,4.9-4.6c0.7,0,1.5,0.6,4.9,3.2c1.5,1.2,2.1,1.8,2.1,2.4
				c0,0.5-0.2,0.8-1,0.8H7.9c-1.9,0-3.8,0.2-6.4,0.5l-0.8-2.8c2.8,0.5,4.9,0.6,7,0.6h22.8V49.1z M24.6,35.8c-1.8,0-2.4-0.6-3.1-3
				c-0.9-3.5-2.4-6-4.4-8.1c-0.2-0.3,0-0.8,0.4-0.7c7.5,1.1,11.2,4.2,11.2,8C28.7,34.5,27.4,35.8,24.6,35.8z"/>
		</g>
		<g>
			<path fill="#534741" d="M127.8,47v7h19.7c3.4-3.8,4.3-4.5,4.8-4.5c0.7,0,1.6,0.6,5.1,3.2c1.5,1.2,2.2,1.8,2.2,2.3s-0.2,0.8-1,0.8
				h-62c-1.6,0-3.3,0.2-5.5,0.5l-0.8-2.8c2.5,0.5,4.4,0.6,6.3,0.6H121v-7h-14.7v0.5c0,1.8-1.3,2.6-4.1,2.6c-2.2,0-3-0.7-3-2.2
				c0-2,0.2-4.4,0.2-12.7c0-3.6-0.1-7.2-0.2-10.9c3.5,1.4,3.9,1.7,7.5,3.2h35.2c2.5-2.5,3.1-3,3.7-3c0.8,0,1.5,0.5,4.1,2.5
				c1.2,1,1.7,1.5,1.7,2.2c0,0.7-0.6,1.3-2.1,2.2v2.5c0,6.5,0.2,11.2,0.2,12.6c0,2.2-1.5,3.1-4.2,3.1c-2.1,0-3.1-0.7-3.1-2.5V47
				H127.8z M112.6,83.1C106.8,87.9,99,91.3,91,93.5c-0.4,0.1-0.7-0.8-0.4-0.9c5.9-3.1,10.3-6.9,13.6-10.5c1.7-1.8,2.7-3.5,3.6-5.1
				c5.7,3,7.5,4.2,7.5,4.9S114.8,83.2,112.6,83.1z M128.1,80.3c0.1,2.8,0.2,5.8,0.2,8.4c0,1.6-0.4,2.9-1.1,3.9
				c-1.2,1.7-3.3,2.5-6.8,2.5c-1.3,0-1.5-0.2-1.8-1.8c-0.5-2.8-2.5-3.8-7.8-4.8c-0.4-0.1-0.4-1.2,0-1.2c3.2,0.2,6.6,0.3,9.2,0.3
				c0.9,0,1.2-0.3,1.2-1.1V74.2h-12.4c-0.2,2.1-1.3,2.8-4.3,2.8c-2,0-2.8-0.9-2.8-2.5c0-1.5,0.2-3.4,0.2-9.9c0-2.2-0.1-4.3-0.2-6.5
				c3.8,1.4,4.3,1.8,7.7,3.4h30.3c2.2-2.4,2.8-2.8,3.5-2.8c0.8,0,1.4,0.5,3.9,2.4c1.2,1,1.6,1.5,1.6,2.2s-0.2,0.8-1.8,2.1v1.4
				c0,3.6,0.2,6.2,0.2,7c0,2.2-1.3,3-4.2,3c-2.2,0-2.8-0.8-2.8-2.5h-12.1V80.3z M142.2,29.4h-35.9v7.1h35.9V29.4z M142.2,38.2h-35.9
				v7h35.9V38.2z M140.2,63.3h-31.3v9.1h31.3V63.3z M150.2,92.7c-1.6,0-2.5-0.7-4.9-4.3c-3.2-4.9-5.5-7.2-10.2-9.5
				c-0.4-0.2-0.2-0.9,0.2-0.8c11.2,1.5,18.5,4.9,18.5,10.6C153.8,91,152.4,92.7,150.2,92.7z"/>
		</g>
	</g>
</g>
</svg>
