<?xml version="1.0" encoding="utf-8"?>
<!-- Generator: Adobe Illustrator 26.0.3, SVG Export Plug-In . SVG Version: 6.00 Build 0)  -->
<svg version="1.1" id="圖層_1" xmlns="http://www.w3.org/2000/svg" xmlns:xlink="http://www.w3.org/1999/xlink" x="0px" y="0px"
	 width="351.4px" height="177.4px" viewBox="0 0 351.4 177.4" enable-background="new 0 0 351.4 177.4" xml:space="preserve">
<g>
	<g>
		<g>
			<path fill="#868075" d="M105.9,164.8c0,5.4,0.1,10.2,0.1,11.1c0,0.8-0.6,1.3-1.7,1.3c-0.9,0-1.3-0.3-1.3-1.1
				c0-2.7,0.2-8,0.2-14.1v-0.3c-1.9,1.6-3.9,3-6.2,4.2c-0.2,0.1-0.6-0.5-0.3-0.6c2.3-1.7,4.5-3.8,6.5-6.1c0-1.8-0.1-2.9-0.2-4.1
				c1,0.5,1.8,0.9,2.4,1.3c1.4-1.9,2.6-4,3.6-6.1H101c-0.9,0-1.7,0-2.8,0.2l-0.4-1.4c1.3,0.2,2.1,0.3,3.1,0.3h8.6
				c0.4-0.8,0.7-1.7,1-2.5c0.8-2.1,1-3.3,1.2-4.5c3.2,0.8,4.2,1.2,4.2,1.7c0,0.4-0.3,0.7-1.5,0.9c-0.6,1.5-1.2,3-1.9,4.4h13.6
				c1.7-2,1.9-2.2,2.2-2.2c0.3,0,0.5,0.2,2.4,1.6c0.8,0.7,1,0.9,1,1.1s-0.2,0.4-0.5,0.4h-19c-1.6,3.3-3.7,6.3-6.2,8.9V164.8z
				 M126.1,174.2c1.8-2.1,2.1-2.3,2.3-2.3c0.3,0,0.5,0.2,2.4,1.7c0.8,0.7,1,0.9,1,1.1c0,0.3-0.2,0.4-0.5,0.4h-20.8
				c-1.1,0-1.9,0-3,0.2l-0.4-1.4c1.3,0.2,2.1,0.3,3.3,0.3h6.6v-11.7h-5.4c-0.9,0-1.6,0.1-2.5,0.2l-0.4-1.4c1.1,0.2,1.9,0.3,2.9,0.3
				h5.4v-2.8c0-3.2,0-5.2-0.2-6.2c3.8,0.4,4.3,0.7,4.3,1.1c0,0.3-0.3,0.6-1.3,1.1v6.8h4.6c1.6-1.9,1.9-2.1,2.1-2.1s0.5,0.2,2.2,1.6
				c0.8,0.6,1,0.9,1,1.1c0,0.2-0.2,0.3-0.6,0.3h-9.3v11.7H126.1z"/>
		</g>
		<g>
			<path fill="#868075" d="M148.7,167c1.6-0.6,3.3-1.2,4.9-1.9c0.2-0.1,0.4,0.3,0.2,0.5c-3.1,2.3-6.4,4.2-9.9,5.7
				c-0.1,1.2-0.3,1.5-0.7,1.5c-0.5,0-0.9-0.6-2-3.8c0.8-0.1,1.6-0.2,2.5-0.5c0.8-0.2,1.6-0.4,2.5-0.7v-12.8h-2.6
				c-0.7,0-1.2,0.1-2.1,0.2l-0.4-1.5c0.9,0.2,1.5,0.3,2.4,0.3h2.7v-3.9c0-3.5,0-5.2-0.2-6.8c3.6,0.4,4.1,0.7,4.1,1.1
				c0,0.3-0.2,0.6-1.3,1.1v8.6h1.4c1.1-1.6,1.4-1.8,1.6-1.8c0.3,0,0.5,0.2,1.8,1.3c0.6,0.6,0.7,0.8,0.7,1.1c0,0.2-0.1,0.3-0.5,0.3
				h-5.1V167z M165.5,154.8c0,8.5,0.2,12.5,0.2,13.9c0,0.9-0.5,1.3-1.7,1.3c-0.8,0-1.1-0.3-1.1-1.1c0-2.2,0.1-5.1,0.2-13.2l-4.6,1.7
				v14.4c0,1.7,0.6,1.9,5.7,1.9c6,0,7.4-0.2,8.1-0.8c0.7-0.5,1.3-1.8,2.1-5c0.1-0.2,0.5-0.2,0.5,0.1c-0.1,1.2-0.2,2.7-0.2,3.7
				c0,0.7,0.1,0.8,0.6,1.1c0.6,0.2,0.8,0.5,0.8,1.1c0,0.8-0.5,1.3-1.7,1.7c-1.6,0.5-3.9,0.7-9.5,0.7c-8,0-9.1-0.8-9.1-4.2
				c0-4.3,0.1-7.8,0.1-13.8l-1.9,0.7c-0.9,0.3-1.6,0.6-2.3,1.1l-0.8-1.2c1.3-0.2,1.9-0.4,2.8-0.7l2.3-0.8v-1c0-5.8,0-7.9-0.2-9.5
				c3.3,0.3,4.1,0.6,4.1,1.1c0,0.3-0.2,0.6-1.2,1v7.4l4.6-1.7v-3c0-5.7,0-7.3-0.2-9c3.5,0.4,4,0.6,4,1.1c0,0.3-0.2,0.5-1.2,1v9
				l4.8-1.7c0.8-1.4,1-1.6,1.3-1.6c0.2,0,0.6,0.2,1.9,1.1c0.5,0.3,0.7,0.5,0.7,0.9c0,0.3-0.2,0.5-0.9,1c-0.1,5.2-0.3,8.8-0.8,10.9
				c-0.3,1.3-0.7,2.1-1.3,2.6c-0.6,0.5-1.4,0.8-2.2,0.8c-0.5,0-0.6-0.2-0.7-0.8c-0.2-1.1-0.5-1.4-2.5-2.2c-0.2-0.1-0.1-0.5,0.1-0.5
				c1.4,0.2,2.4,0.2,3,0.2c0.6,0,0.9-0.4,1.1-1.5c0.4-2.1,0.5-5.6,0.6-10.1L165.5,154.8z"/>
		</g>
		<g>
			<path fill="#868075" d="M211.2,169.3c0,3.4,0.1,4.2,0.1,5c0,1-0.4,1.6-0.9,2c-0.6,0.6-1.7,1-2.6,1c-0.6,0-0.7-0.1-0.8-0.8
				c-0.1-0.9-1.1-1.5-4-2.1c-0.2,0-0.2-0.5,0-0.5c2.4,0.2,3.8,0.3,4.8,0.3c0.5,0,0.7-0.2,0.7-0.6v-5.7h-20c-1,0-1.8,0.1-2.9,0.2
				l-0.4-1.4c1.3,0.2,2.1,0.2,3.2,0.2h20c0-1.4,0-1.6-0.2-2.9c3.5,0.4,4,0.5,4,1c0,0.3-0.2,0.5-1.1,0.9v1h3.1c1.5-1.6,1.8-1.8,2-1.8
				c0.3,0,0.6,0.2,2,1.4c0.6,0.5,0.8,0.8,0.8,1c0,0.3-0.1,0.4-0.5,0.4h-7.4V169.3z M192,157.8h-3.4c-0.7,0-1.2,0.1-2.2,0.3l-0.4-1.4
				c1,0.2,1.6,0.2,2.5,0.2h8.6c1.3-1.4,1.6-1.6,1.8-1.6c0.3,0,0.5,0.2,1.9,1.4c0.5,0.4,0.6,0.6,0.6,0.8c0,0.2-0.1,0.3-0.5,0.3h-6.3
				v4.2c2.2-0.2,4.3-0.6,6.3-1c0.2,0,0.3,0.4,0.2,0.5c-4.3,1.6-8.3,2.6-13.3,3.4c-0.2,0.8-0.4,1.1-0.8,1.1c-0.5,0-0.5-0.2-1.4-3.5
				c0.7,0,1.2,0,1.9,0c1.4,0,2.9-0.1,4.5-0.3V157.8z M193.8,149.6c-1,0-1.7,0-2.7,0.2l-0.4-1.4c1.3,0.2,2,0.2,3.1,0.2h16.9v-3.2
				h-17.3c-1.1,0-1.8,0-3,0.3l-0.4-1.4c1.3,0.2,2.2,0.2,3.3,0.2h17.2c1.1-1.3,1.3-1.4,1.6-1.4s0.5,0.2,1.6,1.1
				c0.6,0.5,0.8,0.7,0.8,1c0,0.2-0.1,0.4-1,1v2c0,3.8,0.1,5.5,0.1,6c0,0.9-0.6,1.3-1.7,1.3c-0.8,0-1.1-0.3-1.1-0.9v-0.6h-17.9
				c-1,0-1.7,0.1-2.7,0.3l-0.4-1.4c1.2,0.1,2,0.2,3.1,0.2h17.9v-3.4H193.8z M196.8,173c-0.5-1.5-1.3-2.7-2.5-3.8
				c-0.1-0.1,0-0.3,0.2-0.3c3.4,0.9,5.4,2.4,5.4,4.1c0,1-0.6,1.8-1.6,1.8C197.6,174.9,197.3,174.6,196.8,173z M205.3,163.2
				c0,0.8-0.5,1.1-1.5,1.1c-0.8,0-1.1-0.3-1.1-0.9c0-0.5,0.1-1.3,0.1-4.3c0-1.5,0-2.2-0.1-3.5c1.1,0.4,1.7,0.7,2.8,1.3h8
				c1.1-1.1,1.3-1.2,1.5-1.2c0.3,0,0.5,0.1,1.6,1c0.5,0.4,0.6,0.6,0.6,0.9c0,0.3-0.2,0.4-0.9,0.9v1c0,2.3,0.1,3.3,0.1,3.5
				c0,0.8-0.5,1.1-1.4,1.1c-0.8,0-1.2-0.3-1.2-0.9v-0.2h-8.4V163.2z M213.7,157.7h-8.4v4.3h8.4V157.7z"/>
		</g>
		<g>
			<path fill="#868075" d="M232.5,166.7c0,0.9-0.6,1.2-1.6,1.2c-0.8,0-1.1-0.3-1.1-1c0-1.4,0.2-3.9,0.2-11.8c0-4.4,0-6.8-0.2-9.2
				c1.3,0.6,1.8,0.8,3,1.6h4c1.1-1.3,1.3-1.5,1.5-1.5c0.3,0,0.5,0.2,1.7,1.2c0.5,0.5,0.6,0.7,0.6,0.9c0,0.3-0.2,0.6-1,1.1v4
				c0,6.9,0.2,10.7,0.2,11.7c0,1-0.6,1.3-1.7,1.3c-0.7,0-1.1-0.3-1.1-1.1v-1.3h-4.4V166.7z M236.9,148.4h-4.4v14.4h4.4V148.4z
				 M251.6,159.2c1.3,3.2,3,5.3,5,7.3c2.1,2,4.6,3.5,7.3,4.3c0.2,0,0.1,0.4-0.1,0.4c-0.9,0.3-1.3,0.6-1.7,2
				c-0.2,0.6-0.3,0.7-0.5,0.7c-0.2,0-0.5-0.2-1-0.5c-1.8-1.2-3.7-3-5.2-5.1c-1.6-2.1-3-4.8-4.2-8.5c0.2,8.7,0.4,14.1,0.4,16.2
				c0,0.9-0.6,1.4-1.8,1.4c-0.9,0-1.2-0.4-1.2-1.1c0-1.6,0.2-8.5,0.3-14.1c-3.3,5.8-8.1,9.9-14.3,12.5c-0.2,0.1-0.5-0.4-0.3-0.6
				c6-3.8,10.3-8.6,13.1-14.8h-3.9c-1,0-1.7,0.1-2.8,0.2l-0.4-1.5c1.3,0.2,2.1,0.3,3.2,0.3h5.2v-7.1h-3.8c-0.9,0-1.7,0-2.8,0.2
				l-0.4-1.5c1.3,0.2,2.1,0.3,3.2,0.3h3.8v-1.7c0-3.6-0.1-4.8-0.3-6.1c3.8,0.5,4.2,0.6,4.2,1.1c0,0.3-0.3,0.6-1.3,1v5.6h4.9
				c1.4-1.9,1.7-2.1,2-2.1s0.5,0.2,2.2,1.6c0.7,0.6,0.9,0.9,0.9,1.1c0,0.2-0.1,0.4-0.5,0.4h-9.4v7.1h6.2c1.6-2.1,1.9-2.3,2.1-2.3
				c0.3,0,0.5,0.2,2.1,1.7c0.8,0.7,1,1,1,1.2c0,0.2-0.2,0.3-0.5,0.3H251.6z"/>
		</g>
		<g>
			<path fill="#868075" d="M297.4,151.1c1.4-1.5,1.7-1.7,1.9-1.7c0.3,0,0.6,0.2,2.1,1.5c0.8,0.7,0.9,0.9,0.9,1.2
				c0,0.3-0.3,0.6-1.4,0.8c-4.9,7.1-11.3,12.5-19,16.2c0.8,0.8,1.7,1.5,2.7,1.9c2.1,1.1,5.1,1.6,10.7,1.6c3.1,0,7.4-0.4,11.2-1.1
				c0.2,0,0.1,0.3,0,0.4c-1.1,0.6-1.3,1.1-1.4,2.3c-0.1,0.5-0.2,0.8-0.8,0.8c-2.4,0.3-5.2,0.4-7.6,0.4c-6.7,0-10.1-0.9-12.5-2.4
				c-2-1.3-3.5-3-4.7-6.4c-1,2.5-1.9,4.2-3.6,6.7c0,1-0.1,1.4-0.4,1.4c-0.4,0-0.8-0.5-2.6-3.3c0.7-0.4,1.4-0.8,2.2-1.4
				c0.9-0.7,2.5-2,3.5-3.5c0.2-0.3,0.5-0.7,0.5-0.9c0-0.2-0.5-0.5-0.5-0.8c0-0.2,0.3-0.3,0.9-0.3c0.6,0,0.9,0.1,0.9,0.3
				c0,0.3-0.4,0.5-0.4,0.8c0,0.2,0.1,0.3,0.2,0.6c0.3,0.8,0.7,1.4,1.2,2.1c6.4-4,12.5-10,16.3-16.4H279c-1.2,0-1.9,0.1-3,0.3
				l-0.4-1.5c1.3,0.2,2.2,0.3,3.4,0.3h8.2v-4.4c0-1.4-0.1-2.3-0.3-3.7c4,0.4,4.4,0.7,4.4,1.1c0,0.3-0.3,0.6-1.3,1v6H297.4z"/>
		</g>
		<g>
			<path fill="#868075" d="M322.5,157.6c-0.6,9.3-2.6,14.6-7.1,19.1c-0.2,0.2-0.6-0.2-0.5-0.3c3.4-5,5-12.2,5.1-22.5v-2.9h-1.6
				c-0.8,0-1.4,0.1-2.4,0.3l-0.4-1.5c1.1,0.2,1.9,0.3,2.8,0.3h2.7v-4.1c0-0.9,0-1.6-0.2-3c3.6,0.4,4.1,0.7,4.1,1.1
				c0,0.3-0.3,0.6-1.3,1v5.1h2.2c1.3-1.6,1.6-1.8,1.8-1.8c0.3,0,0.5,0.2,1.9,1.4c0.5,0.5,0.7,0.8,0.7,1c0,0.2-0.1,0.3-0.5,0.3h-7.2
				c0,1.9-0.1,3.8-0.2,5.8h3.5c1-1.3,1.2-1.4,1.4-1.4c0.3,0,0.5,0.2,1.7,1.2c0.5,0.5,0.7,0.8,0.7,1c0,0.2-0.2,0.4-0.9,0.9
				c-0.3,6.9-0.9,12.3-1.5,14.4c-0.4,1.5-1,2.5-1.8,3c-0.5,0.3-1.4,0.5-2,0.5c-0.4,0-0.6-0.1-0.6-0.5c-0.2-1.2-0.8-1.6-3-2.4
				c-0.2-0.1-0.2-0.5,0-0.5c2,0.3,2.9,0.4,3.5,0.4c0.9,0,1.3-0.7,1.6-2.5c0.5-2.9,0.9-7.1,1.1-13.3H322.5z M345,149.2
				c1.7-2,2-2.2,2.2-2.2c0.3,0,0.5,0.2,2.2,1.6c0.8,0.6,0.9,0.9,0.9,1.1c0,0.2-0.2,0.4-0.5,0.4h-15.6c-1.3,1.9-2.7,3.6-4.5,5.1
				c-0.2,0.2-0.6-0.2-0.5-0.3c1.9-2.6,3.5-5.9,4.5-9.3c0.3-1.2,0.5-2.1,0.5-3.1c2.9,0.6,4,1.1,4,1.5c0,0.4-0.4,0.6-1.4,0.8
				c-0.6,1.5-1.3,3-2.1,4.3H345z M334.3,160.1c-1.4,0.7-2.8,1.4-4.2,1.9c-0.2,0.1-0.4-0.3-0.2-0.5c3.3-2.1,6.5-4.6,8.7-7
				c1.1-1.3,2-2.5,2.6-3.6c2.5,1.1,3.5,1.7,3.5,2.2c0,0.4-0.3,0.6-1.7,0.6c-1,1-2.1,2-3.2,3c0.5,2,1,4.1,1.8,6
				c1.4-1.4,2.8-3.2,3.8-4.7c0.5-0.8,0.8-1.5,1.1-2.2c2.4,1.3,3.3,2.1,3.3,2.5c0,0.3-0.3,0.6-1.6,0.5c-1.8,1.7-3.8,3.3-6.3,4.7
				c0.7,1.6,1.6,3,2.5,4.2c2,2.6,4.4,4.2,7,5.4c0.2,0.1,0.1,0.4-0.1,0.5c-0.8,0.3-1.1,0.6-1.5,2c-0.2,0.6-0.3,0.7-0.6,0.7
				c-0.2,0-0.7-0.3-1.3-0.8c-2.4-1.7-4.2-4.2-5.5-6.9c-1.3-2.5-2.4-6.1-3.3-11.3c-0.7,0.5-1.4,1-2.1,1.4v7.7c0,4.6,0.2,8.6,0.2,9.8
				c0,0.9-0.5,1.3-1.7,1.3c-0.8,0-1.2-0.3-1.2-1.1c0-0.7,0.2-3,0.2-9.5V160.1z"/>
		</g>
	</g>
	<g opacity="0.7">
		<polygon fill="#868075" points="207.4,95.4 207.4,66 232.9,51.3 258.5,66 258.5,95.4 232.9,110.1 		"/>
	</g>
	<g>
		<path fill="#B49F86" d="M184.6,115.4l-0.2-0.1l-49.8-28.7V28.8l0.2-0.1L184.6,0l0.2,0.1l49.8,28.7v57.7l-0.2,0.1L184.6,115.4z
			 M135.5,86l49.1,28.3L233.7,86V29.4L184.6,1l-49.1,28.3V86z"/>
	</g>
	<g>
		<g>
			<path fill="#534741" d="M36.7,72.1c3.5,4.7,8.3,8.4,14.7,10.5c5.4,1.8,11.9,2.8,19.8,3c0.4,0,0.4,0.8,0,0.9
				c-2.8,1.3-4.2,3.2-5.3,7.2c-0.2,0.5-0.5,0.8-1.1,0.8c-0.8,0-2.2-0.3-3.8-0.8c-4.2-1.2-10.1-3.8-13.4-6
				c-5.4-3.5-9.4-8.3-12.2-14.2c-1.6,4.6-4.2,8.5-7.9,11.6c-6.2,5.3-15.3,8.5-27.1,9.4c-0.4,0-0.6-1.2-0.2-1.2
				c9.4-2.2,16.5-5.9,21.5-10.9c2.9-2.9,5-6.3,6.3-10.2H8.4c-2,0-4,0.2-6.6,0.5L1,69.7c2.9,0.5,5.1,0.6,7.2,0.6h20.2
				c0.6-2.5,1-5.2,0.9-8.1c10,1.4,10.2,1.5,10.2,2.6c0,0.9-0.8,1.5-2.8,2.1c-0.2,1.2-0.3,2.2-0.5,3.4h21c3.5-4.2,4.5-4.8,5-4.8
				c0.7,0,1.5,0.6,5.1,3.4c1.5,1.2,2.2,1.8,2.2,2.4s-0.2,0.8-1,0.8H36.7z M30.4,49.2H15c-1.6,0-3.3,0.2-5.5,0.5l-0.8-2.8
				c2.5,0.5,4.2,0.6,6.1,0.6h15.7v-9H10.7c-1.7,0-3.4,0.2-5.7,0.5l-0.8-2.8c2.5,0.5,4.4,0.6,6.3,0.6h29.4c1.5-2.8,2.6-5.3,3.6-7.7
				c0.8-1.9,1.5-3.7,1.8-5.3c6.8,2.8,9.2,4.1,9.2,5.1S53.8,30,51,30.1c-2.5,2.5-5.5,4.9-8,6.5h12.2c3.5-3.8,4.4-4.5,4.9-4.5
				c0.7,0,1.5,0.6,4.8,3.1c1.5,1.2,2.1,1.8,2.1,2.4s-0.2,0.8-1,0.8H37.7v9h12.6c3.4-3.8,4.3-4.5,4.8-4.5c0.7,0,1.5,0.6,4.8,3.2
				c1.3,1.1,1.9,1.8,1.9,2.3s-0.2,0.8-1,0.8H37.7v9.9h19.6c3.5-4,4.4-4.6,4.9-4.6c0.7,0,1.5,0.6,4.9,3.2c1.5,1.2,2.1,1.8,2.1,2.4
				c0,0.5-0.2,0.8-1,0.8H7.9c-1.9,0-3.8,0.2-6.4,0.5l-0.8-2.8c2.8,0.5,4.9,0.6,7,0.6h22.8V49.2z M24.6,36c-1.8,0-2.4-0.6-3.1-3
				c-0.9-3.5-2.4-6-4.4-8.1c-0.2-0.3,0-0.8,0.4-0.7c7.5,1.1,11.2,4.2,11.2,8C28.7,34.7,27.4,36,24.6,36z"/>
		</g>
		<g>
			<path fill="#534741" d="M142.3,53.2c0,8.8,0.3,13.2,0.3,14.8c0,0.2,0,0.5-0.1,0.7c0.5-0.6,0.9-1.2,1.4-1.9
				c6.6,3.9,7.5,4.6,7.5,5.7c0,0.7-0.6,1.2-3.4,0.8c-5.5,3.3-9.5,5.4-14.6,7.2c1,0.6,2,1.2,3.1,1.6c5.9,2.8,13,4.4,21.5,4.9
				c0.4,0,0.5,0.8,0.1,0.8c-3,0.8-4.2,2-5,5.2c-0.4,1.4-1,1.9-2,1.9c-0.7,0-1.8-0.3-3.2-0.7c-3.4-1.1-8.2-3.2-11.2-4.9
				c-7.7-4.5-11.6-9.1-16.8-19.9h-10.3v16.1c5.4-0.9,11.2-2.2,16.4-3.6c0.4-0.1,0.6,0.5,0.3,0.8c-7.3,4.4-16.2,8.2-26.5,11.4
				c-0.6,1.7-1,2.2-1.8,2.2c-0.9,0-1.8-1.9-3.9-9c2.3-0.1,5.2-0.3,8.5-0.7V66.5c0-5.9-0.1-11.8-0.2-17.6c-4.2,2.3-8.8,4.4-14,6.3
				c-0.4,0.2-0.8-0.8-0.5-1c10.2-6.1,18.8-13.4,24.3-20.4c2.9-3.6,4.9-7.2,5.9-10.5c8.9,2.6,10.4,3.4,10.4,4.3c0,0.8-1,1.3-3.2,1.5
				c3.8,4.5,8.5,8.2,13.8,11.2c6.3,3.3,13.6,5.5,21.9,6.7c0.4,0.1,0.3,0.8-0.1,0.9c-2.5,0.3-3.6,1.5-4.8,5.4
				c-0.4,1.3-0.7,1.7-1.4,1.7c-0.6,0-1.8-0.5-3.5-1.2c-2.1-1-4.8-2.5-7.5-4.2c-0.3,0.3-0.8,0.6-1.6,1.2V53.2z M135,47.2
				c1.1-1,1.8-1.6,2.4-2.1c-5.5-4.2-9.5-8.9-13.1-15.1c-4.8,6.2-10.5,11.7-17.2,15.9c0.8,0.3,1.6,0.7,2.8,1.2h8.8v-3.5
				c0-1.8-0.2-3.8-0.4-5.6c8.8,0.8,9.5,1.5,9.5,2.2c0,0.5-0.8,1.2-2.3,2.1v4.9H135z M135.3,49h-25.7v8.3h25.7V49z M135.3,59.1h-25.7
				v8.6h25.7V59.1z M121.7,69.5c2.7,3.9,6.1,7.2,9.9,9.9c3.8-3.2,6.2-5.4,8.2-7.4c0.5-0.5,0.8-0.9,1.2-1.4c-0.6,0.3-1.5,0.4-2.5,0.4
				c-2,0-2.8-0.4-3.2-1.5H121.7z"/>
		</g>
	</g>
</g>
</svg>
