<?xml version="1.0" encoding="utf-8"?>
<!-- Generator: Adobe Illustrator 26.0.3, SVG Export Plug-In . SVG Version: 6.00 Build 0)  -->
<svg version="1.1" id="圖層_1" xmlns="http://www.w3.org/2000/svg" xmlns:xlink="http://www.w3.org/1999/xlink" x="0px" y="0px"
	 width="889.6px" height="64.2px" viewBox="0 0 889.6 64.2" enable-background="new 0 0 889.6 64.2" xml:space="preserve">
<g>
	<g>
		<g>
			<path fill="#534741" d="M33.6,31.2c6.3,11.3,18.5,21.8,30.5,26.4c-0.9,0.8-2,2.1-2.5,3c-10.3-4.5-21-13.4-28-23.4v26.6h-3.4V37.1
				c-7.2,9.8-17.9,18.6-27.7,23.2c-0.6-0.8-1.6-2-2.4-2.7c11.3-4.7,23.5-15.1,30.1-26V13.9h-28v-3.3h28V0.2h3.4v10.3h28.8v3.3H33.6
				V31.2z M18.3,16.8c-0.7,3.2-1.7,6.1-2.9,8.8c3.2,2.9,6.8,6.5,8.7,8.7l-2.4,2.3c-1.7-2.1-4.8-5.3-7.7-8c-2.5,4.9-5.7,8.9-9.4,12
				c-0.6-0.6-2-1.7-2.7-2.2c6.5-5,11-12.7,13.2-22.1L18.3,16.8z M51.6,16.7c-0.6,3.1-1.5,6.1-2.5,8.7c4.8,3.7,10.5,8.8,13.4,11.8
				L60,39.7c-2.7-3-7.7-7.6-12.2-11.4c-1.9,3.9-4.2,7.2-7,9.9c-0.5-0.6-1.9-1.5-2.7-2c5.3-4.5,8.7-11.5,10.3-19.8L51.6,16.7z"/>
		</g>
	</g>
	<g>
		<g>
			<path fill="#534741" d="M139,3.3v60.5h-3.4V60H84.6v3.8h-3.4V3.3H139z M135.5,56.8V6.7H84.6v50.1H135.5z M123.1,19.2v24.7H96.8
				V19.2H123.1z M119.8,22.4H100v18.4h19.8V22.4z"/>
		</g>
	</g>
	<g>
		<g>
			<path fill="#534741" d="M181.1,32.4v26.1c0,2.1-0.6,3.1-1.9,3.7c-1.5,0.6-4,0.6-8.4,0.6c-0.2-0.8-0.7-2.2-1.2-3
				c3.4,0.1,6.3,0.1,7.1,0c0.9-0.1,1.3-0.3,1.3-1.2V32.9l-13.5,1.6v0.4c0,9.1-0.8,21.1-5.9,29.1c-0.6-0.6-1.9-1.5-2.7-1.8
				c5-7.7,5.4-18.6,5.4-27.3l-4.9,0.6l-0.4-3.1l5.3-0.6V9h6c1-2.7,2.1-6.4,2.6-9l3.5,0.8c-0.9,2.7-2,5.8-3,8.2h10.7v20.6l4.4-0.6
				l0.1,2.8L181.1,32.4z M164.5,31.5c4.2-0.4,8.7-0.9,13.5-1.5V12h-13.5V31.5z M172.8,49.6c-1.1-3-3.5-7.7-5.6-11.2l2.3-1
				c2.1,3.4,4.6,8.1,5.7,11L172.8,49.6z M169.7,16c1.8,3.2,3.7,7.5,4.6,10.1l-2.5,1.2c-0.9-2.8-2.8-7.1-4.5-10.4L169.7,16z
				 M214.8,59.5c0.7,0,1.4-0.1,1.7-0.4c0.4-0.3,0.7-0.9,0.8-1.9c0.2-1.3,0.3-4,0.3-7.6c0.8,0.6,1.7,1.1,2.5,1.3c0,3.2-0.1,7-0.5,8.2
				c-0.3,1.3-0.8,2.1-1.5,2.6c-0.8,0.5-2,0.7-3.1,0.7H212c-1.2,0-2.5-0.3-3.3-1c-0.9-0.7-1.1-1.8-1.1-6.4V26.2h-14.4v12.7
				c0,7.8-1.2,17.9-8,24.8c-0.6-0.6-1.9-1.7-2.6-2c6.5-6.6,7.4-15.6,7.4-22.9V23.2h20.8v32.6c0,2,0.1,3.1,0.4,3.4
				c0.4,0.3,0.8,0.4,1.4,0.4H214.8z M217.8,14.2h-32.7V11h15.1c-1.2-3-3-6.8-4.9-9.8l3.1-1c2.1,3.3,4.3,7.7,5.4,10.8h14.1V14.2z"/>
		</g>
	</g>
	<g>
		<g>
			<path fill="#534741" d="M256.1,52.1c-7.5,2-15.2,4-21,5.6l-0.8-3.4c2.7-0.6,6-1.4,9.6-2.3V31.2h-8v-3.2h8V8.8h-9V5.6h21.9v3.2
				h-9.7v19.3h8.2v3.2h-8.2v19.8l8.7-2.2L256.1,52.1z M269.2,29.8c0,14.1-1.8,25.8-15.2,34.1c-0.4-0.7-1.5-1.8-2.2-2.4
				C264.4,53.8,266,42.9,266,30l-2.5,1.1c-1.4-3.6-4.4-9.2-7.1-13.4l2.6-1c2.6,3.8,5.5,8.9,7,12.5V0.1h3.2V29.8z M297.9,58v3.2H268
				V58h13.7V34.5H273v-3.1h8.7V8.5h-10.1V5.3h24.8v3.2h-11.4v22.9h10v3.1h-10V58H297.9z"/>
		</g>
	</g>
	<g>
		<g>
			<path fill="#534741" d="M336,34.3c-3.3,1-6.6,2.1-9.9,3.2v21.4c0,2.4-0.8,3.4-2.3,3.9c-1.5,0.6-4.2,0.6-8.9,0.6
				c-0.1-0.8-0.7-2.2-1.1-3.2c3.7,0.1,6.8,0.1,7.6,0.1c1-0.1,1.4-0.4,1.4-1.4V38.4c-3.5,1.1-6.8,2.2-9.7,3l-1.2-3.3
				c3-0.8,6.8-1.8,10.9-3.1v-17h-10.1v-3.2h10.1V0.1h3.3v14.7h9.4v3.2h-9.4v16c3-1,6.3-2,9.4-3L336,34.3z M369.4,59
				c3,0,3.4-2.1,3.7-11.3c0.9,0.6,2.2,1.3,3.2,1.5c-0.4,10-1.5,13.1-6.8,13.1h-12c-5.3,0-7-1.4-7-6.8V33h-12.8v-3.3h12.8V10
				c-3.9,0.9-8,1.7-11.8,2.3c-0.2-0.8-0.6-2-1.1-2.7c10.9-2,23.9-5,30.5-8.3l2.8,2.7c-4.5,2-10.7,3.8-17.2,5.3v20.4h22.2V33H354
				v22.4c0,2.9,0.6,3.5,3.8,3.5H369.4z"/>
		</g>
	</g>
	<g>
		<g>
			<path fill="#534741" d="M407.3,34.6c-1,6.1-2.5,11.3-4.5,15.7c4.9,8.2,14.4,9.5,28.8,9.5c7.2,0,16.8-0.2,23.5-0.8
				c-0.6,0.8-0.9,2.4-1.1,3.3c-6.2,0.4-15,0.5-22.4,0.5c-15.3,0-24.6-1.4-30.1-9.8c-2.5,4.8-5.6,8.3-9.1,11c-0.5-0.8-1.6-2-2.3-2.5
				c6.5-4.6,11.5-12.9,13.7-24.6h-7.9c-1.8,0-3.5,0.4-4.1,1c-0.2-0.9-1-2.7-1.4-3.5c0.9-0.3,2-0.8,3.2-2c1.6-1.8,6.3-8.7,9.2-13.1
				h-11.9v-3h14.1l0.8-0.4l2.5,1.2c-3,4.2-8.4,12.1-12.2,16.8h9l0.6-0.1L407.3,34.6z M402.1,13c-1.7-3-5.2-7.9-8.2-11.4l2.7-1.4
				c3,3.6,6.5,8.2,8.2,11.1L402.1,13z M412.4,14.8h-3.2v-12h42.6v12h-3.2V5.8h-36.2V14.8z M428.9,55.8v-6.5h-19.6v-2.9h19.6V41
				h-15.7V21.4h15.7v-5.2h-14.4v-2.8h14.4V9.1h3.3v4.2H447v2.8h-14.8v5.2h16V41h-16v5.4h20.5v2.9h-20.5v6.5H428.9z M416.2,29.9h12.7
				v-5.8h-12.7V29.9z M428.9,38.3v-5.8h-12.7v5.8H428.9z M432.2,24.1v5.8h12.9v-5.8H432.2z M445.1,32.5h-12.9v5.8h12.9V32.5z"/>
		</g>
	</g>
	<g>
		<g>
			<path fill="#534741" d="M490.9,16.1c-2.3,3.7-5.1,7.4-8.1,10.8v37.2h-3.3V30.6c-3.1,3.2-6.3,6.1-9.4,8.6
				c-0.5-0.6-1.8-2.1-2.5-2.7c7.3-5.3,15.1-13.4,20.1-21.5L490.9,16.1z M488,1.3c-4.4,5.9-11.5,12.5-17.5,16.9
				c-0.5-0.7-1.5-2-2.1-2.7c5.8-4,12.7-10.3,16.4-15.5L488,1.3z M532.3,27.1h-11.2V59c0,2.5-0.7,3.7-2.7,4.2
				c-2,0.5-5.8,0.5-12.9,0.5c-0.1-0.8-0.7-2.2-1.3-3.2c5.6,0.1,10.4,0.1,11.7,0c1.3-0.1,1.8-0.4,1.8-1.5V27.1h-25.3v-3.2h39.8V27.1z
				 M530.2,7.8h-34.6V4.6h34.6V7.8z"/>
		</g>
	</g>
	<g>
		<g>
			<path fill="#534741" d="M576.9,13.5c-7.2,6.5-18.5,12-27.7,14.8c-0.5-0.8-1.4-2-2.1-2.7c9.5-2.5,21-8.1,27.7-14.1h-25.8V8.4h27.9
				V0.1h3.4v8.2h28.4v3.1h-28.4v0.9c10,3.9,22.4,9.4,29.1,13.2l-1.7,2.7c-6.2-3.6-17.7-8.9-27.4-12.9v13.1h-3.4V13.5z M609.8,46.9
				h-29.6v12.5c0,2.3-0.6,3.2-2.5,3.8c-2,0.6-5.1,0.6-11,0.6c-0.3-0.9-1-2.2-1.6-3.1c5.1,0.1,9.1,0.1,10.3,0
				c1.3-0.1,1.5-0.4,1.5-1.3V46.9h-29.2v-3.2h29.2v-4c4.8-1.5,9.9-4,13.7-6.5H560v-3.1h34.7l0.8-0.2l2.3,1.9
				c-4.5,3.7-11.3,7.2-17.5,9.6v2.3h29.6V46.9z"/>
		</g>
	</g>
	<g>
		<g>
			<path fill="#534741" d="M648.7,41.2l0.8,3.1c-8.3,4-17,8.1-23.5,11.2l-1.3-3.4c3-1.3,6.8-3,11-4.9V21.6h-9.9v-3.2h9.9V1.8h3.2
				v16.6h9.1v3.2h-9.1v24.1L648.7,41.2z M687.5,12.1c0,0,0,1.5-0.1,2c-1.1,33.1-2.1,44.3-5,47.6c-1.3,1.7-2.8,2.2-5.1,2.3
				c-2.4,0.1-6.8,0-11.3-0.3c-0.1-1.1-0.5-2.5-1.1-3.4c5.1,0.5,9.8,0.5,11.4,0.5c1.4,0.1,2.3-0.1,3-1.1c2.5-2.5,3.7-13.7,4.7-44.4
				h-27.4c-2.6,5.4-5.7,10.3-9,14.1c-0.6-0.6-2.3-1.5-3.1-2c6.3-6.6,11.2-16.8,14.4-27.3l3.4,0.8c-1.1,3.8-2.5,7.5-4.2,11H687.5z
				 M652.1,43.5h24.2v3.1h-24.2V43.5z M675.3,27.1v3.2h-21.5v-3.2H675.3z"/>
		</g>
	</g>
	<g>
		<g>
			<path fill="#534741" d="M764.8,37.7c0,0-0.1,1.2-0.1,1.7c-1.4,15.1-2.7,20.8-5,23.1c-1.1,1.1-2.3,1.4-4.2,1.5
				c-1.7,0.1-5.2,0.1-8.9-0.1c-0.1-0.9-0.4-2.3-1-3.2c3.8,0.4,7.5,0.4,8.7,0.4c1.3,0,2-0.1,2.7-0.7c1.6-1.5,3-6.7,4.2-19.5h-45.2
				c-3.5,3.4-7.3,6.4-11.5,9c-0.4-0.7-1.3-2-1.9-2.7c12.2-7.5,21.5-18.9,27.8-31.5h-24v-3.2h25.5c1.8-4.1,3.4-8.2,4.7-12.4l3.4,1
				c-1.3,3.9-2.7,7.7-4.4,11.4h18.7c-0.8,4.2-1.8,9-2.7,12.6h8.4c-0.8,4.1-1.8,9-2.7,12.7H764.8z M707.7,61.6
				c4.2-3.9,7-10.4,8.4-15.8l3,0.9c-1.8,5.7-4.4,12.5-8.7,16.5L707.7,61.6z M722.8,11.7c-1.3-2.9-4.4-7-7.2-10l2.7-1.3
				c2.9,2.9,6,7,7.4,9.6L722.8,11.7z M754.1,37.7c0.7-2.7,1.5-6.3,2.1-9.6h-29.4c-2.3,3.4-4.9,6.5-7.7,9.6H754.1z M727.8,46.6
				c1.4,4.4,2.2,10.1,2.2,13.9l-3.1,0.4c0.1-3.7-0.6-9.4-2-13.9L727.8,46.6z M734.1,15.6c-1.6,3.2-3.4,6.4-5.3,9.4h19.6
				c0.7-2.7,1.5-6.1,2.1-9.4H734.1z M737.9,45.7c2,3.8,3.7,8.7,4.4,11.9l-2.9,0.9c-0.6-3.3-2.4-8.3-4.2-12.2L737.9,45.7z
				 M751.2,54.9c-0.9-2.5-3.4-6.6-5.7-9.5l2.5-1.1c2.5,2.8,4.9,6.8,5.8,9.4L751.2,54.9z"/>
		</g>
	</g>
	<g>
		<g>
			<path fill="#534741" d="M781,56.2c16-16.3,24.3-25.4,24.3-34c0-6.1-3.2-10.7-10.5-10.7c-4.4,0-8.4,2.7-11.4,6.3l-2.6-2.5
				c3.9-4.2,8.2-7.4,14.4-7.4c8.9,0,14.2,5.6,14.2,14.1c0,9.8-8.9,19.3-22.3,33.4c2.7-0.2,5.7-0.4,8.4-0.4h16.3v3.7H781V56.2z"/>
		</g>
	</g>
	<g>
		<g>
			<path fill="#534741" d="M846.5,1.3c-2,5.3-4.4,10.6-7.1,15.4v47.1h-3.3V22.3c-2.4,3.8-5.1,7.2-7.7,10.1c-0.4-0.7-1.4-2.3-2.1-3
				c6.8-7.1,13.2-18,17-29L846.5,1.3z M889.6,39.1h-19.8V64h-3.4V39.1h-20.9v-3.3h20.9V18.3h-12.6c-1.6,4.5-3.4,8.5-5.6,11.7
				c-0.6-0.5-2-1.4-2.9-1.9c4.4-5.9,7.2-15.1,8.9-24.6l3.2,0.6c-0.7,3.7-1.6,7.5-2.7,10.9h11.6V1h3.4v14h16.9v3.3h-16.9v17.5h19.8
				V39.1z"/>
		</g>
	</g>
</g>
</svg>
