<?xml version="1.0" encoding="utf-8"?>
<!-- Generator: Adobe Illustrator 26.0.3, SVG Export Plug-In . SVG Version: 6.00 Build 0)  -->
<svg version="1.1" id="圖層_1" xmlns="http://www.w3.org/2000/svg" xmlns:xlink="http://www.w3.org/1999/xlink" x="0px" y="0px"
	 width="792.7px" height="64.9px" viewBox="0 0 792.7 64.9" enable-background="new 0 0 792.7 64.9" xml:space="preserve">
<g>
	<g>
		<g>
			<path fill="#534741" d="M0,53l3.2-2.1c2.5,4.3,5.5,6,9.7,6c6.1,0,9-3.5,9-11.7V8.4h4.2v37.1c0,8.4-3.6,15.1-13.1,15.1
				C7.1,60.7,2.7,58,0,53z"/>
		</g>
	</g>
	<g>
		<g>
			<path fill="#534741" d="M48.6,8.4h15c10.2,0,17.1,3.7,17.1,13.7c0,8.2-5,12.9-12.8,14.1l13.9,23.5H77L63.3,36.6H52.8v23.2h-4.2
				V8.4z M62.6,33.1c8.9,0,13.8-3.5,13.8-10.9c0-7.5-4.9-10.2-13.8-10.2h-9.8v21.1H62.6z"/>
		</g>
	</g>
	<g>
		<g>
			<path fill="#534741" d="M113.6,39.6v25.1h-3.3V39.6H95.6v-3.1h14.6V28H95.3v-3h19.8c1.5-3.6,3.2-8.9,4.2-12.5l3.2,0.8
				c-1.3,3.7-2.8,8.2-4.3,11.6h9.8v3h-14.5v8.5h14v3.1H113.6z M105.6,44.9c-1.7,5.1-4.5,10.5-7.4,14c-0.5-0.4-1.8-1.4-2.5-1.8
				c3-3.4,5.4-8.2,7-12.9L105.6,44.9z M127,11.8H96.4v-3h15c-1-2.2-2.5-4.9-3.7-6.9l3.2-0.9c1.5,2.5,3.3,5.6,4.2,7.8H127V11.8z
				 M104.6,24.2c-0.4-2.9-1.5-7.5-3-10.9l2.8-0.6c1.5,3.4,2.9,7.9,3.2,10.7L104.6,24.2z M120.3,44c2.4,3.7,4.9,8.5,6.1,11.7
				l-2.6,1.4c-1.1-3.2-3.7-8.2-5.9-12L120.3,44z M158.7,28.3h-8.4v36.2h-3.3V28.3h-11.5v3.4c0,9.9-0.9,23.4-7.7,32.7
				c-0.5-0.7-1.8-1.7-2.5-2.1c6.4-8.8,7-21.1,7-30.6V8c8-1.3,17.3-3.2,22.3-5.2l3,2.5c-5.8,2-14.4,3.9-22.1,4.9v14.9h23.3V28.3z"/>
		</g>
	</g>
	<g>
		<g>
			<path fill="#534741" d="M190.7,48.5h13.6v3.1h-13.6v13.3h-3.3V51.6h-14.2v-3.1h14.2v-6.5h-10.7V19.4h10.7v-6.5H174V9.9h13.4V1.2
				h3.3v8.7h12.9v3.1h-12.9v6.5h10.5v22.5h-10.5V48.5z M179.8,29.2H198v-6.8h-18.2V29.2z M179.8,39H198v-7h-18.2V39z M222.9,1.1
				c-0.6,1.5-1.4,3.2-2.2,4.6c4,6.8,11.3,14.6,17.1,18.2c-0.8,0.6-1.8,1.7-2.3,2.4c-5.3-3.8-11.9-11-16.3-17.8
				c-4.2,7.5-9.8,14.1-15.3,18c-0.6-0.8-1.7-2-2.4-2.7c7.2-4.6,14.6-14.3,18.4-23.8L222.9,1.1z M221.4,42.9H235v3.2h-13.7v18.9h-3.3
				V46.1h-13.9v-3.2h13.9V29.7h-11v-3.2h25.3v3.2h-11V42.9z"/>
		</g>
	</g>
	<g>
		<g>
			<path fill="#534741" d="M257.5,46.1c-0.9,6.1-2.4,12.7-3.9,17.2c-0.6-0.3-2.1-0.8-2.9-1.1c1.8-4.5,3-10.8,3.7-16.6L257.5,46.1z
				 M271.5,43.3c-0.2-1.3-0.5-2.9-0.9-4.6c-14.8,2.3-16.7,2.7-17.9,3.3c-0.2-0.8-0.8-2.5-1.1-3.4c1.3-0.2,2.9-2,4.9-4.6
				c1.2-1.3,3.8-4.9,6.7-9.3c-8.5,1.1-10,1.4-11,1.8c-0.1-0.8-0.6-2.5-1.1-3.4c1.1-0.2,2.3-1.8,3.7-3.9c1.5-2,6.6-10.3,9.6-18.1
				l3.2,1.4c-3.3,7.2-7.4,14.5-11.5,20l8.9-0.9c1.8-3,3.7-6.3,5.3-9.4l3.1,1.7c-4.8,8.7-10.5,17.2-16.3,23.9l12.6-1.8
				c-0.8-2.7-1.5-5.4-2.5-7.9l2.8-0.6c1.8,4.9,3.7,11.3,4.2,15L271.5,43.3z M263.8,45.5c0.8,4.8,1.7,11,1.9,15.1l-3,0.5
				c-0.1-4.1-0.9-10.4-1.8-15.2L263.8,45.5z M269.9,43.9c1.5,3.9,3.2,8.9,3.9,12.3l-2.7,0.8c-0.6-3.4-2.3-8.6-3.7-12.5L269.9,43.9z
				 M292.2,40.2c-2.7,10.5-9.4,17.7-16.5,21.4c-0.5-0.7-1.4-1.8-2.1-2.4c6-2.9,11.9-8.8,14.7-16.7h-11v-3h12.2l0.6-0.1L292.2,40.2z
				 M313.1,38.1c-3,3.1-7,6.6-10.2,9.1c3.2,5.1,7.5,9.4,12.2,11.8c-0.7,0.6-1.8,1.8-2.3,2.6c-6.4-3.6-11.7-10.5-15.3-18.6v17.7
				c0,2.1-0.5,3.1-2,3.7c-1.6,0.6-4.4,0.6-8.9,0.6c-0.2-1-0.7-2.3-1.2-3.2c3.7,0.1,6.8,0.1,7.7,0c1-0.1,1.2-0.3,1.2-1.1V32.8h-14.5
				V8.6h11.3c0.9-2.3,1.9-5.3,2.5-7.5l3.7,1c-1,2.2-1.9,4.6-2.8,6.5H311v24.2h-13.3v2.7c1.1,3.3,2.3,6.5,4,9.4
				c3-2.5,6.7-6.1,8.9-8.7L313.1,38.1z M283.2,19.2h24.5v-7.7h-24.5V19.2z M283.2,29.8h24.5V22h-24.5V29.8z"/>
		</g>
	</g>
	<g>
		<g>
			<path fill="#534741" d="M330.2,34.1c0-16.4,9.4-26.5,22.9-26.5c7,0,11.4,3.2,14.2,6.2l-2.5,2.7c-2.6-2.8-6.1-5.1-11.7-5.1
				c-11.4,0-18.5,8.7-18.5,22.6c0,14,6.7,22.9,18.2,22.9c4.4,0,8.6-1.3,10.9-3.7V37.8h-11.9v-3.6h16v20.6c-3.2,3.4-8.6,5.8-15.4,5.8
				C339.3,60.7,330.2,50.5,330.2,34.1z"/>
		</g>
	</g>
	<g>
		<g>
			<path fill="#534741" d="M388.6,8.4h15c10.2,0,17.1,3.7,17.1,13.7c0,8.2-5,12.9-12.8,14.1l13.9,23.5h-4.8l-13.7-23.2h-10.5v23.2
				h-4.2V8.4z M402.6,33.1c8.9,0,13.8-3.5,13.8-10.9c0-7.5-4.9-10.2-13.8-10.2h-9.8v21.1H402.6z"/>
		</g>
	</g>
	<g>
		<g>
			<path fill="#534741" d="M450.1,8.4h4.4l17.9,51.3h-4.5l-5.7-17.2h-20l-5.8,17.2h-4.2L450.1,8.4z M443.4,39.1h17.7l-3.1-9.3
				c-2.1-6-3.8-11.4-5.6-17.6h-0.3c-1.8,6.2-3.5,11.6-5.6,17.6L443.4,39.1z"/>
		</g>
	</g>
	<g>
		<g>
			<path fill="#534741" d="M488.1,8.4h4.4l21,35.3l5.7,10.3h0.4c-0.3-5.1-0.6-10.2-0.6-15.2V8.4h4v51.3h-4.4l-20.9-35.3l-5.8-10.3
				h-0.4c0.2,4.9,0.6,9.7,0.6,14.8v30.8h-4V8.4z"/>
		</g>
	</g>
	<g>
		<g>
			<path fill="#534741" d="M565.8,34.1c0-16.4,9.1-26.5,22.1-26.5c6.1,0,10.8,3,13.5,6.2l-2.4,2.7c-2.7-3.1-6.4-5.1-11.1-5.1
				c-10.8,0-17.7,8.7-17.7,22.6c0,14,6.7,22.9,17.5,22.9c5.2,0,9.1-2.2,12.7-6.2l2.4,2.7c-3.9,4.6-8.7,7.3-15.3,7.3
				C574.8,60.7,565.8,50.5,565.8,34.1z"/>
		</g>
	</g>
	<g>
		<g>
			<path fill="#534741" d="M620.9,8.4h4.2v47.6h23.4v3.7h-27.6V8.4z"/>
		</g>
	</g>
	<g>
		<g>
			<path fill="#534741" d="M676.9,8.4h4.4l17.9,51.3h-4.5L689,42.5h-20l-5.8,17.2h-4.2L676.9,8.4z M670.1,39.1h17.7l-3.1-9.3
				c-2.1-6-3.8-11.4-5.6-17.6h-0.3c-1.8,6.2-3.5,11.6-5.6,17.6L670.1,39.1z"/>
		</g>
	</g>
	<g>
		<g>
			<path fill="#534741" d="M711,53l2.6-3c3.7,4.2,9,6.8,14.8,6.8c7.6,0,12.3-4,12.3-9.9c0-6.2-4-8.2-9.1-10.4l-7.7-3.4
				c-4.6-2-10.4-5.3-10.4-12.8c0-7.6,6.5-12.9,15.2-12.9c6.2,0,11.3,2.7,14.5,6.2l-2.4,2.7c-3-3.1-7-5.1-12.1-5.1
				c-6.5,0-10.9,3.4-10.9,8.7c0,5.8,5,8,8.7,9.6l7.7,3.4c5.8,2.6,10.8,5.8,10.8,13.7c0,7.9-6.5,13.9-16.6,13.9
				C721,60.7,715.1,57.6,711,53z"/>
		</g>
	</g>
	<g>
		<g>
			<path fill="#534741" d="M758.6,53l2.6-3c3.7,4.2,9,6.8,14.8,6.8c7.6,0,12.3-4,12.3-9.9c0-6.2-4-8.2-9.1-10.4l-7.7-3.4
				c-4.6-2-10.4-5.3-10.4-12.8c0-7.6,6.5-12.9,15.2-12.9c6.2,0,11.3,2.7,14.5,6.2l-2.4,2.7c-3-3.1-7-5.1-12.1-5.1
				c-6.5,0-10.9,3.4-10.9,8.7c0,5.8,5,8,8.7,9.6l7.7,3.4c5.8,2.6,10.8,5.8,10.8,13.7c0,7.9-6.5,13.9-16.6,13.9
				C768.6,60.7,762.7,57.6,758.6,53z"/>
		</g>
	</g>
</g>
</svg>
