<?xml version="1.0" encoding="utf-8"?>
<!-- Generator: Adobe Illustrator 26.0.3, SVG Export Plug-In . SVG Version: 6.00 Build 0)  -->
<svg version="1.1" id="圖層_1" xmlns="http://www.w3.org/2000/svg" xmlns:xlink="http://www.w3.org/1999/xlink" x="0px" y="0px"
	 width="922.9px" height="64.3px" viewBox="0 0 922.9 64.3" enable-background="new 0 0 922.9 64.3" xml:space="preserve">
<g>
	<g>
		<g>
			<path fill="#534741" d="M12.9,36.4v23.1c0,2.3-0.6,3.2-2.1,3.9C9.3,64,6.8,64.1,2.4,64c-0.1-0.8-0.6-2.3-1.1-3.2
				c3.3,0.1,6.3,0.1,7,0c0.9,0,1.3-0.3,1.3-1.3V37.9l-8.4,3.9L0,38.5c2.6-1.1,6-2.5,9.6-4.2v-16H0.1v-3.2h9.5V0.4h3.3v14.6h7.3v3.2
				h-7.3v14.6l5.8-2.7l0.6,3.2L12.9,36.4z M43.6,17.5c-0.4,0.5-0.7,1.1-1.1,1.5c4.8,5.6,14,11.5,21.1,14.6c-0.7,0.8-1.5,2.2-1.8,3
				c-7-3.6-15.8-9.7-21-15.3c-5.3,6.5-12.6,12.2-19.4,16.2c-0.4-0.7-1.4-2.1-2.1-2.9c8.1-4.2,16.5-10.9,21.5-18.4L43.6,17.5z
				 M28.7,10.7h-8.9V7.6h8.9V0.4h3.2v7.2h8.3v3.1h-8.3v7.9h-3.2V10.7z M26.5,41.7h30.8V64H54v-2.5H29.6V64h-3.2V41.7z M29.6,44.7
				v13.7H54V44.7H29.6z M52.4,31.8v3H30.9v-3H52.4z M50.3,10.7H42V7.6h8.3V0.4h3.2v7.2h9.3v3.1h-9.3v7.9h-3.2V10.7z"/>
		</g>
	</g>
	<g>
		<g>
			<path fill="#534741" d="M111.3,35.3c6,10.3,18.2,20,30.5,23.7c-0.8,0.7-1.8,1.9-2.3,2.8c-10.9-3.8-21.5-12.1-28.3-21.6v23.9h-3.4
				V40.5c-6.8,9.4-17.4,17.5-28.1,21c-0.6-0.8-1.5-2.1-2.3-2.8c12.5-3.7,24.3-13,30.5-23.2V18.6H79.2v-3.2h28.7V7.4
				C100.3,8,92.5,8.4,85.5,8.7c-0.1-0.8-0.5-2.1-0.8-2.9c16.2-0.6,37-2.2,47.8-4.8l1.7,3c-5.9,1.3-14.1,2.4-22.9,3.2v8.3H140v3.2
				h-28.8V35.3z M79,41.9c4.4-1.1,10.4-2.5,16.7-4.3v-8.1H81v-3h14.7v-5.6h3.2v15.9l3.7-1.1l0.4,2.6c-8.1,2.3-16.5,4.8-22.8,6.4
				L79,41.9z M123.4,20.9v5.6h14.8v3h-14.8v7.2c0,1.9,0.4,2.4,1.8,2.4h10.1c1.2,0,3.3-0.1,4.2-0.2c0.1,0.8,0.1,2,0.3,2.7
				c-0.9,0.2-2.5,0.3-4.4,0.3h-10.3c-4,0-4.9-1.3-4.9-5.1V20.9H123.4z"/>
		</g>
	</g>
	<g>
		<g>
			<path fill="#534741" d="M172.2,37.5v21.2l21.2-5.4c0,0.9,0,2.3,0.1,3c-20.8,5.7-24.4,6.7-26,7.5l-0.4,0.3c-0.2-0.8-1-2.5-1.7-3.3
				c1.2-0.6,3.4-2,3.4-4.8V37.5h-12.2v-3.2h12.7v-31h43v3h-39.6v7.5H210v2.9h-37.2V24H210v3h-37.2v7.4h46.2v3.2h-31.5
				c2.1,4.4,5,8.3,8.7,11.5c5.4-2.9,12.2-6.9,16.3-10.1l2.8,1.8c-4.9,3.5-11.3,7.4-16.8,10.1c5.9,4.7,13.4,7.9,22.2,9.5
				c-0.8,0.8-1.6,2.1-2.1,3c-16.3-3.4-28.3-12.3-34.4-25.8H172.2z"/>
		</g>
	</g>
	<g>
		<g>
			<path fill="#534741" d="M260.4,47.1c-5.4,6.2-15.6,11.8-23.9,14.6c-0.6-0.9-1.5-2.3-2.3-2.9c8.3-2.3,18.2-7.4,23.4-13L260.4,47.1
				z M260.6,22.9c-2.3-2.1-6.6-5.3-10.3-7.9c-2.5,4.5-6.7,7.3-13.9,9.2c-0.4-0.7-1.3-1.9-1.8-2.5c12.5-3.2,15.1-8.8,15.7-21.5h3.1
				c-0.3,4.9-0.8,8.9-1.9,12.1c3.9,2.6,8.8,6.1,11.5,8.2L260.6,22.9z M241.7,12.5c-1.3-2-3.8-5.1-5.8-7.3l2.1-1.5
				c2,2.2,4.6,5.1,5.8,6.9L241.7,12.5z M291.5,36.2v-7.7h-51v7.7h-3.3V25.4h57.7v10.8H291.5z M267.4,42v22.1h-3.3V42h-25.3v-3.1
				h25.3v-8.4h3.3v8.4h26V42H267.4z M264.7,5.4c-2.1,2.7-4.6,5.6-6.5,7.6l-2.3-1.2c1.9-2.1,4.4-5.6,5.8-7.8L264.7,5.4z M293.2,24.6
				c-3.2-2.6-8.9-6.8-14-10.1c-2.3,4.3-6.3,7-13,9c-0.4-0.8-1.2-2-1.9-2.7c11.7-3,14.2-8.6,14.8-20.5h3.2c-0.2,4.6-0.8,8.4-1.8,11.5
				c5.1,3.2,11.6,7.7,15.1,10.4L293.2,24.6z M272.1,12c-1.3-1.9-3.7-4.9-5.8-7.1l2.1-1.6c2,2.2,4.5,5.1,5.8,6.8L272.1,12z
				 M274.5,45.5c7.8,3.9,17.5,9.8,22.4,13.8l-2.2,2.6c-4.9-4.2-14.5-10.1-22.3-14.2L274.5,45.5z M295.1,5.4c-2.3,2.9-5.1,6-7.4,8
				l-2.3-1.1c2.2-2.3,5.1-5.9,6.7-8.4L295.1,5.4z"/>
		</g>
	</g>
	<g>
		<g>
			<path fill="#534741" d="M336.9,32.7v26.1c0,2.1-0.6,3.1-1.9,3.7c-1.5,0.6-4,0.6-8.4,0.6c-0.2-0.8-0.7-2.2-1.2-3
				c3.4,0.1,6.3,0.1,7.1,0c0.9-0.1,1.3-0.3,1.3-1.2V33.1l-13.5,1.6v0.4c0,9.1-0.8,21.1-5.9,29.1c-0.6-0.6-1.9-1.5-2.7-1.8
				c5-7.7,5.4-18.6,5.4-27.3l-4.9,0.6l-0.4-3.1l5.3-0.6V9.2h6c1-2.7,2.1-6.4,2.6-9l3.5,0.8c-0.9,2.7-2,5.8-3,8.2h10.7v20.6l4.4-0.6
				l0.1,2.8L336.9,32.7z M320.3,31.7c4.2-0.4,8.7-0.9,13.5-1.5v-18h-13.5V31.7z M328.6,49.8c-1.1-3-3.5-7.7-5.6-11.2l2.3-1
				c2.1,3.4,4.6,8.1,5.7,11L328.6,49.8z M325.5,16.3c1.8,3.2,3.7,7.5,4.6,10.1l-2.5,1.2c-0.9-2.8-2.8-7.1-4.5-10.4L325.5,16.3z
				 M370.6,59.7c0.7,0,1.4-0.1,1.7-0.4c0.4-0.3,0.7-0.9,0.8-1.9c0.2-1.3,0.3-4,0.3-7.6c0.8,0.6,1.7,1.1,2.5,1.3c0,3.2-0.1,7-0.5,8.2
				c-0.3,1.3-0.8,2.1-1.5,2.6c-0.8,0.5-2,0.7-3.1,0.7h-3.1c-1.2,0-2.5-0.3-3.3-1c-0.9-0.7-1.1-1.8-1.1-6.4V26.5H349v12.7
				c0,7.8-1.2,17.9-8,24.8c-0.6-0.6-1.9-1.7-2.6-2c6.5-6.6,7.4-15.6,7.4-22.9V23.4h20.8V56c0,2,0.1,3.1,0.4,3.4s0.8,0.4,1.4,0.4
				H370.6z M373.6,14.4h-32.7v-3.2h15.1c-1.2-3-3-6.8-4.9-9.8l3.1-1c2.1,3.3,4.3,7.7,5.4,10.8h14.1V14.4z"/>
		</g>
	</g>
	<g>
		<g>
			<path fill="#534741" d="M423.8,59.3h28v3.2h-59.2v-3.2h27.7V41.7H398v-3.2h47.4v3.2h-21.5V59.3z M396.2,23.9h-3.3v-15h28.4
				c-1.1-2.5-2.7-5.4-4.2-7.9l3.4-0.9c1.7,2.7,3.7,6.3,4.9,8.8h25.5V22h-3.4v-9.9h-16.3v12.9c0,2,0.4,2.7,2.3,2.7h13.1
				c1.5,0,3.9-0.1,5.1-0.4c0.1,1,0.3,2.3,0.4,3.1c-1.1,0.3-3.2,0.3-5.3,0.3h-13.3c-4.4,0-5.6-1.5-5.6-5.8V12.2h-10.9
				c-1.2,12.7-5.3,18.6-20.9,21.5c-0.3-0.8-1.1-2-1.7-2.7c14.5-2.5,18.2-7.7,19.1-18.9h-17.4V23.9z"/>
		</g>
	</g>
	<g>
		<g>
			<path fill="#534741" d="M531.9,58.1v3.2h-63.4v-3.2h10.6V17h16.5c0.4-2,0.8-4.4,1.3-6.8h-26.1V7.1h26.6c0.4-2.4,0.6-4.9,0.8-6.8
				l3.7,0.4l-1.1,6.3h28.8v3.1h-29.4c-0.4,2.4-0.9,4.9-1.3,6.8h23.1v41H531.9z M482.4,20.1v7.3h36.2v-7.3H482.4z M518.5,30.3h-36.2
				v6.8h36.2V30.3z M482.4,47.4h36.2v-7.5h-36.2V47.4z M482.4,58.1h36.2v-7.8h-36.2V58.1z"/>
		</g>
	</g>
	<g>
		<g>
			<path fill="#534741" d="M606.8,51.4c-2.7-2-7.6-4.6-12.1-6.5c1.4,9.3,4.6,15.7,11.6,16.3c1.1,0.1,1.6-2.5,2-7.7
				c0.7,0.8,1.6,1.5,2.3,1.8c-0.6,7-1.8,9.6-5,9c-12-1.3-14.4-14.4-15.2-30.5h-12.8v30h-3.3v-30h-13.7c-0.4,10.4-2.4,21.5-12.1,30.5
				c-0.6-0.7-1.8-1.7-2.6-2.2c9.3-8.5,11.1-18.8,11.4-28.3h-10.6v-3.2h10.6v-0.7v-11c-2.7,0.8-5.3,1.5-8,2.1
				c-0.2-0.6-0.7-1.8-1.2-2.5c7.4-1.9,15.8-4.8,20.4-7.7l2.8,2.4c-2.9,1.7-6.7,3.2-10.7,4.5v12.1v0.7h13.6V9.9h3.3v20.7h15.9
				c0.1,3.9,0.3,7.7,0.7,11l1.8,0.7c2.7-2.3,6.2-5.7,8.2-8.2l2.8,1.8c-2.4,2.5-5.5,5.3-8.2,7.6c3.7,1.6,7.6,3.7,9.9,5.3L606.8,51.4z
				 M606.3,21.2c-2.6-1.8-7.4-4.2-11.8-5.9c1.7,7.6,4.9,13.1,11.2,13.6c0.9,0.1,1.5-1.9,1.8-5.8c0.8,0.6,1.5,1.3,2.3,1.6
				c-0.6,5.6-1.8,7.7-4.8,7.2c-10.4-1.2-13.7-11.9-14.9-24.6h-38.9V4.2H593c0.2,2.7,0.4,5.3,0.8,7.8c0.6,0.1,1.2,0.4,1.8,0.6
				c2.7-2.4,6-5.7,7.9-8l2.8,1.7c-2.4,2.5-5.3,5.2-8,7.3c3.8,1.5,7.5,3.4,9.9,5L606.3,21.2z"/>
		</g>
	</g>
	<g>
		<g>
			<path fill="#534741" d="M661.3,42.9c6.6,7.2,17.6,14,27,17.2c-0.8,0.6-1.9,1.9-2.5,2.8c-9.6-3.7-21-11.3-27.9-19.2V64h-3.4V43.8
				c-6.8,8-18.1,15.3-27.5,19c-0.6-0.8-1.5-2.2-2.4-2.7c9.2-3.2,20.1-10,26.6-17.1h-18.7V17.8h22v-7h-28.4V7.5h28.4V0.4h3.4v7.1
				h28.9v3.2H658v7h23.2v25.1H661.3z M635.9,28.9h18.7v-8.2h-18.7V28.9z M635.9,40h18.7v-8.2h-18.7V40z M658,20.8v8.2h19.8v-8.2H658
				z M677.9,31.7H658V40h19.8V31.7z"/>
		</g>
	</g>
	<g>
		<g>
			<path fill="#534741" d="M720.2,45.8c-3.4,5.5-8.9,11.7-14.1,15.8c-0.6-0.6-1.8-1.6-2.5-2.1c5-3.8,10.6-9.9,13.4-14.8L720.2,45.8z
				 M765,9.6v3.4h-60.8V9.6h29.8c-1.3-2.6-3.2-6-5.1-8.6l3.2-1c2.2,2.9,4.6,6.8,5.8,9.6H765z M736.4,39.6v20c0,2.5-0.6,3.4-2.6,4
				c-2.1,0.6-5.9,0.6-12.5,0.6c-0.2-1-0.8-2.2-1.3-3.2c5.6,0.1,9.9,0.1,11.3,0c1.3-0.1,1.6-0.4,1.6-1.4v-20h-19.7V20h43.3v19.6
				H736.4z M716.6,36.5h36.5V23.1h-36.5V36.5z M751,44.7c4.9,4.7,10.8,11.2,13.7,15.2l-2.9,2c-2.7-4-8.6-10.8-13.5-15.6L751,44.7z"
				/>
		</g>
	</g>
	<g>
		<g>
			<path fill="#534741" d="M802.5,52.3c-7.5,2-15.2,4-21,5.6l-0.8-3.4c2.7-0.6,6-1.4,9.6-2.3V31.5h-8v-3.2h8V9h-9V5.8h21.9V9h-9.7
				v19.3h8.2v3.2h-8.2v19.8l8.7-2.2L802.5,52.3z M815.5,30c0,14.1-1.8,25.8-15.2,34.1c-0.4-0.7-1.5-1.8-2.2-2.4
				c12.6-7.7,14.2-18.6,14.2-31.5l-2.5,1.1c-1.4-3.6-4.4-9.2-7.1-13.4l2.6-1c2.6,3.8,5.5,8.9,7,12.5V0.4h3.2V30z M844.3,58.2v3.2
				h-29.9v-3.2H828V34.8h-8.7v-3.1h8.7V8.7h-10.1V5.6h24.8v3.2h-11.4v22.9h10v3.1h-10v23.4H844.3z"/>
		</g>
	</g>
	<g>
		<g>
			<path fill="#534741" d="M874.9,36.7c-0.7-1.9-2.6-5.8-4.3-9.1V64h-3.1V27c-2,8.4-4.8,16.8-7.6,21.7c-0.4-1-1.3-2.5-1.9-3.3
				c3.6-6.1,7.3-17.9,9.1-28h-7.7v-3.2h8.1V0.4h3.1v13.8h6.1v3.2h-6.1v5.6c1.7,2.6,5.3,9.2,6.3,11L874.9,36.7z M917.4,42.2
				c-2.2,4.4-5.3,8.4-9.2,11.8c2.4,4,5.3,6.3,9,6.6c1.5,0.1,2.5-2.6,3.2-7.8c0.7,0.6,1.8,1.4,2.5,1.6c-1.2,7.2-2.9,9.8-5.6,9.6
				c-4.9-0.3-8.7-3.2-11.7-8c-3.8,3-8.2,5.6-13.1,7.5c-0.5-0.6-1.3-1.5-2-2.1c5.1-2.1,9.9-4.8,13.8-8c-1.9-3.7-3.2-8.4-4.4-13.9
				h-12.8v2.5v0.8c3.7,2.8,8,6.6,10.2,9l-2.3,2.2c-1.8-2.1-5.1-5.2-8.2-7.8c-0.9,5.9-3.7,12.7-10.8,17.9c-0.5-0.7-1.5-1.8-2.3-2.3
				c8.3-6,10.3-13.9,10.3-20v-2.4h-6.1v-2.9h21.3c-1.8-10.1-2.7-22.4-3.2-35.9h3c0.4,13.8,1.3,26.1,3.2,35.9h18.4v2.9H903
				c1.1,4.6,2.3,8.6,3.7,11.8c3.2-3,5.8-6.5,7.5-10.2L917.4,42.2z M894,32.3c-0.2-0.9-0.6-2-1-3.2c-11,1.6-12.7,1.8-13.6,2.4
				c-0.1-0.6-0.4-2.2-0.8-3c0.9-0.1,2.2-1.4,3.5-3.1c0.8-1,3.1-3.7,5.3-7.2c-6.7,1-8,1.3-8.6,1.7c-0.1-0.6-0.6-2.2-0.9-3
				c0.8-0.1,1.6-1.1,2.7-2.5c1.1-1.5,4.7-7.2,6.7-12.7l2.7,1.1c-2.3,4.9-5,9.7-7.7,13.4l6.8-0.7c1-1.7,2-3.3,2.7-5l2.7,1.2
				c-3.5,5.9-7.4,11.6-11.3,16l8.7-1.1c-0.6-1.8-1.4-3.6-2.2-5.2l2.4-0.7c1.8,3.4,3.4,8,4.2,10.6L894,32.3z M903.3,26.8
				c1-0.1,2-1.3,3.4-3.2c0.9-0.9,2.8-3.7,4.9-7c-6.1,0.8-7.3,1.3-8,1.6c-0.1-0.6-0.6-2.2-0.9-2.9c0.8-0.1,1.5-1.1,2.4-2.3
				c0.8-1.3,3.9-6.5,5.7-11.4l2.6,1c-1.9,4.4-4.2,8.7-6.4,12l6.4-0.8c1-1.6,1.8-3.4,2.7-5.1l2.8,1.2c-3.2,5.9-7,11.8-10.8,16.3
				l9-1.2c-0.7-1.8-1.4-3.5-2.2-5.1l2.3-0.6c1.8,3.4,3.6,7.9,4.3,10.6l-2.5,1.1c-0.2-1-0.6-2.1-1-3.4c-11.1,1.6-12.7,1.9-13.6,2.5
				L903.3,26.8z M908.8,29.5c2.7,1.4,6.2,3.6,8,5.1l-1.8,2.1c-1.7-1.6-5.1-3.9-8-5.5L908.8,29.5z"/>
		</g>
	</g>
</g>
</svg>
