<?xml version="1.0" encoding="utf-8"?>
<!-- Generator: Adobe Illustrator 26.0.3, SVG Export Plug-In . SVG Version: 6.00 Build 0)  -->
<svg version="1.1" id="圖層_1" xmlns="http://www.w3.org/2000/svg" xmlns:xlink="http://www.w3.org/1999/xlink" x="0px" y="0px"
	 width="459.6px" height="63.9px" viewBox="0 0 459.6 63.9" enable-background="new 0 0 459.6 63.9" xml:space="preserve">
<g>
	<g>
		<g>
			<path fill="#534741" d="M0,54.9h11.6V14.7H2.7V12c4.2-0.7,7.3-1.8,9.8-3.3h3.3v46.2h10.7v3.6H0V54.9z"/>
		</g>
	</g>
	<g>
		<g>
			<path fill="#534741" d="M42.6,33.4c0-16.6,5.5-25.7,15.1-25.7c9.6,0,15.1,9.1,15.1,25.7s-5.5,26-15.1,26
				C48.1,59.4,42.6,50,42.6,33.4z M68.7,33.4c0-15.1-4.4-22.2-11-22.2c-6.7,0-11,7.1-11,22.2s4.4,22.5,11,22.5
				C64.4,55.9,68.7,48.5,68.7,33.4z"/>
		</g>
	</g>
	<g>
		<g>
			<path fill="#534741" d="M121.5,0.2c-0.1,2.3-0.1,5.6-0.4,9.6c1,7,5.1,39.2,30.5,50.5c-0.9,0.7-1.9,1.8-2.5,2.7
				c-19.4-8.9-26.5-29.6-29.4-42.7c-2.7,15-10,33.3-29.1,42.9c-0.6-0.8-1.8-1.8-2.6-2.5c29.6-14.5,29.8-50.5,29.9-60.6H121.5z"/>
		</g>
	</g>
	<g>
		<g>
			<path fill="#534741" d="M188,40.5c3.7,5.7,8,13.3,9.9,17.7l-3,1.7c-0.8-2.1-2.2-4.8-3.7-7.7c-18.4,7-20.5,7.8-21.7,8.9
				c-0.3-0.9-0.9-2.5-1.5-3.4c1.1-0.5,2.8-1.7,2.8-4.3V3.7h25.3v32.2h-22v19.4l15.8-5.4c-1.5-2.7-3.2-5.6-4.7-8L188,40.5z
				 M174.2,6.8v11h18.6v-11H174.2z M192.8,32.7V21h-18.6v11.8H192.8z M226,44.5c0,2.4-0.6,3.4-2.2,4.1c-1.8,0.6-4.9,0.6-10.4,0.6
				c-0.1-0.9-0.6-2.3-1.1-3.2c4.4,0.1,8,0.1,8.9,0.1c1.1-0.1,1.5-0.4,1.5-1.4V7.3h-15.3v56.4H204V4.1h22V44.5z"/>
		</g>
	</g>
	<g>
		<g>
			<path fill="#534741" d="M306.8,8.4h-8.9v49.5c0,3-0.8,4.4-3.1,5c-2.4,0.6-7.2,0.6-14,0.6c-0.3-1.1-0.9-2.7-1.5-3.7
				c6.1,0.2,11.5,0.1,13.2,0.1c1.4-0.1,1.9-0.6,1.9-2V8.4h-49.7V5.1h62V8.4z M255.8,45.7v5.7h-3.3V20.1h28.1v25.6H255.8z
				 M255.8,23.4v19h21.4v-19H255.8z"/>
		</g>
	</g>
	<g>
		<g>
			<path fill="#534741" d="M380.6,23.4c-3,9.2-7.3,17.2-12.7,23.9c3,7.9,6.8,12.5,11.1,12.5c2.3,0,3.2-3.7,3.7-13.3
				c0.8,0.7,2,1.5,3,1.8c-0.8,11.3-2.1,15-6.8,15c-5.6,0-10.1-4.9-13.4-12.9c-4.7,5.1-10.1,9.5-16.3,13c-0.5-0.7-1.7-2-2.5-2.7
				c6.8-3.6,12.6-8.2,17.4-13.9c-2.7-8.2-4.4-18.7-5.3-30.6H332v10.2h18.4c0,0-0.1,1.2-0.1,1.7c-0.4,16.4-0.8,22.2-2.2,23.9
				c-0.9,1.1-2,1.5-3.8,1.5c-1.8,0.1-5.1,0.1-8.6-0.1c-0.1-1-0.5-2.3-1.1-3.2c3.7,0.4,7.1,0.4,8.3,0.4c1.1,0,1.8-0.1,2.3-0.7
				c1.1-1.1,1.4-6.2,1.8-20.3h-15v2.6c0,9.6-1.1,22.9-7.5,31.9c-0.6-0.6-1.9-1.8-2.7-2.2c6.1-8.7,6.8-20.7,6.8-29.8V12.7h30
				c-0.2-4.2-0.4-8.4-0.4-12.7h3.4c0,4.4,0.1,8.6,0.4,12.7h23.2V16h-22.9c0.8,10.8,2.3,20.1,4.6,27.4c4.4-6,7.9-13,10.5-20.9
				L380.6,23.4z M379.4,11.5c-2.9-2.5-8.6-6.2-13.3-8.5l2-2.2c4.7,2.3,10.4,5.8,13.3,8.3L379.4,11.5z"/>
		</g>
	</g>
	<g>
		<g>
			<path fill="#534741" d="M459.6,3.6v59.6h-3.2v-3.4h-48.8v3.9h-3.2V3.6H459.6z M456.3,56.9V6.5h-48.8v50.4H456.3z M453.6,44.3
				h-10.8v7.8c0,1.7-0.4,2.3-1.8,2.7c-1.3,0.4-3.9,0.4-8.3,0.4c-0.2-0.7-0.6-1.5-1.1-2.3c3.4,0.1,6.3,0.1,7,0c0.8,0,1.1-0.2,1.1-0.9
				v-7.8h-29.3v-2.5h29.3v-2.9h3v2.9h10.8V44.3z M430.2,14h-18.9v-2.5h18.9V7.7h3v3.8h19.3V14h-19.3v3.4h16.5v14.1h-16.5v4.2
				l10.6-0.3c-0.8-0.6-1.5-1.3-2.3-1.8l2.1-1.5c2.9,2,6.3,5.1,8,7.1l-2.2,1.6c-0.8-0.9-1.8-2-3.1-3.2c-12.7,0.4-25.6,0.8-34.5,1
				l-0.2-2.7c4.9,0,11.5-0.1,18.7-0.2v-4.2h-15.6V17.4h15.6V14z M417.4,23.2h12.7v-3.5h-12.7V23.2z M430.2,29.1v-3.6h-12.7v3.6
				H430.2z M420.9,45.2c2.6,1.8,5.6,4.6,7.1,6.5l-2.5,1.6c-1.3-2-4.3-4.9-7-6.8L420.9,45.2z M433.2,19.7v3.5h13.4v-3.5H433.2z
				 M446.6,25.5h-13.4v3.6h13.4V25.5z"/>
		</g>
	</g>
</g>
</svg>
