<?xml version="1.0" encoding="utf-8"?>
<!-- Generator: Adobe Illustrator 27.5.0, SVG Export Plug-In . SVG Version: 6.00 Build 0)  -->
<svg version="1.1" id="圖層_1" xmlns="http://www.w3.org/2000/svg" xmlns:xlink="http://www.w3.org/1999/xlink" x="0px" y="0px"
	 viewBox="0 0 95 104" style="enable-background:new 0 0 95 104;" xml:space="preserve">
<style type="text/css">
	.st0{fill:#E9BA39;}
	.st1{fill:#044B43;}
</style>
<path id="矩形_40" class="st0" d="M52,0h43l0,0v104l0,0H52C23.3,104,0,80.7,0,52l0,0C0,23.3,23.3,0,52,0z"/>
<path id="路径_272" class="st1" d="M40.4,80v-6l-1.9,4.2h-1.7L35,74v6h-3.1V68.6h3.4l2.4,5.3l2.5-5.3h3.4V80H40.4z M50.6,80.1
	c-0.8,0-1.6-0.2-2.4-0.5c-0.7-0.3-1.3-0.8-1.8-1.3c-0.5-0.5-0.9-1.2-1.2-1.9c-0.3-0.7-0.4-1.4-0.4-2.1c0-0.7,0.1-1.5,0.4-2.2
	c0.3-0.7,0.7-1.3,1.2-1.8c0.5-0.5,1.1-1,1.8-1.3c0.7-0.3,1.5-0.5,2.3-0.5c0.8,0,1.6,0.2,2.4,0.5c0.7,0.3,1.3,0.8,1.8,1.3
	c0.5,0.5,0.9,1.2,1.2,1.9c0.3,0.7,0.4,1.4,0.4,2.1c0,0.7-0.1,1.5-0.4,2.1c-0.3,0.7-0.7,1.3-1.2,1.8c-0.5,0.5-1.1,1-1.8,1.3
	C52.2,79.9,51.4,80.1,50.6,80.1z M48.1,74.3c0,0.4,0.1,0.8,0.2,1.1c0.1,0.3,0.3,0.7,0.5,1c0.2,0.3,0.5,0.5,0.8,0.7
	c0.4,0.2,0.8,0.3,1.2,0.2c0.4,0,0.8-0.1,1.2-0.3c0.3-0.2,0.6-0.4,0.8-0.7c0.2-0.3,0.4-0.6,0.5-1c0.1-0.4,0.2-0.7,0.2-1.1
	c0-0.4-0.1-0.7-0.2-1.1c-0.1-0.3-0.3-0.7-0.5-1c-0.2-0.3-0.5-0.5-0.8-0.7c-0.4-0.2-0.8-0.2-1.2-0.2c-0.4,0-0.8,0.1-1.2,0.3
	c-0.3,0.2-0.6,0.4-0.8,0.7c-0.2,0.3-0.4,0.6-0.5,1C48.1,73.6,48.1,73.9,48.1,74.3z M57.8,80V68.6H63c0.5,0,1.1,0.1,1.5,0.3
	c0.5,0.2,0.9,0.5,1.2,0.9c0.3,0.4,0.6,0.8,0.8,1.3c0.2,0.5,0.3,0.9,0.3,1.4c0,0.4-0.1,0.9-0.2,1.3c-0.1,0.4-0.3,0.8-0.6,1.1
	c-0.2,0.3-0.5,0.6-0.9,0.9l2.4,4.2h-3.4l-2-3.5h-1.3V80H57.8z M60.9,73.8h2c0.1,0,0.3-0.1,0.4-0.1c0.1-0.1,0.2-0.3,0.3-0.4
	c0.1-0.2,0.1-0.4,0.1-0.7c0-0.2,0-0.5-0.1-0.7c-0.1-0.2-0.2-0.3-0.3-0.4c-0.1-0.1-0.2-0.1-0.4-0.1h-1.9V73.8z M76.6,77.3V80h-8.1
	V68.6h8v2.7h-4.8V73h4.1v2.5h-4.1v1.8H76.6z"/>
<g>
	<path class="st1" d="M60.6,44.1c2.6-3.2,3.7-7.1,3.3-11.2c-0.4-4-2.4-7.7-5.6-10.2s-7.1-3.7-11.2-3.3c-8.3,0.9-14.4,8.4-13.5,16.7
		c0.4,4,2.4,7.7,5.6,10.2c3.2,2.6,7.1,3.7,11.2,3.3C54.4,49.2,58.1,47.3,60.6,44.1z M49.8,44.1c-0.3,0-0.7,0.1-1,0.1
		c-2.2,0-4.3-0.7-6-2.1c-2-1.6-3.3-3.9-3.5-6.5s0.5-5.1,2.1-7.1c1.6-2,3.9-3.3,6.5-3.5c5.3-0.6,10,3.3,10.6,8.6
		C58.9,38.8,55.1,43.6,49.8,44.1z"/>
	<path class="st1" d="M48,26.9c-2,0.2-3.9,1.2-5.1,2.8c-1.3,1.6-1.9,3.6-1.7,5.6c0.2,2,1.2,3.9,2.8,5.1c1.6,1.3,3.6,1.9,5.6,1.7
		c4.2-0.4,7.2-4.2,6.8-8.4C56,29.6,52.2,26.5,48,26.9z"/>
	<path class="st1" d="M71.7,55.1l-9.4-10.8c-0.2,0.2-0.3,0.5-0.5,0.7c-1.4,1.7-3,3-4.8,4.1l9.3,10.7c0,0,0,0,0,0
		c1.3,1.5,3.6,1.7,5.1,0.4c0,0,0,0,0,0C72.8,58.9,73,56.6,71.7,55.1z"/>
</g>
</svg>
