<?xml version="1.0" encoding="utf-8"?>
<!-- Generator: Adobe Illustrator 27.5.0, SVG Export Plug-In . SVG Version: 6.00 Build 0)  -->
<svg version="1.1" id="圖層_1" xmlns="http://www.w3.org/2000/svg" xmlns:xlink="http://www.w3.org/1999/xlink" x="0px" y="0px"
	 viewBox="0 0 95 104" style="enable-background:new 0 0 95 104;" xml:space="preserve">
<style type="text/css">
	.st0{fill:#E9BA39;}
	.st1{fill:#044B43;}
</style>
<path id="矩形_40" class="st0" d="M52,0h43l0,0v104l0,0H52C23.3,104,0,80.7,0,52l0,0C0,23.3,23.3,0,52,0z"/>
<g>
	<path class="st1" d="M61.6,57.7c3.1-3.9,4.5-8.6,4-13.6c-0.5-4.8-2.9-9.3-6.8-12.3s-8.6-4.5-13.6-4C35.3,28.9,27.9,38,29,48
		c0.5,4.8,2.9,9.3,6.8,12.3c3.9,3.1,8.6,4.5,13.6,4C54.1,63.9,58.6,61.6,61.6,57.7z M48.6,57.7c-0.4,0-0.8,0.1-1.2,0.1
		c-2.7,0-5.2-0.8-7.3-2.5c-2.4-1.9-4-4.7-4.2-7.9c-0.2-3.1,0.6-6.2,2.5-8.6c1.9-2.4,4.7-4,7.9-4.2c6.4-0.7,12.1,4,12.8,10.4
		C59.6,51.3,55,57.1,48.6,57.7z"/>
	<path class="st1" d="M46.4,36.9c-2.4,0.2-4.7,1.5-6.2,3.4c-1.6,1.9-2.3,4.4-2.1,6.8c0.2,2.4,1.5,4.7,3.4,6.2
		c1.9,1.6,4.4,2.3,6.8,2.1c5.1-0.5,8.7-5.1,8.2-10.2C56.1,40.2,51.5,36.4,46.4,36.9z"/>
	<path class="st1" d="M75.1,71L63.7,58c-0.2,0.2-0.4,0.6-0.6,0.8c-1.7,2.1-3.6,3.6-5.8,5l11.3,12.9l0,0c1.6,1.8,4.4,2.1,6.2,0.5l0,0
		C76.4,75.6,76.6,72.9,75.1,71z"/>
</g>
</svg>
