<svg xmlns="http://www.w3.org/2000/svg" width="450" height="40.49" viewBox="0 0 450 40.49"><g transform="translate(-16.583 -21.872)"><line y2="37.969" transform="translate(237.497 23.051)" fill="none" stroke="#1a1311" stroke-width="0.271"/><g transform="translate(445.26 40.7)"><path d="M470.857,47.222a26.74,26.74,0,0,1,2.519-3.009,27.131,27.131,0,0,1,2.93-2.629l-1.1,4.389" transform="translate(-465.641 -41.584)" fill="#fff"/><path d="M478.467,49.324a27.778,27.778,0,0,1-3.868-.672,27.552,27.552,0,0,1-3.741-1.224l4.354-1.249" transform="translate(-465.641 -41.79)" fill="#1a1311"/><path d="M476.511,41.584a28.026,28.026,0,0,1,1.352,3.686,29,29,0,0,1,.812,3.848l-3.26-3.145" transform="translate(-465.846 -41.584)" fill="#8e8e8f"/><path d="M469.075,56.61a27.785,27.785,0,0,1-3.679-6.92l3.837,2.4" transform="translate(-465.396 -41.948)" fill="#8e8e8f"/><path d="M473.4,49.976a27.267,27.267,0,0,1-4.155,6.649l.16-4.524" transform="translate(-465.569 -41.961)" fill="#1a1311"/><path d="M465.4,49.682a27.328,27.328,0,0,1,3.917-.144,27.725,27.725,0,0,1,3.913.417l-4,2.125" transform="translate(-465.396 -41.94)" fill="#fff"/><path d="M477.38,61.315a26.785,26.785,0,0,1-3.808.955,27.685,27.685,0,0,1-3.909.4l3.463-2.909" transform="translate(-465.587 -42.4)" fill="#1a1311"/><path d="M472.462,55.1A26.265,26.265,0,0,1,475.2,57.92a27.3,27.3,0,0,1,2.307,3.186l-4.254-1.549" transform="translate(-465.713 -42.191)" fill="#8e8e8f"/><path d="M469.662,62.462a26.41,26.41,0,0,1,1.074-3.77,27.177,27.177,0,0,1,1.6-3.591l.789,4.456" transform="translate(-465.587 -42.19)" fill="#fff"/><path d="M484.462,54.691a27.06,27.06,0,0,1-1.088,7.76l-1.7-4.195" transform="translate(-466.126 -42.172)" fill="#8e8e8f"/><path d="M476.988,57.627a27.189,27.189,0,0,1,7.268-2.938l-2.789,3.564" transform="translate(-465.916 -42.172)" fill="#fff"/><path d="M483.164,62.585a26.918,26.918,0,0,1-3.257-2.187,27.641,27.641,0,0,1-2.923-2.637l4.482.629" transform="translate(-465.916 -42.31)" fill="#1a1311"/><path d="M480.343,46.1a27.272,27.272,0,0,1,7.046,3.433l-4.512.317" transform="translate(-466.067 -41.787)" fill="#8e8e8f"/><path d="M480.889,53.918a26.884,26.884,0,0,1-.553-3.885,27.889,27.889,0,0,1,0-3.935l2.534,3.75" transform="translate(-466.063 -41.787)" fill="#fff"/><path d="M487.415,49.692a27.2,27.2,0,0,1-3.088,2.425,28,28,0,0,1-3.409,1.964l1.983-4.072" transform="translate(-466.092 -41.948)" fill="#1a1311"/></g><g transform="translate(246.657 47.574)"><path d="M401.878,48.938h1.22V57.3h-.856V50.08h-.029L398.531,57.3h-.8l-3.675-7.229h-.015V57.3h-.866V48.938h1.259l3.727,7.275Z" transform="translate(-263.553 -48.788)" fill="#1a1311"/><path d="M271.717,54.551a2.541,2.541,0,0,0,.726,1.919,4.531,4.531,0,0,0,3.216.971c.8,0,3.55-.176,3.55-2.459,0-2-1.832-2.19-3.446-2.355l0,0c-1.667-.168-2.9-.348-2.9-1.48a1.3,1.3,0,0,1,.884-1.243,4.565,4.565,0,0,1,1.959-.322,3.006,3.006,0,0,1,2.041.625,1.5,1.5,0,0,1,.39,1.054l.835.01a2.34,2.34,0,0,0-.58-1.617,4,4,0,0,0-2.753-.848,4.37,4.37,0,0,0-3.09.979,1.872,1.872,0,0,0-.569,1.363c0,1.964,2,2.125,3.572,2.265a6.721,6.721,0,0,1,1.966.357,1.246,1.246,0,0,1,.81,1.259,1.333,1.333,0,0,1-.393.974,3.7,3.7,0,0,1-2.332.672,3.659,3.659,0,0,1-2.53-.727,1.875,1.875,0,0,1-.529-1.394Zm8.832-5.593v.812h3.226v7.517h.857V49.77h3.225v-.812Zm11.374,0-3.832,8.329h.943s1.089-2.374,1.187-2.575h4.186c.095.2,1.176,2.575,1.176,2.575h.96l-3.832-8.329Zm.387,1.153c.269.573,1.549,3.382,1.744,3.8h-3.473c.191-.42,1.469-3.229,1.729-3.8m6.638-1.153v8.329h.865V53.666h3.373c1.485,0,1.836.3,1.871,1.592.033,1.352.094,1.8.276,1.973l.052.055h.893l-.138-.268a5.848,5.848,0,0,1-.2-2.121,1.742,1.742,0,0,0-1.178-1.691,2.15,2.15,0,0,0,1.314-1.954c0-1.547-.943-2.294-2.877-2.294Zm4.291.812c1.315,0,1.957.478,1.957,1.455,0,1.092-.681,1.624-2.078,1.624h-3.3V49.77Zm12.722-.812-3.83,8.329h.956s1.084-2.374,1.172-2.575h4.2c.088.2,1.178,2.575,1.178,2.575h.948l-3.813-8.329Zm.4,1.153c.266.573,1.543,3.382,1.731,3.8h-3.471c.189-.42,1.479-3.229,1.74-3.8m29.912-1.153-3.836,8.329h.957s1.081-2.374,1.172-2.575h4.195l1.184,2.575h.945l-3.812-8.329Zm.4,1.153c.263.573,1.543,3.382,1.731,3.8h-3.475c.193-.42,1.479-3.229,1.744-3.8M323.27,48.958v8.329h6V56.47h-5.137V48.958Zm7.856,0v8.329h5.994V56.47h-5.126V48.958Zm7.789,8.329h.858V48.958h-.858Zm21.223-8.329v6.953c-.531-.65-6.021-6.953-6.021-6.953h-.871v8.329h.858V50.334c.527.65,6.027,6.952,6.027,6.952H361V48.958Zm15,0v8.329h6.72V56.47H376V53.379h5.557v-.806H376v-2.8h5.79v-.812ZM363.7,53.134a4.173,4.173,0,0,0,4.515,4.327,4.025,4.025,0,0,0,4.221-3.356l.02-.206h-.9l-.029.149a3.128,3.128,0,0,1-3.311,2.6,3.358,3.358,0,0,1-3.619-3.519,3.437,3.437,0,0,1,3.653-3.531,2.962,2.962,0,0,1,3.153,2.091l.034.14h.9l-.051-.224c-.411-1.795-1.884-2.823-4.039-2.823a4.3,4.3,0,0,0-4.549,4.353" transform="translate(-258.103 -48.781)" fill="#1a1311"/><path d="M262.084,48.966h-.792l-3.828,8.329h.941s1.093-2.374,1.185-2.571h4.194l1.17,2.571h.958Zm-2.136,4.957c.2-.42,1.475-3.229,1.731-3.8.264.57,1.554,3.377,1.749,3.8Z" transform="translate(-257.464 -48.789)" fill="#1a1311"/><path d="M413.041,48.982V49.8h-5.8v2.8h5.564v.8h-5.564V56.5H413.1v.813h-6.721V48.982Z" transform="translate(-264.145 -48.79)" fill="#1a1311"/><path d="M424.843,48.989l.025-.045h1.222V57.3h-.859V50.082h-.022L421.527,57.3h-.8l-3.673-7.229h-.021V57.3h-.859V48.944h1.255l3.723,7.27Z" transform="translate(-264.584 -48.788)" fill="#1a1311"/><path d="M430.256,49.745h3.716c.945,0,1.621.33,1.621,1.353,0,1.112-.753,1.49-1.915,1.49h-3.422ZM429.4,57.3h4.625c1.283,0,2.741-.638,2.741-2.374a1.961,1.961,0,0,0-1.75-2.037v-.025a1.759,1.759,0,0,0,1.426-1.795c0-1.189-.676-2.105-2.311-2.105H429.4Zm.853-3.925h3.839c1,0,1.753.339,1.753,1.55,0,1.149-.842,1.591-1.961,1.591h-3.63Z" transform="translate(-265.178 -48.789)" fill="#1a1311"/><path d="M446.621,48.974v.818h-5.79v2.8h5.561v.8h-5.561v3.094h5.861V57.3h-6.725V48.974Z" transform="translate(-265.652 -48.79)" fill="#1a1311"/><path d="M456.934,57.038a5.883,5.883,0,0,1-.194-2.121,1.76,1.76,0,0,0-1.182-1.693,2.157,2.157,0,0,0,1.316-1.956c0-1.546-.942-2.293-2.879-2.293h-4.253V57.3h.868V53.68h3.373c1.484,0,1.828.3,1.87,1.593.03,1.354.1,1.8.272,1.974l.053.053h.894Zm-3.017-4.172h-3.306V49.789h3.424c1.319,0,1.958.477,1.958,1.452,0,1.1-.683,1.626-2.076,1.626" transform="translate(-266.091 -48.79)" fill="#1a1311"/></g><g transform="translate(16.583 21.872)"><g transform="translate(0 18.861)"><path d="M61.955,41.619l-4.033,9.652-3.994-9.617H41.888l.007.017H16.583V63.2H42.776V43.569L51.871,63.2H63.945L73.9,41.619Z" transform="translate(-16.583 -41.619)" fill="#fff"/><path d="M135.523,62.281,124.977,41.619h-12L102.244,62.54,91.566,41.619h-12L68.473,63.233H80.4l1.339-2.7h7.655L90.706,63.2l23.105.031,1.34-2.7h7.65l1.317,2.673H146.94V41.654H135.523Z" transform="translate(-18.911 -41.619)" fill="#fff"/><path d="M178.676,53.464a4.413,4.413,0,0,0,.912-2.685v-3.27c0-4.232-3.658-5.672-5.593-5.843l-21.634-.011V63.2h11.418V56.676l4.4,0V63.2H179.6V56.577A5.038,5.038,0,0,0,178.676,53.464Z" transform="translate(-22.674 -41.62)" fill="#fff"/></g><g transform="translate(1.315 20.177)"><path d="M41.522,48.1V43.051H17.959v18.9H41.522V56.908H26.554V54.825H41.522V50.171H26.554V48.1Z" transform="translate(-17.959 -42.999)" fill="#008a32"/><path d="M45.233,43.031h9.1L59.2,54.753,64.115,43h9.017L64.387,61.945H53.995Z" transform="translate(-19.183 -42.997)" fill="#008a32"/><path d="M91.626,61.945h8.907L90.861,43H80.468L70.726,61.98h8.953l1.339-2.706h9.29ZM83.385,54.5l2.288-4.613L87.95,54.5Z" transform="translate(-20.326 -42.997)" fill="#008a32"/><path d="M126.607,61.945h8.909L125.844,43H115.45L105.71,61.98h8.956L116,59.274h9.287ZM118.371,54.5l2.288-4.613,2.277,4.613Z" transform="translate(-21.896 -42.997)" fill="#008a32"/><rect width="8.787" height="18.914" transform="translate(116.614 0.034)" fill="#008a32"/><path d="M176.136,53.366c2.245,0,2.2-2.524,2.2-2.524v-3.27c0-4.147-4.393-4.532-4.393-4.532l-20.2-.006V61.947h8.786V55.424h5.835a1.123,1.123,0,0,1,.882.345,1.4,1.4,0,0,1,.31.872v5.306h8.791V56.641C178.339,53.594,176.136,53.366,176.136,53.366Zm-7.575-2.818h-6.135V47.812h6.135a1.368,1.368,0,1,1,0,2.736Z" transform="translate(-24.051 -42.999)" fill="#008a32"/></g><g transform="translate(159.273)"><path d="M237.75,21.872l-22.734,0L183.337,62.362l40.312,0Z" transform="translate(-183.337 -21.872)" fill="#fff"/><g transform="translate(2.715 1.343)"><path d="M199,46.276a12.82,12.82,0,1,0,13.022-16.643Z" transform="translate(-186.755 -23.563)" fill="#fff"/><path d="M215.8,23.278,186.18,61.129h36.571l13.178-37.851Zm-5.145,32.2a13.254,13.254,0,0,1-12.464-8.66v0l13.976-17.862h0a13.3,13.3,0,0,1-1.517,26.524" transform="translate(-186.18 -23.278)" fill="#008a32"/><path d="M212.732,29.225l-.3.375-.237.3-.06.08-.206.261a13.54,13.54,0,0,1,3.83,2.848,7.613,7.613,0,0,1-1.707.972,20.919,20.919,0,0,0-2.144-3.8l-.273.352a20.685,20.685,0,0,1,2.015,3.59,7.678,7.678,0,0,1-2.227.4V30.894l-.426.547V34.6a7.483,7.483,0,0,1-2.171-.39c-.016,0-1.014,1.3-1.014,1.3a21.719,21.719,0,0,0-.764,2.784c-.4-.073-.805-.168-1.206-.267l-.289.373c.47.121.946.225,1.418.315a21.529,21.529,0,0,0-.328,3.516h-3.708l.017-.511-.734.941h.291a14.3,14.3,0,0,0,.816,4.528,22.824,22.824,0,0,0-3.012,1.364,12.267,12.267,0,0,1-.971-2.211l-.3.373-.3.377a13.306,13.306,0,1,0,13.98-17.864m10.981,13H219.92a14,14,0,0,0-.83-4.524,23.137,23.137,0,0,0,3.03-1.371,12.415,12.415,0,0,1,1.594,5.894m-16.64.43H211v3.116a22.971,22.971,0,0,0-3.609.331,20.546,20.546,0,0,1-.318-3.447m4.354-3.551a22.533,22.533,0,0,0,3.611-.328,21.376,21.376,0,0,1,.321,3.449h-3.932Zm3.932,3.551a21.463,21.463,0,0,1-.315,3.44,23.251,23.251,0,0,0-3.617-.325V42.657Zm-7.891,3.864A22.462,22.462,0,0,1,211,46.2V49.86a7.681,7.681,0,0,0-2.392.436,20.361,20.361,0,0,1-1.141-3.775m.74,3.924A7.927,7.927,0,0,0,206.37,51.5a13.571,13.571,0,0,1-2.5-4.065,22.762,22.762,0,0,1,3.179-.849,20.713,20.713,0,0,0,1.161,3.855m3.219-4.247a22.9,22.9,0,0,1,3.54.32,20.612,20.612,0,0,1-1.14,3.769,7.85,7.85,0,0,0-2.4-.428Zm3.958.389a22.466,22.466,0,0,1,3.182.848,13.441,13.441,0,0,1-2.5,4.067,7.713,7.713,0,0,0-1.841-1.064,20.459,20.459,0,0,0,1.16-3.851m.082-.419a21.6,21.6,0,0,0,.32-3.511h3.708a13.636,13.636,0,0,1-.785,4.373,23.371,23.371,0,0,0-3.243-.862m.32-3.941a21.3,21.3,0,0,0-.329-3.516,22.157,22.157,0,0,0,3.233-.861,13.48,13.48,0,0,1,.8,4.376Zm6.117-6.26a21.576,21.576,0,0,1-2.967,1.336,14.17,14.17,0,0,0-2.552-4.162,8.2,8.2,0,0,0,1.291-1.4,12.548,12.548,0,0,1,4.227,4.226M212.388,30a12.4,12.4,0,0,1,4.914,1.527,7.3,7.3,0,0,1-1.206,1.294A14.1,14.1,0,0,0,212.388,30m3.662,3.41a13.717,13.717,0,0,1,2.487,4.044,22.66,22.66,0,0,1-3.155.836,20.713,20.713,0,0,0-1.159-3.836,7.851,7.851,0,0,0,1.826-1.044m-2.227,1.2a20.471,20.471,0,0,1,1.139,3.753,22.344,22.344,0,0,1-3.536.319V35.033a7.931,7.931,0,0,0,2.4-.426m-5.2-.016a7.774,7.774,0,0,0,2.38.439v3.649a22.2,22.2,0,0,1-3.527-.319,20.775,20.775,0,0,1,1.147-3.769m-1.227,4.187a22.677,22.677,0,0,0,3.608.328v3.121h-3.925a21.052,21.052,0,0,1,.317-3.449m-4.453,3.879h3.706a21.341,21.341,0,0,0,.324,3.511,23.192,23.192,0,0,0-3.243.871,13.8,13.8,0,0,1-.787-4.382m.529,4.932a13.873,13.873,0,0,0,2.569,4.184,8.015,8.015,0,0,0-1.267,1.387,12.453,12.453,0,0,1-4.252-4.236,21.634,21.634,0,0,1,2.95-1.335m1.674,5.782a7.636,7.636,0,0,1,1.179-1.28,14.025,14.025,0,0,0,3.7,2.786,12.5,12.5,0,0,1-4.88-1.506m1.515-1.549a7.622,7.622,0,0,1,1.714-.985,21.194,21.194,0,0,0,2.182,3.84,13.575,13.575,0,0,1-3.9-2.855M211,54.564a20.378,20.378,0,0,1-2.227-3.878,7.6,7.6,0,0,1,2.227-.4Zm.426-4.281a7.558,7.558,0,0,1,2.233.4,20.54,20.54,0,0,1-2.233,3.891Zm2.637.552a7.372,7.372,0,0,1,1.715.982,13.562,13.562,0,0,1-3.9,2.861,21.135,21.135,0,0,0,2.185-3.843m-1.66,4.049a14.1,14.1,0,0,0,3.712-2.794,7.318,7.318,0,0,1,1.177,1.267,12.461,12.461,0,0,1-4.888,1.526m5.261-1.738a8.02,8.02,0,0,0-1.266-1.377,13.84,13.84,0,0,0,2.569-4.185,21.56,21.56,0,0,1,2.945,1.332,12.593,12.593,0,0,1-4.247,4.23m4.457-4.6a21.991,21.991,0,0,0-3.011-1.359,14.28,14.28,0,0,0,.809-4.527h3.794a12.381,12.381,0,0,1-1.592,5.886" transform="translate(-186.744 -23.545)" fill="#e43c00"/><path d="M212.777,45.636l3.142,1.441-1.487-3.186,4.058-1v-.481l-4.058-1.01,1.547-3.253-3.224,1.511-1.005-5.772h-.568L210.2,39.65l-3.21-1.5,1.508,3.261-4.042,1v.475l4.042.978-1.463,3.22,3.154-1.432.989,5.764.555,0Z" transform="translate(-187 -23.754)" fill="#fff"/><path d="M211.492,34.222l1.053,5.9,2.824-1.338L214.035,41.6l4.234,1.059-4.234,1.055,1.284,2.766-2.774-1.266-1.072,5.841-1.042-5.841-2.778,1.27,1.279-2.771-4.226-1.055,4.226-1.059-1.322-2.821,2.821,1.325Z" transform="translate(-187.011 -23.769)" fill="#008a32"/></g></g></g></g></svg>