<svg xmlns="http://www.w3.org/2000/svg" width="150" height="49.44" viewBox="0 0 150 49.44"><g transform="translate(-258.406 -561.271)"><g transform="translate(258.406 561.271)"><line x2="138.51" transform="translate(0.726 34.256)" fill="none" stroke="#1a1311" stroke-width="0.421"/><line x2="138.582" transform="translate(0.64 34.256)" fill="none" stroke="#1a1311" stroke-width="0.421"/><g transform="translate(125.768 36.665)"><path d="M251.166,90.1a17.212,17.212,0,0,1,1.586-1.9,16.925,16.925,0,0,1,1.846-1.657l-.691,2.765" transform="translate(-247.878 -86.545)" fill="#fff"/><path d="M255.957,93.451a17.307,17.307,0,0,1-2.435-.426,17.014,17.014,0,0,1-2.356-.77l2.741-.788" transform="translate(-247.878 -88.702)" fill="#1a1311"/><path d="M256.737,86.545a17.461,17.461,0,0,1,.848,2.322,17.266,17.266,0,0,1,.513,2.427l-2.052-1.984" transform="translate(-250.017 -86.545)" fill="#8e8e8f"/><path d="M247.632,99.591a16.836,16.836,0,0,1-1.311-2.092,17.183,17.183,0,0,1-1.009-2.265l2.42,1.509" transform="translate(-245.312 -90.353)" fill="#8e8e8f"/><path d="M252.058,95.536a16.941,16.941,0,0,1-1.155,2.185,17.282,17.282,0,0,1-1.462,2l.1-2.85" transform="translate(-247.122 -90.486)" fill="#1a1311"/><path d="M245.319,95.152a17.438,17.438,0,0,1,4.932.171l-2.516,1.338" transform="translate(-245.315 -90.273)" fill="#fff"/><path d="M254.746,107a17.466,17.466,0,0,1-4.864.856l2.184-1.832" transform="translate(-247.315 -95.083)" fill="#1a1311"/><path d="M252.883,101.028a16.636,16.636,0,0,1,1.724,1.774,17.843,17.843,0,0,1,1.454,2.01l-2.68-.976" transform="translate(-248.63 -92.893)" fill="#8e8e8f"/><path d="M249.882,105.665a16.972,16.972,0,0,1,.676-2.374,17.475,17.475,0,0,1,1.008-2.263l.5,2.807" transform="translate(-247.315 -92.893)" fill="#fff"/><path d="M264.512,100.585a17.273,17.273,0,0,1-.686,4.89l-1.069-2.643" transform="translate(-252.958 -92.699)" fill="#8e8e8f"/><path d="M257.731,102.435a17.543,17.543,0,0,1,2.218-1.089,17.089,17.089,0,0,1,2.361-.761l-1.756,2.247" transform="translate(-250.755 -92.699)" fill="#fff"/><path d="M261.622,106.917a16.968,16.968,0,0,1-2.052-1.38,17.225,17.225,0,0,1-1.841-1.659l2.825.4" transform="translate(-250.754 -94.142)" fill="#1a1311"/><path d="M261.326,91.383a17.218,17.218,0,0,1,2.295.921,17.479,17.479,0,0,1,2.144,1.243l-2.844.2" transform="translate(-252.331 -88.665)" fill="#8e8e8f"/><path d="M261.636,96.307a17.395,17.395,0,0,1-.346-4.924l1.594,2.361" transform="translate(-252.295 -88.665)" fill="#fff"/><path d="M266.033,95.235A17.344,17.344,0,0,1,261.939,98l1.249-2.564" transform="translate(-252.6 -90.354)" fill="#1a1311"/></g><g transform="translate(0.662 40.996)"><path d="M173.433,94.424h.771v5.268h-.541V95.144h-.018l-2.319,4.548h-.5l-2.313-4.555H168.5v4.555h-.544V94.424h.792l2.348,4.582Z" transform="translate(-86.299 -94.33)" fill="#1a1311"/><path d="M37.852,97.891a1.612,1.612,0,0,0,.456,1.21,2.855,2.855,0,0,0,2.027.611c.5,0,2.237-.111,2.237-1.55,0-1.263-1.154-1.38-2.173-1.482v0c-1.05-.106-1.824-.221-1.824-.934a.822.822,0,0,1,.554-.784,2.922,2.922,0,0,1,1.236-.2,1.9,1.9,0,0,1,1.287.393.958.958,0,0,1,.242.664l.527.006a1.468,1.468,0,0,0-.366-1.016,2.515,2.515,0,0,0-1.735-.535,2.74,2.74,0,0,0-1.943.616,1.174,1.174,0,0,0-.362.859c0,1.236,1.262,1.339,2.25,1.426A4.235,4.235,0,0,1,41.5,97.4a.782.782,0,0,1,.51.792.843.843,0,0,1-.244.613,2.332,2.332,0,0,1-1.469.421,2.3,2.3,0,0,1-1.594-.456,1.165,1.165,0,0,1-.333-.878Zm5.563-3.525v.515h2.032v4.733h.539V94.881h2.032v-.515Zm7.166,0-2.412,5.248h.592s.686-1.5.745-1.621h2.641l.737,1.621h.606l-2.413-5.248Zm.243.729c.167.361.977,2.131,1.1,2.395H49.734c.122-.264.927-2.034,1.09-2.395m4.181-.729v5.248h.547V97.335h2.123c.937,0,1.157.185,1.181,1,.02.853.06,1.13.171,1.245l.034.033h.562l-.087-.169a3.667,3.667,0,0,1-.126-1.335,1.1,1.1,0,0,0-.743-1.064,1.363,1.363,0,0,0,.83-1.234c0-.973-.594-1.446-1.812-1.446Zm2.7.515c.83,0,1.232.3,1.232.915,0,.69-.426,1.025-1.307,1.025H55.552v-1.94Zm8.013-.515-2.411,5.248h.6s.684-1.5.739-1.621h2.642l.744,1.621h.6l-2.4-5.248Zm.256.729c.164.361.971,2.131,1.091,2.395H64.881c.12-.264.932-2.034,1.1-2.395m18.841-.729-2.414,5.248h.6s.681-1.5.737-1.621h2.643c.057.126.747,1.621.747,1.621h.6l-2.4-5.248Zm.253.729c.166.361.972,2.131,1.092,2.395h-2.19c.121-.264.931-2.034,1.1-2.395m-14.744-.729v5.248H74.11V99.1H70.874V94.366Zm4.949,0v5.248h3.773V99.1H75.824V94.366Zm4.9,5.248h.541V94.368h-.541Zm13.371-5.248v4.381c-.334-.409-3.794-4.381-3.794-4.381h-.55v5.248h.541V95.236c.336.409,3.8,4.378,3.8,4.378h.547V94.366Zm9.445,0v5.248h4.236V99.1h-3.691V97.153h3.5v-.506h-3.5V94.881h3.647v-.515ZM95.8,97a2.629,2.629,0,0,0,2.844,2.729,2.531,2.531,0,0,0,2.656-2.116l.013-.127h-.567l-.017.092a1.967,1.967,0,0,1-2.084,1.637A2.115,2.115,0,0,1,96.358,97a2.164,2.164,0,0,1,2.3-2.225,1.862,1.862,0,0,1,1.987,1.319l.023.087h.569l-.031-.14a2.353,2.353,0,0,0-2.548-1.779A2.706,2.706,0,0,0,95.8,97" transform="translate(-29.276 -94.256)" fill="#1a1311"/><path d="M25.5,94.456H25L22.584,99.7h.593l.747-1.621h2.642L27.3,99.7h.6Zm-1.345,3.122c.121-.265.927-2.033,1.091-2.395.166.362.978,2.129,1.1,2.395Z" transform="translate(-22.584 -94.344)" fill="#1a1311"/><path d="M186.293,94.473v.515h-3.651v1.766h3.5v.506h-3.5v1.947h3.7v.512H182.1V94.473Z" transform="translate(-92.499 -94.351)" fill="#1a1311"/><path d="M198.05,94.461l.016-.031h.769V99.7h-.541V95.148h-.016L195.961,99.7h-.506l-2.313-4.556h-.015V99.7h-.541V94.43h.79l2.347,4.579Z" transform="translate(-97.096 -94.332)" fill="#1a1311"/><path d="M207.3,94.946h2.34c.594,0,1.018.21,1.018.851,0,.7-.471.939-1.2.939H207.3ZM206.76,99.7h2.911a1.537,1.537,0,0,0,1.729-1.5,1.236,1.236,0,0,0-1.1-1.283v-.014a1.113,1.113,0,0,0,.9-1.134c0-.747-.425-1.324-1.455-1.324h-2.98Zm.539-2.473h2.416c.631,0,1.1.215,1.1.976,0,.722-.53,1-1.235,1H207.3Z" transform="translate(-103.308 -94.342)" fill="#1a1311"/><path d="M222.269,94.465v.512H218.62v1.768h3.5v.5h-3.5V99.2h3.691v.511h-4.235V94.465Z" transform="translate(-108.268 -94.348)" fill="#1a1311"/><path d="M233.075,99.542a3.809,3.809,0,0,1-.121-1.336,1.107,1.107,0,0,0-.744-1.067,1.357,1.357,0,0,0,.827-1.232c0-.972-.593-1.443-1.811-1.443h-2.68V99.71h.547V97.43h2.125c.935,0,1.154.186,1.18,1,.02.851.058,1.131.17,1.243l.035.034h.562Zm-1.9-2.626h-2.086v-1.94h2.158c.83,0,1.233.3,1.233.914,0,.691-.43,1.026-1.305,1.026" transform="translate(-112.857 -94.348)" fill="#1a1311"/></g><g transform="translate(0 0)"><g transform="translate(0 13.24)"><path d="M53.256,44.842l-2.831,6.775-2.8-6.751H39.17l.005.012H21.406V60H39.793V46.212l6.384,13.781h8.475l6.99-15.151Z" transform="translate(-21.406 -44.842)" fill="#fff"/><path d="M130.411,59.346l-7.4-14.5h-8.424L107.05,59.528,99.555,44.842H91.129L83.344,60.015h8.37l.939-1.9h5.374l.924,1.877,16.219.022.94-1.9h5.371l.925,1.877h16.019V44.867h-8.014Z" transform="translate(-48.554 -44.842)" fill="#fff"/><path d="M201.948,53.176a3.1,3.1,0,0,0,.64-1.885V49a4.135,4.135,0,0,0-3.926-4.1l-15.186-.008V60.012h8.015V55.431l3.086,0v4.58h8.017V55.361A3.537,3.537,0,0,0,201.948,53.176Z" transform="translate(-92.441 -44.861)" fill="#fff"/></g><g transform="translate(0.923 14.164)"><path d="M39.59,50.093V46.552H23.05V59.821H39.59V56.28H29.083V54.817H39.59V51.549H29.083V50.093Z" transform="translate(-23.05 -46.515)" fill="#008a32"/><path d="M55.6,46.512h6.388l3.419,8.227,3.448-8.252h6.329L69.05,59.79h-7.3Z" transform="translate(-37.318 -46.487)" fill="#008a32"/><path d="M100.706,59.79h6.252l-6.788-13.3h-7.3L86.035,59.812H92.32l.939-1.9H99.78Zm-5.784-5.228,1.606-3.237,1.6,3.237Z" transform="translate(-50.656 -46.487)" fill="#008a32"/><path d="M142.461,59.79h6.253l-6.79-13.3h-7.3l-6.838,13.325h6.288l.94-1.9h6.519Zm-5.782-5.228,1.606-3.237,1.6,3.237Z" transform="translate(-68.958 -46.487)" fill="#008a32"/><rect width="6.168" height="13.278" transform="translate(81.858 0.025)" fill="#008a32"/><path d="M200.844,53.784c1.574,0,1.542-1.772,1.542-1.772v-2.3c0-2.911-3.083-3.182-3.083-3.182l-14.182,0V59.809h6.168V55.228h4.1a.789.789,0,0,1,.618.243.98.98,0,0,1,.218.613v3.726h6.171V56.083C202.389,53.944,200.844,53.784,200.844,53.784Zm-5.318-1.978h-4.307V49.884h4.307a.961.961,0,1,1,0,1.922Z" transform="translate(-94.085 -46.506)" fill="#008a32"/></g><g transform="translate(111.803)"><path d="M258.647,21.271l-15.959,0L220.45,49.695l28.3,0Z" transform="translate(-220.45 -21.271)" fill="#fff"/><g transform="translate(1.906 0.944)"><path d="M239.151,42.219a9,9,0,1,0,9.141-11.683Z" transform="translate(-230.552 -26.276)" fill="#fff"/><path d="M244.634,22.952,223.843,49.521h25.672l9.251-26.569Zm-3.612,22.605a9.3,9.3,0,0,1-8.748-6.079v0l9.811-12.538h0a9.34,9.34,0,0,1-1.065,18.619" transform="translate(-223.843 -22.952)" fill="#008a32"/><path d="M248.664,30.049l-.207.264-.167.213-.043.055-.144.184a9.521,9.521,0,0,1,2.689,2,5.372,5.372,0,0,1-1.2.683,14.665,14.665,0,0,0-1.505-2.664l-.192.247a14.616,14.616,0,0,1,1.414,2.52,5.293,5.293,0,0,1-1.563.278V31.221l-.3.384v2.218a5.186,5.186,0,0,1-1.524-.274c-.011,0-.712.909-.712.909a15.112,15.112,0,0,0-.536,1.954c-.283-.051-.565-.118-.847-.188l-.2.262c.329.085.664.158.995.221a15.169,15.169,0,0,0-.23,2.469h-2.6l.013-.359-.516.66h.2a10.04,10.04,0,0,0,.573,3.178,16.057,16.057,0,0,0-2.115.96,8.732,8.732,0,0,1-.682-1.554l-.207.262-.208.266a9.34,9.34,0,1,0,9.813-12.54m7.708,9.127H253.71A9.8,9.8,0,0,0,253.127,36a16.254,16.254,0,0,0,2.127-.963,8.718,8.718,0,0,1,1.118,4.137m-11.68.3h2.756v2.188a16.073,16.073,0,0,0-2.533.231,14.352,14.352,0,0,1-.223-2.42m3.056-2.491a15.961,15.961,0,0,0,2.535-.231,14.96,14.96,0,0,1,.225,2.421h-2.76Zm2.76,2.491a15.061,15.061,0,0,1-.221,2.415,16.146,16.146,0,0,0-2.539-.227V39.477Zm-5.539,2.714a15.674,15.674,0,0,1,2.479-.225v2.567a5.406,5.406,0,0,0-1.679.307,14.239,14.239,0,0,1-.8-2.649m.519,2.753a5.578,5.578,0,0,0-1.29.745,9.518,9.518,0,0,1-1.756-2.853,16,16,0,0,1,2.23-.6,14.582,14.582,0,0,0,.816,2.7m2.26-2.981a16.237,16.237,0,0,1,2.485.226,14.517,14.517,0,0,1-.8,2.646,5.54,5.54,0,0,0-1.684-.3Zm2.779.274a15.845,15.845,0,0,1,2.233.594,9.459,9.459,0,0,1-1.754,2.856,5.418,5.418,0,0,0-1.294-.746,14.341,14.341,0,0,0,.815-2.7m.057-.295a15.184,15.184,0,0,0,.224-2.465h2.6a9.548,9.548,0,0,1-.551,3.07,16.353,16.353,0,0,0-2.276-.6m.224-2.766a15.034,15.034,0,0,0-.23-2.469,15.565,15.565,0,0,0,2.269-.6,9.461,9.461,0,0,1,.563,3.072Zm4.294-4.395a15.222,15.222,0,0,1-2.082.939,9.92,9.92,0,0,0-1.792-2.921,5.817,5.817,0,0,0,.907-.984,8.806,8.806,0,0,1,2.967,2.966m-6.679-4.188a8.758,8.758,0,0,1,3.451,1.072,5.163,5.163,0,0,1-.848.909,9.915,9.915,0,0,0-2.6-1.981m2.57,2.394a9.646,9.646,0,0,1,1.746,2.839,15.778,15.778,0,0,1-2.215.586,14.562,14.562,0,0,0-.813-2.692,5.528,5.528,0,0,0,1.282-.734m-1.563.84a14.387,14.387,0,0,1,.8,2.634,15.823,15.823,0,0,1-2.482.224V34.126a5.629,5.629,0,0,0,1.683-.3m-3.653-.011a5.49,5.49,0,0,0,1.67.308v2.561a15.708,15.708,0,0,1-2.475-.224,14.462,14.462,0,0,1,.8-2.646m-.861,2.939a16.1,16.1,0,0,0,2.532.231v2.19h-2.755a14.71,14.71,0,0,1,.224-2.421m-3.126,2.722h2.6a14.89,14.89,0,0,0,.228,2.465,16.292,16.292,0,0,0-2.277.611,9.671,9.671,0,0,1-.553-3.076m.372,3.462a9.735,9.735,0,0,0,1.8,2.938,5.657,5.657,0,0,0-.89.973,8.728,8.728,0,0,1-2.984-2.974,15.37,15.37,0,0,1,2.071-.937M243.337,47a5.443,5.443,0,0,1,.827-.9,9.847,9.847,0,0,0,2.6,1.957A8.808,8.808,0,0,1,243.337,47m1.063-1.088a5.41,5.41,0,0,1,1.2-.692,14.912,14.912,0,0,0,1.532,2.7,9.549,9.549,0,0,1-2.736-2m3.048,1.925a14.36,14.36,0,0,1-1.563-2.723,5.269,5.269,0,0,1,1.563-.283Zm.3-3.005a5.282,5.282,0,0,1,1.568.281,14.434,14.434,0,0,1-1.568,2.732Zm1.851.387a5.209,5.209,0,0,1,1.2.689,9.509,9.509,0,0,1-2.738,2.008,14.862,14.862,0,0,0,1.535-2.7m-1.165,2.842a9.906,9.906,0,0,0,2.6-1.962,5.177,5.177,0,0,1,.826.891,8.779,8.779,0,0,1-3.431,1.071m3.693-1.22a5.659,5.659,0,0,0-.889-.968,9.707,9.707,0,0,0,1.8-2.938,15.173,15.173,0,0,1,2.066.936,8.847,8.847,0,0,1-2.981,2.97m3.128-3.231a15.674,15.674,0,0,0-2.113-.955,10.028,10.028,0,0,0,.568-3.178h2.662a8.7,8.7,0,0,1-1.117,4.132" transform="translate(-230.421 -26.063)" fill="#e43c00"/><path d="M251.5,43.861l2.205,1.013-1.044-2.237,2.849-.7V41.6l-2.849-.709,1.086-2.284-2.263,1.061-.705-4.052h-.4l-.692,4.044-2.253-1.053,1.059,2.289-2.837.7v.333l2.837.687-1.026,2.261,2.214-1,.694,4.046.389,0Z" transform="translate(-233.403 -28.502)" fill="#fff"/><path d="M250.722,36.013l.739,4.14,1.982-.938-.936,1.981,2.972.742-2.972.74.9,1.943-1.947-.888-.752,4.1-.731-4.1-1.949.891.9-1.946-2.966-.74,2.966-.742L248,39.215l1.98.93Z" transform="translate(-233.537 -28.677)" fill="#008a32"/></g></g></g></g></g></svg>