<svg xmlns="http://www.w3.org/2000/svg" width="105" height="40" viewBox="0 0 105 40"><g transform="translate(-22 -707)"><rect width="105" height="40" rx="20" transform="translate(22 707)" fill="#044b43"/><path d="M24.472,11V5.408L22.288,9.572h-.924L19.18,5.408V11H17.524V2.48H19.3l2.52,4.848L24.364,2.48h1.764V11Zm3.276,0V4.712l1.6.012L29.356,11Zm0-7.176V2.24h1.6l.012,1.6Zm5.988,7.3a3.556,3.556,0,0,1-1.38-.255,3.012,3.012,0,0,1-1.044-.712,3.281,3.281,0,0,1-.666-1.038,3.244,3.244,0,0,1-.234-1.222,3.277,3.277,0,0,1,.4-1.608A3.048,3.048,0,0,1,31.96,5.115a3.408,3.408,0,0,1,1.764-.439,3.315,3.315,0,0,1,1.752.444,2.825,2.825,0,0,1,1.092,1.164L35,6.764a1.412,1.412,0,0,0-.54-.534,1.51,1.51,0,0,0-.744-.186,1.576,1.576,0,0,0-.834.229,1.6,1.6,0,0,0-.594.647,2.087,2.087,0,0,0-.216.971,2.014,2.014,0,0,0,.222.959,1.743,1.743,0,0,0,.594.659,1.489,1.489,0,0,0,.828.241,1.553,1.553,0,0,0,.546-.1,1.6,1.6,0,0,0,.462-.264,1.049,1.049,0,0,0,.3-.384l1.572.48a2.578,2.578,0,0,1-.63.84,3.039,3.039,0,0,1-.972.582A3.539,3.539,0,0,1,33.736,11.12ZM43.42,11H41.812V7.523a1.712,1.712,0,0,0-.282-1.076.935.935,0,0,0-.774-.355,1.36,1.36,0,0,0-.612.164,1.986,1.986,0,0,0-.582.451,1.8,1.8,0,0,0-.378.662V11H37.576V2.24h1.608V5.934a2.464,2.464,0,0,1,.948-.926,2.656,2.656,0,0,1,1.308-.332,2.087,2.087,0,0,1,1,.208,1.562,1.562,0,0,1,.6.558,2.316,2.316,0,0,1,.3.783,4.7,4.7,0,0,1,.084.9Zm4.32.12a3.524,3.524,0,0,1-1.368-.255,3.093,3.093,0,0,1-1.044-.7,3.161,3.161,0,0,1-.666-1.021,3.2,3.2,0,0,1-.234-1.216,3.336,3.336,0,0,1,.4-1.626,3.065,3.065,0,0,1,1.152-1.181,3.4,3.4,0,0,1,1.77-.445,3.329,3.329,0,0,1,1.764.446A3.03,3.03,0,0,1,50.638,6.3a3.3,3.3,0,0,1,.39,1.575q0,.142-.012.291t-.024.244h-4.86a1.785,1.785,0,0,0,.282.821,1.528,1.528,0,0,0,.6.534,1.743,1.743,0,0,0,.786.182,1.854,1.854,0,0,0,.906-.234,1.239,1.239,0,0,0,.582-.618l1.38.384a2.616,2.616,0,0,1-.654.852,3.142,3.142,0,0,1-1,.582A3.69,3.69,0,0,1,47.74,11.12ZM46.1,7.388h3.288a1.831,1.831,0,0,0-.27-.815,1.557,1.557,0,0,0-.582-.539,1.671,1.671,0,0,0-.8-.193,1.612,1.612,0,0,0-.786.193,1.571,1.571,0,0,0-.576.539A1.831,1.831,0,0,0,46.1,7.388ZM52,2.24h1.608V9.006a.865.865,0,0,0,.144.584.522.522,0,0,0,.4.15,1.727,1.727,0,0,0,.4-.048,1.9,1.9,0,0,0,.36-.12L55.12,10.8a3.11,3.11,0,0,1-.756.24,4.124,4.124,0,0,1-.78.084,1.608,1.608,0,0,1-1.17-.4A1.531,1.531,0,0,1,52,9.568ZM55.816,11V4.712l1.6.012L57.424,11Zm0-7.176V2.24h1.6l.012,1.6ZM64.72,11H63.112V7.523a1.791,1.791,0,0,0-.264-1.088.872.872,0,0,0-.732-.343,1.46,1.46,0,0,0-.654.164,2.034,2.034,0,0,0-.594.451,1.757,1.757,0,0,0-.384.662V11H58.876V4.772h1.452V5.934a2.337,2.337,0,0,1,.612-.682,2.759,2.759,0,0,1,.858-.427,3.5,3.5,0,0,1,1.026-.148,1.993,1.993,0,0,1,.966.208,1.441,1.441,0,0,1,.576.558,2.465,2.465,0,0,1,.276.789,5.078,5.078,0,0,1,.078.89ZM66.1,8.42l-.012-1.44,3.612.012.024,1.44ZM7.87,23.12a4.493,4.493,0,0,1-1.536-.264,3.453,3.453,0,0,1-1.26-.78l.576-1.044a4.308,4.308,0,0,0,1.11.672,2.85,2.85,0,0,0,1.05.216,1.5,1.5,0,0,0,.75-.162.526.526,0,0,0,.282-.486.422.422,0,0,0-.156-.349,1.432,1.432,0,0,0-.45-.219q-.294-.095-.714-.213a11.113,11.113,0,0,1-1.164-.438,1.711,1.711,0,0,1-.7-.539,1.4,1.4,0,0,1-.234-.835,1.773,1.773,0,0,1,.318-1.06,2.088,2.088,0,0,1,.888-.693,3.324,3.324,0,0,1,1.338-.249,3.823,3.823,0,0,1,1.272.21,3.025,3.025,0,0,1,1.092.678l-.648,1.02a3.891,3.891,0,0,0-.912-.546,2.327,2.327,0,0,0-.876-.174,1.837,1.837,0,0,0-.474.059.791.791,0,0,0-.36.195.514.514,0,0,0-.138.384.467.467,0,0,0,.126.348,1.072,1.072,0,0,0,.384.218q.258.094.63.213a10.44,10.44,0,0,1,1.278.437,2.015,2.015,0,0,1,.786.549,1.375,1.375,0,0,1,.264.892A1.708,1.708,0,0,1,9.706,22.6,2.962,2.962,0,0,1,7.87,23.12Zm7.344-.432q-.2.084-.492.192a3.982,3.982,0,0,1-.618.174,3.388,3.388,0,0,1-.666.066,2.106,2.106,0,0,1-.816-.155,1.285,1.285,0,0,1-.594-.493,1.591,1.591,0,0,1-.222-.886V18.008h-.828V16.772h.828v-2.04h1.608v2.04h1.32v1.236h-1.32V21.04a.605.605,0,0,0,.18.462.628.628,0,0,0,.42.142,1.479,1.479,0,0,0,.492-.084q.24-.084.384-.144Zm.408-1.524a1.721,1.721,0,0,1,.342-1.061,2.188,2.188,0,0,1,.954-.705,3.7,3.7,0,0,1,1.4-.249,5.521,5.521,0,0,1,.8.06,2.755,2.755,0,0,1,.708.192v-.334a1.157,1.157,0,0,0-.354-.907,1.525,1.525,0,0,0-1.05-.318,2.717,2.717,0,0,0-.984.18,4.976,4.976,0,0,0-.984.528l-.516-1.056a5.12,5.12,0,0,1,1.278-.612,4.588,4.588,0,0,1,1.374-.2,3.057,3.057,0,0,1,2.094.663,2.392,2.392,0,0,1,.75,1.893v1.976a.551.551,0,0,0,.09.355.434.434,0,0,0,.294.13V23q-.216.036-.39.06a2.21,2.21,0,0,1-.294.024,1.071,1.071,0,0,1-.726-.216.917.917,0,0,1-.306-.528l-.036-.324a2.749,2.749,0,0,1-1.02.816,2.9,2.9,0,0,1-1.248.288,2.427,2.427,0,0,1-1.122-.255,1.958,1.958,0,0,1-.78-.7A1.831,1.831,0,0,1,15.622,21.164Zm3.912.312a1.654,1.654,0,0,0,.216-.281.51.51,0,0,0,.084-.257v-.62a3.306,3.306,0,0,0-.624-.181,3.389,3.389,0,0,0-.636-.064,1.839,1.839,0,0,0-1.026.263.8.8,0,0,0-.4.7.824.824,0,0,0,.132.445.949.949,0,0,0,.384.339,1.3,1.3,0,0,0,.6.129,1.949,1.949,0,0,0,.708-.135A1.759,1.759,0,0,0,19.534,21.476ZM26.686,18.1a2.937,2.937,0,0,0-1.308.282,1.716,1.716,0,0,0-.828.81V23H22.942V16.772h1.476v1.284a2.839,2.839,0,0,1,.852-1.02,2.064,2.064,0,0,1,1.092-.408h.2a.5.5,0,0,1,.12.012Zm4.644,0a2.937,2.937,0,0,0-1.308.282,1.716,1.716,0,0,0-.828.81V23H27.586V16.772h1.476v1.284a2.839,2.839,0,0,1,.852-1.02,2.064,2.064,0,0,1,1.092-.408h.2a.5.5,0,0,1,.12.012Zm3.732,5.016a3.524,3.524,0,0,1-1.368-.255,3.094,3.094,0,0,1-1.044-.7,3.161,3.161,0,0,1-.666-1.021,3.2,3.2,0,0,1-.234-1.216,3.336,3.336,0,0,1,.4-1.626A3.065,3.065,0,0,1,33.3,17.121a3.4,3.4,0,0,1,1.77-.445,3.329,3.329,0,0,1,1.764.446A3.03,3.03,0,0,1,37.96,18.3a3.3,3.3,0,0,1,.39,1.575q0,.142-.012.291t-.024.244h-4.86a1.785,1.785,0,0,0,.282.821,1.528,1.528,0,0,0,.6.534,1.743,1.743,0,0,0,.786.182,1.854,1.854,0,0,0,.906-.234,1.239,1.239,0,0,0,.582-.618l1.38.384a2.616,2.616,0,0,1-.654.852,3.142,3.142,0,0,1-1,.582A3.69,3.69,0,0,1,35.062,23.12Zm-1.644-3.732h3.288a1.831,1.831,0,0,0-.27-.815,1.557,1.557,0,0,0-.582-.539,1.671,1.671,0,0,0-.8-.194,1.612,1.612,0,0,0-.786.194,1.571,1.571,0,0,0-.576.539A1.831,1.831,0,0,0,33.418,19.388Zm5.532.5a3.638,3.638,0,0,1,.36-1.632,2.916,2.916,0,0,1,1-1.157,2.543,2.543,0,0,1,1.452-.427,2.352,2.352,0,0,1,1.254.342,2.515,2.515,0,0,1,.87.87V14.24H45.49V21.2a.6.6,0,0,0,.084.36.408.408,0,0,0,.288.132V23a3.645,3.645,0,0,1-.684.084,1.14,1.14,0,0,1-.714-.216.786.786,0,0,1-.318-.564l-.024-.4a2.343,2.343,0,0,1-.942.9,2.636,2.636,0,0,1-1.242.312,2.841,2.841,0,0,1-1.194-.249,2.909,2.909,0,0,1-.948-.688,3.154,3.154,0,0,1-.624-1.027A3.546,3.546,0,0,1,38.95,19.892Zm4.932.824V19.245a1.656,1.656,0,0,0-.384-.612,2.125,2.125,0,0,0-.588-.43,1.474,1.474,0,0,0-1.32-.006,1.7,1.7,0,0,0-.522.412,1.777,1.777,0,0,0-.336.6,2.252,2.252,0,0,0-.114.718,2.008,2.008,0,0,0,.126.712,1.668,1.668,0,0,0,.366.583,1.774,1.774,0,0,0,.558.388,1.68,1.68,0,0,0,.69.141,1.481,1.481,0,0,0,.462-.077,1.914,1.914,0,0,0,.444-.212,1.637,1.637,0,0,0,.372-.33A1.441,1.441,0,0,0,43.882,20.716Zm5.712-2.048a4.315,4.315,0,0,1,.282-1.53A4.441,4.441,0,0,1,50.7,15.77a3.966,3.966,0,0,1,1.32-.984,4.134,4.134,0,0,1,1.776-.366,3.872,3.872,0,0,1,2.034.516,3.3,3.3,0,0,1,1.278,1.344l-1.272.876a2.032,2.032,0,0,0-.564-.762,2.1,2.1,0,0,0-.744-.4,2.81,2.81,0,0,0-.78-.114,2.234,2.234,0,0,0-1.086.252,2.422,2.422,0,0,0-.774.66,2.8,2.8,0,0,0-.462.912,3.518,3.518,0,0,0-.15,1.008,3.308,3.308,0,0,0,.18,1.086,2.965,2.965,0,0,0,.51.924,2.441,2.441,0,0,0,.792.636,2.212,2.212,0,0,0,1.014.234,2.6,2.6,0,0,0,.8-.132,2.28,2.28,0,0,0,.756-.42,1.906,1.906,0,0,0,.54-.744l1.356.78a2.54,2.54,0,0,1-.822,1.08,4.113,4.113,0,0,1-1.278.672,4.56,4.56,0,0,1-1.4.228,3.677,3.677,0,0,1-1.668-.378,4.176,4.176,0,0,1-1.3-1.008,4.809,4.809,0,0,1-.852-1.416A4.351,4.351,0,0,1,49.594,18.668ZM64.03,23H62.422V19.523a1.712,1.712,0,0,0-.282-1.076.935.935,0,0,0-.774-.355,1.36,1.36,0,0,0-.612.164,1.986,1.986,0,0,0-.582.451,1.8,1.8,0,0,0-.378.662V23H58.186V14.24h1.608v3.694a2.464,2.464,0,0,1,.948-.926,2.656,2.656,0,0,1,1.308-.332,2.087,2.087,0,0,1,1,.208,1.562,1.562,0,0,1,.6.558,2.316,2.316,0,0,1,.3.783,4.7,4.7,0,0,1,.084.9Zm4.32.12a3.524,3.524,0,0,1-1.368-.255,3.094,3.094,0,0,1-1.044-.7,3.161,3.161,0,0,1-.666-1.021,3.2,3.2,0,0,1-.234-1.216,3.336,3.336,0,0,1,.4-1.626,3.065,3.065,0,0,1,1.152-1.181,3.4,3.4,0,0,1,1.77-.445,3.329,3.329,0,0,1,1.764.446A3.03,3.03,0,0,1,71.248,18.3a3.3,3.3,0,0,1,.39,1.575q0,.142-.012.291t-.024.244h-4.86a1.785,1.785,0,0,0,.282.821,1.528,1.528,0,0,0,.6.534,1.743,1.743,0,0,0,.786.182,1.854,1.854,0,0,0,.906-.234,1.239,1.239,0,0,0,.582-.618l1.38.384a2.616,2.616,0,0,1-.654.852,3.142,3.142,0,0,1-1,.582A3.69,3.69,0,0,1,68.35,23.12Zm-1.644-3.732h3.288a1.831,1.831,0,0,0-.27-.815,1.557,1.557,0,0,0-.582-.539,1.671,1.671,0,0,0-.8-.194,1.612,1.612,0,0,0-.786.194,1.571,1.571,0,0,0-.576.539A1.831,1.831,0,0,0,66.706,19.388ZM72.97,23V18.272h-.828V17.048h.828v-.384a3.252,3.252,0,0,1,.258-1.35,2.025,2.025,0,0,1,.732-.882,1.972,1.972,0,0,1,1.11-.312,3.229,3.229,0,0,1,.774.1,4.171,4.171,0,0,1,.774.276L76.294,15.7a2.045,2.045,0,0,0-.42-.162,1.721,1.721,0,0,0-.456-.066.732.732,0,0,0-.624.288,1.385,1.385,0,0,0-.216.84v.444h1.536v1.224H74.578V23Zm6.372.12a4.493,4.493,0,0,1-1.536-.264,3.453,3.453,0,0,1-1.26-.78l.576-1.044a4.307,4.307,0,0,0,1.11.672,2.85,2.85,0,0,0,1.05.216,1.5,1.5,0,0,0,.75-.162.526.526,0,0,0,.282-.486.422.422,0,0,0-.156-.349,1.432,1.432,0,0,0-.45-.219q-.294-.095-.714-.213a11.113,11.113,0,0,1-1.164-.438,1.711,1.711,0,0,1-.7-.539,1.4,1.4,0,0,1-.234-.835,1.773,1.773,0,0,1,.318-1.06,2.088,2.088,0,0,1,.888-.693,3.324,3.324,0,0,1,1.338-.249,3.823,3.823,0,0,1,1.272.21,3.025,3.025,0,0,1,1.092.678l-.648,1.02a3.891,3.891,0,0,0-.912-.546,2.327,2.327,0,0,0-.876-.174,1.837,1.837,0,0,0-.474.059.791.791,0,0,0-.36.195.514.514,0,0,0-.138.384.467.467,0,0,0,.126.348,1.072,1.072,0,0,0,.384.218q.258.094.63.213a10.44,10.44,0,0,1,1.278.437,2.015,2.015,0,0,1,.786.549,1.375,1.375,0,0,1,.264.892,1.708,1.708,0,0,1-.684,1.441A2.962,2.962,0,0,1,79.342,23.12Z" transform="translate(31 714)" fill="#fff"/></g></svg>