<svg xmlns="http://www.w3.org/2000/svg" width="105" height="40" viewBox="0 0 105 40"><g transform="translate(-249 -707)"><rect width="105" height="40" rx="20" transform="translate(249 707)" fill="#044b43"/><path d="M7.634,11V2.48h3.1a4.4,4.4,0,0,1,2.328.57,3.611,3.611,0,0,1,1.4,1.536,4.848,4.848,0,0,1,.468,2.142,4.7,4.7,0,0,1-.516,2.256,3.653,3.653,0,0,1-1.458,1.488A4.48,4.48,0,0,1,10.73,11Zm5.628-4.272a3.355,3.355,0,0,0-.3-1.458,2.3,2.3,0,0,0-.864-.984,2.523,2.523,0,0,0-1.368-.354H9.29V9.548h1.44a2.482,2.482,0,0,0,1.38-.366,2.326,2.326,0,0,0,.858-1.008A3.434,3.434,0,0,0,13.262,6.728Zm5.724,4.392a3.524,3.524,0,0,1-1.368-.255,3.094,3.094,0,0,1-1.044-.7,3.161,3.161,0,0,1-.666-1.021,3.2,3.2,0,0,1-.234-1.216,3.336,3.336,0,0,1,.4-1.626,3.065,3.065,0,0,1,1.152-1.181A3.4,3.4,0,0,1,19,4.676a3.329,3.329,0,0,1,1.764.446A3.03,3.03,0,0,1,21.884,6.3a3.3,3.3,0,0,1,.39,1.575q0,.142-.012.291t-.024.244h-4.86a1.785,1.785,0,0,0,.282.821,1.528,1.528,0,0,0,.6.534,1.743,1.743,0,0,0,.786.182,1.854,1.854,0,0,0,.906-.234,1.239,1.239,0,0,0,.582-.618l1.38.384a2.616,2.616,0,0,1-.654.852,3.142,3.142,0,0,1-1,.582A3.69,3.69,0,0,1,18.986,11.12ZM17.342,7.388H20.63a1.831,1.831,0,0,0-.27-.815,1.557,1.557,0,0,0-.582-.539,1.671,1.671,0,0,0-.8-.193,1.612,1.612,0,0,0-.786.193,1.571,1.571,0,0,0-.576.539A1.831,1.831,0,0,0,17.342,7.388Zm5.9-5.148h1.608V9.006A.865.865,0,0,0,25,9.59a.522.522,0,0,0,.4.15,1.727,1.727,0,0,0,.4-.048,1.9,1.9,0,0,0,.36-.12l.216,1.224a3.11,3.11,0,0,1-.756.24,4.124,4.124,0,0,1-.78.084,1.608,1.608,0,0,1-1.17-.4,1.531,1.531,0,0,1-.414-1.149ZM27.062,11V4.712l1.6.012L28.67,11Zm0-7.176V2.24h1.6l.012,1.6Zm5.988,7.3a3.556,3.556,0,0,1-1.38-.255,3.012,3.012,0,0,1-1.044-.712,3.281,3.281,0,0,1-.666-1.038,3.244,3.244,0,0,1-.234-1.222,3.277,3.277,0,0,1,.4-1.608,3.048,3.048,0,0,1,1.146-1.169,3.408,3.408,0,0,1,1.764-.439,3.315,3.315,0,0,1,1.752.444,2.825,2.825,0,0,1,1.092,1.164l-1.572.48a1.412,1.412,0,0,0-.54-.534,1.51,1.51,0,0,0-.744-.186,1.576,1.576,0,0,0-.834.229,1.6,1.6,0,0,0-.594.647,2.087,2.087,0,0,0-.216.971,2.014,2.014,0,0,0,.222.959,1.743,1.743,0,0,0,.594.659,1.489,1.489,0,0,0,.828.241,1.553,1.553,0,0,0,.546-.1,1.6,1.6,0,0,0,.462-.264,1.049,1.049,0,0,0,.3-.384l1.572.48a2.578,2.578,0,0,1-.63.84,3.039,3.039,0,0,1-.972.582A3.539,3.539,0,0,1,33.05,11.12ZM36.89,11V4.712l1.6.012L38.5,11Zm0-7.176V2.24h1.6l.012,1.6Zm5.952,7.3a3.523,3.523,0,0,1-1.368-.255,2.99,2.99,0,0,1-1.038-.706,3.112,3.112,0,0,1-.648-1.026A3.383,3.383,0,0,1,39.566,7.9a3.431,3.431,0,0,1,.222-1.234,3.1,3.1,0,0,1,.648-1.032,2.99,2.99,0,0,1,1.038-.706,3.843,3.843,0,0,1,2.754,0A3.052,3.052,0,0,1,45.92,6.67,3.431,3.431,0,0,1,46.142,7.9a3.383,3.383,0,0,1-.222,1.228,3.112,3.112,0,0,1-.648,1.026,2.99,2.99,0,0,1-1.038.706A3.589,3.589,0,0,1,42.842,11.12ZM41.2,7.916a2.142,2.142,0,0,0,.228.948,1.652,1.652,0,0,0,.588.653,1.515,1.515,0,0,0,1.668-.006,1.743,1.743,0,0,0,.594-.659,2.072,2.072,0,0,0,0-1.913,1.751,1.751,0,0,0-.588-.665,1.412,1.412,0,0,0-.834-.229,1.538,1.538,0,0,0-.84.235,1.643,1.643,0,0,0-.588.659A2.232,2.232,0,0,0,41.2,7.916Zm5.964.755v-3.9H48.77V8.317a1.812,1.812,0,0,0,.264,1.073.9.9,0,0,0,.78.362,1.64,1.64,0,0,0,.618-.123A1.772,1.772,0,0,0,51,9.258a2.113,2.113,0,0,0,.438-.623V4.772h1.608V9.206a.553.553,0,0,0,.09.356.434.434,0,0,0,.294.13V11q-.24.036-.4.054a2.683,2.683,0,0,1-.294.018,1.165,1.165,0,0,1-.7-.2.772.772,0,0,1-.318-.541l-.036-.5a2.745,2.745,0,0,1-1.08.957,3.226,3.226,0,0,1-1.452.327,1.785,1.785,0,0,1-1.476-.624A2.85,2.85,0,0,1,47.162,8.671Zm9.792,2.449a4.493,4.493,0,0,1-1.536-.264,3.453,3.453,0,0,1-1.26-.78l.576-1.044a4.308,4.308,0,0,0,1.11.672,2.85,2.85,0,0,0,1.05.216,1.5,1.5,0,0,0,.75-.162.526.526,0,0,0,.282-.486.422.422,0,0,0-.156-.349,1.432,1.432,0,0,0-.45-.219q-.294-.095-.714-.213a11.113,11.113,0,0,1-1.164-.438,1.711,1.711,0,0,1-.7-.539,1.4,1.4,0,0,1-.234-.835,1.773,1.773,0,0,1,.318-1.06,2.088,2.088,0,0,1,.888-.693,3.324,3.324,0,0,1,1.338-.249,3.823,3.823,0,0,1,1.272.21,3.025,3.025,0,0,1,1.092.678l-.648,1.02a3.891,3.891,0,0,0-.912-.546,2.327,2.327,0,0,0-.876-.174,1.837,1.837,0,0,0-.474.059.791.791,0,0,0-.36.195.514.514,0,0,0-.138.384.467.467,0,0,0,.126.348,1.072,1.072,0,0,0,.384.218q.258.094.63.213a10.44,10.44,0,0,1,1.278.437,2.015,2.015,0,0,1,.786.549,1.375,1.375,0,0,1,.264.892A1.708,1.708,0,0,1,58.79,10.6,2.962,2.962,0,0,1,56.954,11.12ZM24.008,17.908l-2.712.024V25H19.652l.012-7.092-2.736.024.012-1.452h7.08Zm4.056,2.2a2.937,2.937,0,0,0-1.308.282,1.716,1.716,0,0,0-.828.81V25H24.32V18.772H25.8v1.284a2.839,2.839,0,0,1,.852-1.02,2.064,2.064,0,0,1,1.092-.408h.2a.5.5,0,0,1,.12.012ZM31.8,25.12a3.524,3.524,0,0,1-1.368-.255,3.094,3.094,0,0,1-1.044-.7,3.161,3.161,0,0,1-.666-1.021,3.2,3.2,0,0,1-.234-1.216,3.336,3.336,0,0,1,.4-1.626,3.065,3.065,0,0,1,1.152-1.181,3.4,3.4,0,0,1,1.77-.445,3.329,3.329,0,0,1,1.764.446A3.03,3.03,0,0,1,34.694,20.3a3.3,3.3,0,0,1,.39,1.575q0,.142-.012.291t-.024.244h-4.86a1.785,1.785,0,0,0,.282.821,1.528,1.528,0,0,0,.6.534,1.743,1.743,0,0,0,.786.182,1.854,1.854,0,0,0,.906-.234,1.239,1.239,0,0,0,.582-.618l1.38.384a2.616,2.616,0,0,1-.654.852,3.142,3.142,0,0,1-1,.582A3.69,3.69,0,0,1,31.8,25.12Zm-1.644-3.732H33.44a1.831,1.831,0,0,0-.27-.815,1.557,1.557,0,0,0-.582-.539,1.671,1.671,0,0,0-.8-.194,1.612,1.612,0,0,0-.786.194,1.571,1.571,0,0,0-.576.539A1.831,1.831,0,0,0,30.152,21.388Zm5.484,1.776a1.721,1.721,0,0,1,.342-1.061,2.188,2.188,0,0,1,.954-.705,3.7,3.7,0,0,1,1.4-.249,5.521,5.521,0,0,1,.8.06,2.755,2.755,0,0,1,.708.192v-.334a1.157,1.157,0,0,0-.354-.907,1.525,1.525,0,0,0-1.05-.318,2.717,2.717,0,0,0-.984.18,4.976,4.976,0,0,0-.984.528l-.516-1.056a5.12,5.12,0,0,1,1.278-.612,4.588,4.588,0,0,1,1.374-.2,3.057,3.057,0,0,1,2.094.663,2.392,2.392,0,0,1,.75,1.893v1.976a.551.551,0,0,0,.09.355.434.434,0,0,0,.294.13V25q-.216.036-.39.06a2.21,2.21,0,0,1-.294.024,1.071,1.071,0,0,1-.726-.216.917.917,0,0,1-.306-.528l-.036-.324a2.749,2.749,0,0,1-1.02.816,2.9,2.9,0,0,1-1.248.288,2.427,2.427,0,0,1-1.122-.255,1.958,1.958,0,0,1-.78-.7A1.831,1.831,0,0,1,35.636,23.164Zm3.912.312a1.654,1.654,0,0,0,.216-.281.51.51,0,0,0,.084-.257v-.62a3.306,3.306,0,0,0-.624-.181,3.389,3.389,0,0,0-.636-.064,1.839,1.839,0,0,0-1.026.263.8.8,0,0,0-.4.7.824.824,0,0,0,.132.445.949.949,0,0,0,.384.339,1.3,1.3,0,0,0,.6.129,1.949,1.949,0,0,0,.708-.135A1.759,1.759,0,0,0,39.548,23.476Zm7.116,1.212q-.2.084-.492.192a3.982,3.982,0,0,1-.618.174,3.388,3.388,0,0,1-.666.066,2.106,2.106,0,0,1-.816-.155,1.285,1.285,0,0,1-.594-.493,1.591,1.591,0,0,1-.222-.886V20.008h-.828V18.772h.828v-2.04h1.608v2.04h1.32v1.236h-1.32V23.04a.605.605,0,0,0,.18.462.628.628,0,0,0,.42.142,1.479,1.479,0,0,0,.492-.084q.24-.084.384-.144Zm3.156.432a4.493,4.493,0,0,1-1.536-.264,3.453,3.453,0,0,1-1.26-.78l.576-1.044a4.308,4.308,0,0,0,1.11.672,2.85,2.85,0,0,0,1.05.216,1.5,1.5,0,0,0,.75-.162.526.526,0,0,0,.282-.486.422.422,0,0,0-.156-.349,1.432,1.432,0,0,0-.45-.219q-.294-.095-.714-.213a11.113,11.113,0,0,1-1.164-.438,1.711,1.711,0,0,1-.7-.539,1.4,1.4,0,0,1-.234-.835,1.773,1.773,0,0,1,.318-1.06,2.088,2.088,0,0,1,.888-.693,3.324,3.324,0,0,1,1.338-.249,3.823,3.823,0,0,1,1.272.21,3.025,3.025,0,0,1,1.092.678l-.648,1.02a3.891,3.891,0,0,0-.912-.546,2.327,2.327,0,0,0-.876-.174,1.837,1.837,0,0,0-.474.059.791.791,0,0,0-.36.195.514.514,0,0,0-.138.384A.467.467,0,0,0,49,20.85a1.072,1.072,0,0,0,.384.218q.258.094.63.213a10.44,10.44,0,0,1,1.278.437,2.015,2.015,0,0,1,.786.549,1.375,1.375,0,0,1,.264.892,1.708,1.708,0,0,1-.684,1.441A2.962,2.962,0,0,1,49.82,25.12Z" transform="translate(267 713)" fill="#fff"/></g></svg>