<svg xmlns="http://www.w3.org/2000/svg" width="105" height="40" viewBox="0 0 105 40"><g transform="translate(-135 -707)"><rect width="105" height="40" rx="20" transform="translate(135 707)" fill="#044b43"/><path d="M2.065,6.668a4.315,4.315,0,0,1,.282-1.53A4.441,4.441,0,0,1,3.169,3.77a3.966,3.966,0,0,1,1.32-.984A4.134,4.134,0,0,1,6.265,2.42,3.872,3.872,0,0,1,8.3,2.936,3.3,3.3,0,0,1,9.577,4.28l-1.272.876a2.032,2.032,0,0,0-.564-.762A2.1,2.1,0,0,0,7,4a2.81,2.81,0,0,0-.78-.114,2.234,2.234,0,0,0-1.086.252,2.422,2.422,0,0,0-.774.66,2.8,2.8,0,0,0-.462.912,3.518,3.518,0,0,0-.15,1.008A3.308,3.308,0,0,0,3.925,7.8a2.965,2.965,0,0,0,.51.924,2.441,2.441,0,0,0,.792.636A2.212,2.212,0,0,0,6.241,9.6a2.6,2.6,0,0,0,.8-.132,2.28,2.28,0,0,0,.756-.42,1.906,1.906,0,0,0,.54-.744L9.7,9.08a2.539,2.539,0,0,1-.822,1.08,4.113,4.113,0,0,1-1.278.672,4.56,4.56,0,0,1-1.4.228,3.677,3.677,0,0,1-1.668-.378,4.176,4.176,0,0,1-1.3-1.008,4.809,4.809,0,0,1-.852-1.416A4.351,4.351,0,0,1,2.065,6.668ZM13.549,11.12a3.524,3.524,0,0,1-1.368-.255,3.094,3.094,0,0,1-1.044-.7,3.161,3.161,0,0,1-.666-1.021,3.2,3.2,0,0,1-.234-1.216,3.336,3.336,0,0,1,.4-1.626,3.065,3.065,0,0,1,1.152-1.181,3.4,3.4,0,0,1,1.77-.445,3.329,3.329,0,0,1,1.764.446A3.03,3.03,0,0,1,16.447,6.3a3.3,3.3,0,0,1,.39,1.575q0,.142-.012.291t-.024.244h-4.86a1.785,1.785,0,0,0,.282.821,1.528,1.528,0,0,0,.6.534,1.743,1.743,0,0,0,.786.182,1.854,1.854,0,0,0,.906-.234,1.239,1.239,0,0,0,.582-.618l1.38.384a2.616,2.616,0,0,1-.654.852,3.142,3.142,0,0,1-1,.582A3.69,3.69,0,0,1,13.549,11.12ZM11.905,7.388h3.288a1.831,1.831,0,0,0-.27-.815,1.557,1.557,0,0,0-.582-.539,1.671,1.671,0,0,0-.8-.193,1.612,1.612,0,0,0-.786.193,1.571,1.571,0,0,0-.576.539A1.831,1.831,0,0,0,11.905,7.388Zm5.9-5.148h1.608V9.006a.865.865,0,0,0,.144.584.522.522,0,0,0,.4.15,1.727,1.727,0,0,0,.4-.048,1.9,1.9,0,0,0,.36-.12l.216,1.224a3.11,3.11,0,0,1-.756.24,4.124,4.124,0,0,1-.78.084,1.608,1.608,0,0,1-1.17-.4,1.531,1.531,0,0,1-.414-1.149Zm6.732,8.88a3.524,3.524,0,0,1-1.368-.255,3.094,3.094,0,0,1-1.044-.7,3.161,3.161,0,0,1-.666-1.021,3.2,3.2,0,0,1-.234-1.216,3.336,3.336,0,0,1,.4-1.626,3.065,3.065,0,0,1,1.152-1.181,3.4,3.4,0,0,1,1.77-.445,3.329,3.329,0,0,1,1.764.446A3.03,3.03,0,0,1,27.439,6.3a3.3,3.3,0,0,1,.39,1.575q0,.142-.012.291t-.024.244h-4.86a1.785,1.785,0,0,0,.282.821,1.528,1.528,0,0,0,.6.534,1.743,1.743,0,0,0,.786.182,1.854,1.854,0,0,0,.906-.234,1.239,1.239,0,0,0,.582-.618l1.38.384a2.616,2.616,0,0,1-.654.852,3.142,3.142,0,0,1-1,.582A3.69,3.69,0,0,1,24.541,11.12ZM22.9,7.388h3.288a1.831,1.831,0,0,0-.27-.815,1.557,1.557,0,0,0-.582-.539,1.671,1.671,0,0,0-.8-.193,1.612,1.612,0,0,0-.786.193,1.571,1.571,0,0,0-.576.539A1.831,1.831,0,0,0,22.9,7.388Zm9.492,3.732a2.531,2.531,0,0,1-1.284-.324,2.366,2.366,0,0,1-.888-.888V11h-1.4V2.24h1.608V5.888A2.5,2.5,0,0,1,31.3,5,2.628,2.628,0,0,1,33.7,4.931a2.657,2.657,0,0,1,.87.706,3.32,3.32,0,0,1,.564,1.032,3.841,3.841,0,0,1,.2,1.246,3.464,3.464,0,0,1-.222,1.246,3.3,3.3,0,0,1-.618,1.027,2.743,2.743,0,0,1-2.1.932Zm-.444-1.368a1.651,1.651,0,0,0,.7-.147A1.784,1.784,0,0,0,33.2,9.21a1.712,1.712,0,0,0,.36-.583,1.976,1.976,0,0,0,.126-.7,2.1,2.1,0,0,0-.21-.936A1.786,1.786,0,0,0,32.9,6.3a1.447,1.447,0,0,0-.858-.259,1.471,1.471,0,0,0-.666.159,1.912,1.912,0,0,0-.564.43,2.14,2.14,0,0,0-.39.612V8.716a1.166,1.166,0,0,0,.234.424,1.653,1.653,0,0,0,.378.324,2.037,2.037,0,0,0,.45.212A1.481,1.481,0,0,0,31.945,9.752ZM40.165,6.1a2.937,2.937,0,0,0-1.308.282,1.716,1.716,0,0,0-.828.81V11H36.421V4.772H37.9V6.056a2.839,2.839,0,0,1,.852-1.02,2.064,2.064,0,0,1,1.092-.408h.2a.5.5,0,0,1,.12.012Zm.9,4.9V4.712l1.6.012L42.673,11Zm0-7.176V2.24h1.6l.012,1.6Zm6.828,6.864q-.2.084-.492.192a3.982,3.982,0,0,1-.618.174,3.388,3.388,0,0,1-.666.066,2.106,2.106,0,0,1-.816-.155,1.285,1.285,0,0,1-.594-.493,1.591,1.591,0,0,1-.222-.886V6.008h-.828V4.772h.828V2.732h1.608v2.04h1.32V6.008h-1.32V9.04a.605.605,0,0,0,.18.462.628.628,0,0,0,.42.142,1.479,1.479,0,0,0,.492-.084q.24-.084.384-.144Zm.948,1.536q.216.048.4.084a1.714,1.714,0,0,0,.318.036.61.61,0,0,0,.378-.113,1.135,1.135,0,0,0,.294-.4,5.344,5.344,0,0,0,.3-.81L48.049,4.772h1.668l1.692,4.613L52.9,4.772h1.536l-2.64,7.485a2.288,2.288,0,0,1-.438.757,2.084,2.084,0,0,1-.732.537,2.356,2.356,0,0,1-.978.2,2.484,2.484,0,0,1-.384-.03,2.886,2.886,0,0,1-.42-.1ZM12.007,20.668a4.315,4.315,0,0,1,.282-1.53,4.441,4.441,0,0,1,.822-1.368,3.966,3.966,0,0,1,1.32-.984,4.134,4.134,0,0,1,1.776-.366,3.872,3.872,0,0,1,2.034.516,3.3,3.3,0,0,1,1.278,1.344l-1.272.876a2.032,2.032,0,0,0-.564-.762,2.1,2.1,0,0,0-.744-.4,2.81,2.81,0,0,0-.78-.114,2.234,2.234,0,0,0-1.086.252,2.422,2.422,0,0,0-.774.66,2.8,2.8,0,0,0-.462.912,3.518,3.518,0,0,0-.15,1.008,3.308,3.308,0,0,0,.18,1.086,2.965,2.965,0,0,0,.51.924,2.441,2.441,0,0,0,.792.636,2.212,2.212,0,0,0,1.014.234,2.6,2.6,0,0,0,.8-.132,2.28,2.28,0,0,0,.756-.42,1.906,1.906,0,0,0,.54-.744l1.356.78a2.54,2.54,0,0,1-.822,1.08,4.113,4.113,0,0,1-1.278.672,4.56,4.56,0,0,1-1.4.228,3.677,3.677,0,0,1-1.668-.378,4.176,4.176,0,0,1-1.3-1.008,4.809,4.809,0,0,1-.852-1.416A4.351,4.351,0,0,1,12.007,20.668ZM26.443,25H24.835V21.523a1.712,1.712,0,0,0-.282-1.076.935.935,0,0,0-.774-.355,1.36,1.36,0,0,0-.612.164,1.986,1.986,0,0,0-.582.451,1.8,1.8,0,0,0-.378.662V25H20.6V16.24h1.608v3.694a2.464,2.464,0,0,1,.948-.926,2.656,2.656,0,0,1,1.308-.332,2.087,2.087,0,0,1,1,.208,1.561,1.561,0,0,1,.6.558,2.316,2.316,0,0,1,.3.783,4.7,4.7,0,0,1,.084.9Zm4.32.12a3.524,3.524,0,0,1-1.368-.255,3.094,3.094,0,0,1-1.044-.7,3.161,3.161,0,0,1-.666-1.021,3.2,3.2,0,0,1-.234-1.216,3.336,3.336,0,0,1,.4-1.626,3.065,3.065,0,0,1,1.152-1.181,3.4,3.4,0,0,1,1.77-.445,3.329,3.329,0,0,1,1.764.446A3.03,3.03,0,0,1,33.661,20.3a3.3,3.3,0,0,1,.39,1.575q0,.142-.012.291t-.024.244h-4.86a1.785,1.785,0,0,0,.282.821,1.528,1.528,0,0,0,.6.534,1.743,1.743,0,0,0,.786.182,1.854,1.854,0,0,0,.906-.234,1.239,1.239,0,0,0,.582-.618l1.38.384a2.616,2.616,0,0,1-.654.852,3.142,3.142,0,0,1-1,.582A3.69,3.69,0,0,1,30.763,25.12Zm-1.644-3.732h3.288a1.831,1.831,0,0,0-.27-.815,1.557,1.557,0,0,0-.582-.539,1.671,1.671,0,0,0-.8-.194,1.612,1.612,0,0,0-.786.194,1.571,1.571,0,0,0-.576.539A1.831,1.831,0,0,0,29.119,21.388ZM35.383,25V20.272h-.828V19.048h.828v-.384a3.252,3.252,0,0,1,.258-1.35,2.025,2.025,0,0,1,.732-.882,1.973,1.973,0,0,1,1.11-.312,3.229,3.229,0,0,1,.774.1,4.171,4.171,0,0,1,.774.276L38.707,17.7a2.045,2.045,0,0,0-.42-.162,1.721,1.721,0,0,0-.456-.066.732.732,0,0,0-.624.288,1.385,1.385,0,0,0-.216.84v.444h1.536v1.224H36.991V25Zm6.372.12a4.493,4.493,0,0,1-1.536-.264,3.453,3.453,0,0,1-1.26-.78l.576-1.044a4.308,4.308,0,0,0,1.11.672,2.85,2.85,0,0,0,1.05.216,1.5,1.5,0,0,0,.75-.162.526.526,0,0,0,.282-.486.422.422,0,0,0-.156-.349,1.432,1.432,0,0,0-.45-.219q-.294-.095-.714-.213a11.113,11.113,0,0,1-1.164-.438,1.711,1.711,0,0,1-.7-.539,1.4,1.4,0,0,1-.234-.835,1.773,1.773,0,0,1,.318-1.06,2.088,2.088,0,0,1,.888-.693,3.324,3.324,0,0,1,1.338-.249,3.823,3.823,0,0,1,1.272.21,3.025,3.025,0,0,1,1.092.678l-.648,1.02a3.891,3.891,0,0,0-.912-.546,2.327,2.327,0,0,0-.876-.174,1.837,1.837,0,0,0-.474.059.791.791,0,0,0-.36.195.514.514,0,0,0-.138.384.467.467,0,0,0,.126.348,1.072,1.072,0,0,0,.384.218q.258.094.63.213a10.44,10.44,0,0,1,1.278.437,2.015,2.015,0,0,1,.786.549,1.375,1.375,0,0,1,.264.892,1.708,1.708,0,0,1-.684,1.441A2.962,2.962,0,0,1,41.755,25.12Z" transform="translate(160 713)" fill="#fff"/></g></svg>