<svg xmlns="http://www.w3.org/2000/svg" width="12.96" height="191.551" viewBox="0 0 12.96 191.551">
  <g id="top" transform="translate(-1872.086 -3997.955)" style="isolation: isolate">
    <path id="路径_101" data-name="路径 101" d="M4331.606,4088.006v-46l-8.3,12.9" transform="translate(-2449 100)" fill="none" stroke="#fff" stroke-linecap="round" stroke-linejoin="round" stroke-width="3"/>
    <path id="路径_273" data-name="路径 273" d="M11.628-3.294a2.889,2.889,0,0,1-.558,1.809,3.463,3.463,0,0,1-1.5,1.107A5.5,5.5,0,0,1,7.506,0H1.332V-12.78h6.84a2.579,2.579,0,0,1,1.557.477,3.133,3.133,0,0,1,1.008,1.224,3.62,3.62,0,0,1,.351,1.557,3.5,3.5,0,0,1-.468,1.746A2.838,2.838,0,0,1,9.252-6.552a3.266,3.266,0,0,1,1.737,1.17A3.365,3.365,0,0,1,11.628-3.294Zm-2.5-.468a1.889,1.889,0,0,0-.2-.873A1.6,1.6,0,0,0,8.4-5.247a1.334,1.334,0,0,0-.765-.225H3.816v3.366h3.69a1.542,1.542,0,0,0,.819-.225,1.658,1.658,0,0,0,.585-.6A1.64,1.64,0,0,0,9.126-3.762Zm-5.31-6.894v3.222H7.128a1.482,1.482,0,0,0,.756-.2,1.486,1.486,0,0,0,.549-.558,1.706,1.706,0,0,0,.207-.864A1.8,1.8,0,0,0,8.451-9.9a1.423,1.423,0,0,0-.5-.558,1.308,1.308,0,0,0-.711-.2ZM17.658-12.78h2.52L24.876,0H22.32L21.258-3.186H16.566L15.5,0H12.942Zm3.018,7.848-1.758-5.274L17.151-4.932ZM25.92-6.5a6.473,6.473,0,0,1,.423-2.295,6.661,6.661,0,0,1,1.233-2.052,5.948,5.948,0,0,1,1.98-1.476,6.2,6.2,0,0,1,2.664-.549,5.808,5.808,0,0,1,3.051.774,4.943,4.943,0,0,1,1.917,2.016L35.28-8.766a3.047,3.047,0,0,0-.846-1.143,3.149,3.149,0,0,0-1.116-.594,4.216,4.216,0,0,0-1.17-.171,3.351,3.351,0,0,0-1.629.378,3.633,3.633,0,0,0-1.161.99,4.207,4.207,0,0,0-.693,1.368,5.277,5.277,0,0,0-.225,1.512A4.962,4.962,0,0,0,28.71-4.8a4.447,4.447,0,0,0,.765,1.386,3.662,3.662,0,0,0,1.188.954,3.317,3.317,0,0,0,1.521.351,3.9,3.9,0,0,0,1.206-.2,3.42,3.42,0,0,0,1.134-.63,2.858,2.858,0,0,0,.81-1.116l2.034,1.17a3.809,3.809,0,0,1-1.233,1.62A6.17,6.17,0,0,1,34.218-.252,6.84,6.84,0,0,1,32.112.09a5.515,5.515,0,0,1-2.5-.567,6.264,6.264,0,0,1-1.953-1.512,7.213,7.213,0,0,1-1.278-2.124A6.526,6.526,0,0,1,25.92-6.5ZM39.942,0V-12.78h2.484v6.074L47.79-12.8h2.736L45.63-7.12,50.832,0H48.024L44.046-5.516l-1.62,1.695V0ZM66.906-10.638l-4.068.036V0H60.372l.018-10.638-4.1.036L56.3-12.78h10.62ZM74.574.09a5.888,5.888,0,0,1-2.547-.54,6.017,6.017,0,0,1-1.962-1.467A6.887,6.887,0,0,1,68.8-4.005a6.546,6.546,0,0,1-.45-2.385,6.356,6.356,0,0,1,.477-2.439,6.9,6.9,0,0,1,1.314-2.07,6.231,6.231,0,0,1,1.98-1.44,5.886,5.886,0,0,1,2.511-.531,5.687,5.687,0,0,1,2.529.558,6.078,6.078,0,0,1,1.953,1.494A7.136,7.136,0,0,1,80.37-8.73a6.476,6.476,0,0,1,.45,2.376,6.416,6.416,0,0,1-.468,2.421,6.761,6.761,0,0,1-1.305,2.07,6.116,6.116,0,0,1-1.98,1.431A5.929,5.929,0,0,1,74.574.09ZM70.866-6.39a5.142,5.142,0,0,0,.252,1.6,4.387,4.387,0,0,0,.729,1.377,3.476,3.476,0,0,0,1.17.954,3.437,3.437,0,0,0,1.575.351,3.391,3.391,0,0,0,1.6-.369,3.462,3.462,0,0,0,1.17-.99,4.6,4.6,0,0,0,.711-1.386,5.057,5.057,0,0,0,.243-1.539,4.9,4.9,0,0,0-.261-1.593,4.557,4.557,0,0,0-.738-1.368,3.476,3.476,0,0,0-1.17-.954,3.4,3.4,0,0,0-1.557-.351,3.377,3.377,0,0,0-1.611.369,3.533,3.533,0,0,0-1.161.981,4.5,4.5,0,0,0-.711,1.368A5.029,5.029,0,0,0,70.866-6.39Zm27-4.248L93.8-10.6V0H91.332l.018-10.638-4.1.036.018-2.178h10.62ZM105.534.09a5.888,5.888,0,0,1-2.547-.54,6.017,6.017,0,0,1-1.962-1.467,6.887,6.887,0,0,1-1.269-2.088,6.546,6.546,0,0,1-.45-2.385,6.356,6.356,0,0,1,.477-2.439A6.9,6.9,0,0,1,101.1-10.9a6.231,6.231,0,0,1,1.98-1.44,5.886,5.886,0,0,1,2.511-.531,5.687,5.687,0,0,1,2.529.558,6.078,6.078,0,0,1,1.953,1.494,7.136,7.136,0,0,1,1.26,2.088,6.476,6.476,0,0,1,.45,2.376,6.416,6.416,0,0,1-.468,2.421,6.761,6.761,0,0,1-1.305,2.07,6.116,6.116,0,0,1-1.98,1.431A5.929,5.929,0,0,1,105.534.09Zm-3.708-6.48a5.142,5.142,0,0,0,.252,1.6,4.387,4.387,0,0,0,.729,1.377,3.476,3.476,0,0,0,1.17.954,3.437,3.437,0,0,0,1.575.351,3.391,3.391,0,0,0,1.6-.369,3.462,3.462,0,0,0,1.17-.99,4.6,4.6,0,0,0,.711-1.386,5.057,5.057,0,0,0,.243-1.539,4.9,4.9,0,0,0-.261-1.593,4.557,4.557,0,0,0-.738-1.368,3.476,3.476,0,0,0-1.17-.954,3.4,3.4,0,0,0-1.557-.351,3.377,3.377,0,0,0-1.611.369,3.533,3.533,0,0,0-1.161.981,4.5,4.5,0,0,0-.711,1.368A5.029,5.029,0,0,0,101.826-6.39ZM114.588,0V-12.78h5.418a3.645,3.645,0,0,1,1.62.36,4.168,4.168,0,0,1,1.287.972,4.643,4.643,0,0,1,.855,1.368,3.853,3.853,0,0,1,.288,1.548,4.48,4.48,0,0,1-.5,2.043,4.146,4.146,0,0,1-1.377,1.584,3.711,3.711,0,0,1-2.088.621L117.054-4.3l.018,4.3Zm2.484-6.462h2.88a1.379,1.379,0,0,0,.81-.252,1.737,1.737,0,0,0,.576-.729,2.66,2.66,0,0,0,.216-1.107,2.393,2.393,0,0,0-.243-1.116,1.719,1.719,0,0,0-.63-.7,1.589,1.589,0,0,0-.837-.234l-2.79-.018Z" transform="translate(1884.956 4122.012) rotate(-90)" fill="#fff"/>
  </g>
</svg>
